<svg width="15" height="9" viewBox="0 0 15 9" fill="none" xmlns="http://www.w3.org/2000/svg">
<path d="M6.89177 0.856391L6.89675 0.850998L6.90151 0.845414C6.96672 0.768973 7.04414 0.709951 7.12784 0.670308C7.21142 0.630717 7.30034 0.610841 7.3893 0.610841C7.47826 0.610841 7.56719 0.630717 7.65077 0.670308C7.73446 0.709951 7.81188 0.768973 7.87709 0.845413L7.88185 0.850998L7.88683 0.856391L13.8296 7.29465L13.8296 7.29466L13.8324 7.29763C13.8978 7.367 13.9514 7.45131 13.9885 7.54638C14.0255 7.64105 14.0451 7.7436 14.0457 7.84792C14.0451 7.95225 14.0255 8.0548 13.9885 8.14947C13.9514 8.24454 13.8978 8.32885 13.8324 8.39822L13.8306 8.40014C13.7012 8.53929 13.5326 8.61133 13.3636 8.61133C13.1948 8.61133 13.0264 8.53942 12.897 8.40052C12.8969 8.4004 12.8968 8.40027 12.8967 8.40014L7.69093 2.77033L7.41698 2.47406L7.14154 2.76895L1.88244 8.39958L1.88192 8.40014C1.75249 8.53929 1.58392 8.61133 1.41496 8.61133C1.24601 8.61133 1.07744 8.53929 0.948007 8.40014L0.94772 8.39983C0.882757 8.33015 0.829765 8.24568 0.793129 8.15058C0.756483 8.05545 0.737305 7.95251 0.737305 7.84793C0.737305 7.74334 0.756483 7.6404 0.793129 7.54527C0.829765 7.45017 0.882757 7.3657 0.94772 7.29602L0.947723 7.29602L0.948987 7.29465L6.89177 0.856391Z" fill="#63CBF2" stroke="#F9F9F9" stroke-width="0.75"/>
</svg>
