<svg width="24" height="21" viewBox="0 0 24 21" fill="none" xmlns="http://www.w3.org/2000/svg">
<path d="M13.831 16.5001L13.8293 16.5001C13.6961 16.5005 13.5649 16.4748 13.4456 16.4252C13.3264 16.3757 13.2227 16.3041 13.1415 16.2165C13.1414 16.2165 13.1414 16.2164 13.1413 16.2164L8.31167 10.9667L8.31167 10.9667L8.31078 10.9658C8.18404 10.8309 8.11719 10.6646 8.11719 10.4957C8.11719 10.327 8.18394 10.1609 8.31049 10.026C8.31059 10.0259 8.31068 10.0258 8.31078 10.0257L13.3102 4.77633L13.3103 4.77621C13.4571 4.62163 13.6715 4.52138 13.9078 4.50232C14.1441 4.48326 14.3774 4.54745 14.5562 4.67746C14.7345 4.80716 14.8421 4.98985 14.8624 5.18278C14.8827 5.37534 14.8153 5.57004 14.6691 5.72398C14.6691 5.72399 14.6691 5.72401 14.669 5.72403L10.1992 10.4139L10.1184 10.4987L10.1977 10.5848L14.5177 15.2748L14.5177 15.2748L14.5191 15.2763C14.6246 15.3871 14.6898 15.52 14.7098 15.6586C14.7297 15.7971 14.7041 15.9384 14.6346 16.0663C14.5649 16.1945 14.4533 16.3051 14.3106 16.3829C14.1679 16.4608 14.0014 16.5019 13.831 16.5001Z" fill="#444444" stroke="white" stroke-width="0.25"/>
</svg>
