<svg width="15" height="9" viewBox="0 0 15 9" fill="none" xmlns="http://www.w3.org/2000/svg">
<path d="M8.26155 8.36529L8.25657 8.37068L8.25181 8.37627C8.1866 8.45271 8.10918 8.51173 8.02548 8.55137C7.9419 8.59096 7.85298 8.61084 7.76402 8.61084C7.67506 8.61084 7.58613 8.59096 7.50255 8.55137C7.41886 8.51173 7.34144 8.45271 7.27623 8.37627L7.27147 8.37068L7.26649 8.36529L1.32371 1.92703L1.32372 1.92702L1.32092 1.92405C1.25548 1.85468 1.20197 1.77037 1.16482 1.6753C1.12783 1.58063 1.10818 1.47808 1.10761 1.37375C1.10818 1.26943 1.12783 1.16688 1.16482 1.07221C1.20197 0.977135 1.25548 0.892828 1.32092 0.823459L1.32272 0.821537C1.45216 0.682391 1.62072 0.610352 1.78968 0.610352C1.95849 0.610352 2.1269 0.68226 2.25629 0.821157C2.2564 0.821284 2.25652 0.82141 2.25664 0.821537L7.46239 6.45135L7.73634 6.74762L8.01178 6.45273L13.2709 0.822098L13.2714 0.821537C13.4008 0.682391 13.5694 0.610352 13.7384 0.610352C13.9073 0.610352 14.0759 0.682391 14.2053 0.821537L14.2056 0.821845C14.2706 0.891526 14.3236 0.976004 14.3602 1.0711C14.3968 1.16623 14.416 1.26917 14.416 1.37375C14.416 1.47834 14.3968 1.58128 14.3602 1.6764C14.3236 1.77151 14.2706 1.85598 14.2056 1.92566L14.2056 1.92566L14.2043 1.92703L8.26155 8.36529Z" fill="#63CBF2" stroke="#F9F9F9" stroke-width="0.75"/>
</svg>
