<svg width="25" height="25" viewBox="0 0 25 25" fill="none" xmlns="http://www.w3.org/2000/svg">
<mask id="path-1-outside-1_157_1315" maskUnits="userSpaceOnUse" x="1.9375" y="4.11816" width="21" height="17" fill="black">
<rect fill="white" x="1.9375" y="4.11816" width="21" height="17"/>
<path d="M22.0608 14.9227C22.0668 14.8776 22.0561 14.8319 22.0309 14.7941C22.0056 14.7562 21.9674 14.7289 21.9235 14.7171C21.4351 14.5867 21.0035 14.2987 20.6956 13.8978C20.3877 13.4969 20.2208 13.0055 20.2208 12.5001C20.2208 11.9946 20.3877 11.5032 20.6956 11.1023C21.0035 10.7014 21.4351 10.4134 21.9235 10.283C21.9634 10.2723 21.9986 10.2488 22.0237 10.2161C22.0489 10.1833 22.0625 10.1432 22.0625 10.1019C22.0625 10.0607 22.0489 10.0205 22.0237 9.98779C21.9986 9.95505 21.9634 9.93151 21.9235 9.92084C21.4351 9.79043 21.0035 9.50241 20.6956 9.10151C20.3877 8.70062 20.2208 8.20928 20.2208 7.7038C20.2208 7.19831 20.3877 6.70697 20.6956 6.30608C21.0035 5.90518 21.4351 5.61717 21.9235 5.48676C21.9674 5.47497 22.0056 5.44762 22.0308 5.4098C22.0561 5.37199 22.0667 5.32628 22.0608 5.28119C22.0549 5.23611 22.0327 5.19471 21.9986 5.16472C21.9644 5.13473 21.9205 5.11818 21.875 5.11816H5.52311C4.92245 5.1179 4.34046 5.32686 3.87715 5.70914C3.41384 6.09141 3.09815 6.62313 2.98433 7.21291C2.87052 7.80268 2.96569 8.41369 3.25348 8.94091C3.54127 9.46814 4.00372 9.87865 4.56135 10.1019C4.08201 10.2936 3.6711 10.6245 3.38165 11.0519C3.09221 11.4794 2.9375 11.9838 2.9375 12.5C2.9375 13.0163 3.09221 13.5207 3.38165 13.9481C3.6711 14.3756 4.08201 14.7065 4.56135 14.8982C4.00372 15.1214 3.54127 15.5319 3.25348 16.0592C2.96569 16.5864 2.87052 17.1974 2.98433 17.7872C3.09815 18.3769 3.41384 18.9087 3.87715 19.2909C4.34046 19.6732 4.92245 19.8822 5.52311 19.8819H21.875C21.9205 19.8819 21.9644 19.8653 21.9986 19.8354C22.0327 19.8054 22.0549 19.764 22.0608 19.7189C22.0667 19.6738 22.0561 19.6281 22.0308 19.5903C22.0056 19.5525 21.9674 19.5251 21.9235 19.5133C21.4351 19.3829 21.0035 19.0949 20.6956 18.694C20.3877 18.2931 20.2208 17.8018 20.2208 17.2963C20.2208 16.7908 20.3877 16.2995 20.6956 15.8986C21.0035 15.4977 21.4351 15.2097 21.9235 15.0792L21.9229 15.0768C21.9586 15.0677 21.9908 15.0482 22.0153 15.0208C22.0399 14.9934 22.0558 14.9592 22.0608 14.9227ZM3.31249 7.70381C3.31315 7.11772 3.54627 6.55583 3.9607 6.1414C4.37513 5.72698 4.93702 5.49386 5.52311 5.49319H21.0199C20.6583 5.73756 20.3622 6.06688 20.1575 6.45229C19.9528 6.83771 19.8458 7.26744 19.8458 7.70384C19.8458 8.14023 19.9529 8.56997 20.1576 8.95537C20.3623 9.34077 20.6584 9.67008 21.02 9.91444H18.7228V10.2894H21.02C20.6584 10.5338 20.3623 10.8631 20.1576 11.2485C19.9529 11.6339 19.8458 12.0636 19.8458 12.5C19.8458 12.9364 19.9529 13.3662 20.1575 13.7516C20.3622 14.137 20.6583 14.4663 21.0199 14.7107H11.8716V10.2894H16.0087V9.91444H5.52311C4.93702 9.91377 4.37513 9.68065 3.9607 9.26622C3.54627 8.85179 3.31315 8.2899 3.31249 7.70381ZM3.31249 12.5001C3.31315 11.914 3.54627 11.3521 3.9607 10.9377C4.37513 10.5232 4.93702 10.2901 5.52311 10.2894H8.38468V14.7107H5.52311C4.93702 14.71 4.37513 14.4769 3.9607 14.0625C3.54627 13.648 3.31315 13.0862 3.31249 12.5001ZM19.8458 17.2963C19.8464 17.7326 19.9536 18.1621 20.1583 18.5474C20.3629 18.9328 20.6587 19.2622 21.0199 19.5069H5.52311C4.93682 19.5069 4.37454 19.274 3.95996 18.8595C3.54539 18.4449 3.31249 17.8826 3.31249 17.2963C3.31249 16.71 3.54539 16.1477 3.95996 15.7332C4.37454 15.3186 4.93682 15.0857 5.52311 15.0857H8.38468V15.6079C8.38467 15.6409 8.39337 15.6733 8.40989 15.7019C8.42642 15.7304 8.45019 15.7541 8.4788 15.7705C8.50741 15.7869 8.53985 15.7955 8.57284 15.7954C8.60583 15.7953 8.6382 15.7864 8.66668 15.7698L10.1281 14.9174L11.5896 15.7699C11.6183 15.7866 11.6509 15.7954 11.6841 15.7954C11.7338 15.7954 11.7815 15.7756 11.8167 15.7405C11.8519 15.7053 11.8716 15.6576 11.8716 15.6079V15.0857H21.0207C20.6594 15.3303 20.3634 15.6597 20.1586 16.045C19.9538 16.4303 19.8464 16.8599 19.8458 17.2963ZM18.1891 10.2894H17.6326V9.91444H18.1891V10.2894ZM17.0989 10.2894H16.5424V9.91444H17.0989V10.2894ZM11.1329 12.0562H10.6891V11.6812H11.1329V12.0562ZM10.2135 11.1242H9.7697V10.7492H10.2135V11.1242ZM11.1329 11.1173H10.6891V10.7423H11.1329V11.1173Z"/>
</mask>
<path d="M22.0608 14.9227C22.0668 14.8776 22.0561 14.8319 22.0309 14.7941C22.0056 14.7562 21.9674 14.7289 21.9235 14.7171C21.4351 14.5867 21.0035 14.2987 20.6956 13.8978C20.3877 13.4969 20.2208 13.0055 20.2208 12.5001C20.2208 11.9946 20.3877 11.5032 20.6956 11.1023C21.0035 10.7014 21.4351 10.4134 21.9235 10.283C21.9634 10.2723 21.9986 10.2488 22.0237 10.2161C22.0489 10.1833 22.0625 10.1432 22.0625 10.1019C22.0625 10.0607 22.0489 10.0205 22.0237 9.98779C21.9986 9.95505 21.9634 9.93151 21.9235 9.92084C21.4351 9.79043 21.0035 9.50241 20.6956 9.10151C20.3877 8.70062 20.2208 8.20928 20.2208 7.7038C20.2208 7.19831 20.3877 6.70697 20.6956 6.30608C21.0035 5.90518 21.4351 5.61717 21.9235 5.48676C21.9674 5.47497 22.0056 5.44762 22.0308 5.4098C22.0561 5.37199 22.0667 5.32628 22.0608 5.28119C22.0549 5.23611 22.0327 5.19471 21.9986 5.16472C21.9644 5.13473 21.9205 5.11818 21.875 5.11816H5.52311C4.92245 5.1179 4.34046 5.32686 3.87715 5.70914C3.41384 6.09141 3.09815 6.62313 2.98433 7.21291C2.87052 7.80268 2.96569 8.41369 3.25348 8.94091C3.54127 9.46814 4.00372 9.87865 4.56135 10.1019C4.08201 10.2936 3.6711 10.6245 3.38165 11.0519C3.09221 11.4794 2.9375 11.9838 2.9375 12.5C2.9375 13.0163 3.09221 13.5207 3.38165 13.9481C3.6711 14.3756 4.08201 14.7065 4.56135 14.8982C4.00372 15.1214 3.54127 15.5319 3.25348 16.0592C2.96569 16.5864 2.87052 17.1974 2.98433 17.7872C3.09815 18.3769 3.41384 18.9087 3.87715 19.2909C4.34046 19.6732 4.92245 19.8822 5.52311 19.8819H21.875C21.9205 19.8819 21.9644 19.8653 21.9986 19.8354C22.0327 19.8054 22.0549 19.764 22.0608 19.7189C22.0667 19.6738 22.0561 19.6281 22.0308 19.5903C22.0056 19.5525 21.9674 19.5251 21.9235 19.5133C21.4351 19.3829 21.0035 19.0949 20.6956 18.694C20.3877 18.2931 20.2208 17.8018 20.2208 17.2963C20.2208 16.7908 20.3877 16.2995 20.6956 15.8986C21.0035 15.4977 21.4351 15.2097 21.9235 15.0792L21.9229 15.0768C21.9586 15.0677 21.9908 15.0482 22.0153 15.0208C22.0399 14.9934 22.0558 14.9592 22.0608 14.9227ZM3.31249 7.70381C3.31315 7.11772 3.54627 6.55583 3.9607 6.1414C4.37513 5.72698 4.93702 5.49386 5.52311 5.49319H21.0199C20.6583 5.73756 20.3622 6.06688 20.1575 6.45229C19.9528 6.83771 19.8458 7.26744 19.8458 7.70384C19.8458 8.14023 19.9529 8.56997 20.1576 8.95537C20.3623 9.34077 20.6584 9.67008 21.02 9.91444H18.7228V10.2894H21.02C20.6584 10.5338 20.3623 10.8631 20.1576 11.2485C19.9529 11.6339 19.8458 12.0636 19.8458 12.5C19.8458 12.9364 19.9529 13.3662 20.1575 13.7516C20.3622 14.137 20.6583 14.4663 21.0199 14.7107H11.8716V10.2894H16.0087V9.91444H5.52311C4.93702 9.91377 4.37513 9.68065 3.9607 9.26622C3.54627 8.85179 3.31315 8.2899 3.31249 7.70381ZM3.31249 12.5001C3.31315 11.914 3.54627 11.3521 3.9607 10.9377C4.37513 10.5232 4.93702 10.2901 5.52311 10.2894H8.38468V14.7107H5.52311C4.93702 14.71 4.37513 14.4769 3.9607 14.0625C3.54627 13.648 3.31315 13.0862 3.31249 12.5001ZM19.8458 17.2963C19.8464 17.7326 19.9536 18.1621 20.1583 18.5474C20.3629 18.9328 20.6587 19.2622 21.0199 19.5069H5.52311C4.93682 19.5069 4.37454 19.274 3.95996 18.8595C3.54539 18.4449 3.31249 17.8826 3.31249 17.2963C3.31249 16.71 3.54539 16.1477 3.95996 15.7332C4.37454 15.3186 4.93682 15.0857 5.52311 15.0857H8.38468V15.6079C8.38467 15.6409 8.39337 15.6733 8.40989 15.7019C8.42642 15.7304 8.45019 15.7541 8.4788 15.7705C8.50741 15.7869 8.53985 15.7955 8.57284 15.7954C8.60583 15.7953 8.6382 15.7864 8.66668 15.7698L10.1281 14.9174L11.5896 15.7699C11.6183 15.7866 11.6509 15.7954 11.6841 15.7954C11.7338 15.7954 11.7815 15.7756 11.8167 15.7405C11.8519 15.7053 11.8716 15.6576 11.8716 15.6079V15.0857H21.0207C20.6594 15.3303 20.3634 15.6597 20.1586 16.045C19.9538 16.4303 19.8464 16.8599 19.8458 17.2963ZM18.1891 10.2894H17.6326V9.91444H18.1891V10.2894ZM17.0989 10.2894H16.5424V9.91444H17.0989V10.2894ZM11.1329 12.0562H10.6891V11.6812H11.1329V12.0562ZM10.2135 11.1242H9.7697V10.7492H10.2135V11.1242ZM11.1329 11.1173H10.6891V10.7423H11.1329V11.1173Z" fill="#717171"/>
<path d="M22.0608 14.9227C22.0668 14.8776 22.0561 14.8319 22.0309 14.7941C22.0056 14.7562 21.9674 14.7289 21.9235 14.7171C21.4351 14.5867 21.0035 14.2987 20.6956 13.8978C20.3877 13.4969 20.2208 13.0055 20.2208 12.5001C20.2208 11.9946 20.3877 11.5032 20.6956 11.1023C21.0035 10.7014 21.4351 10.4134 21.9235 10.283C21.9634 10.2723 21.9986 10.2488 22.0237 10.2161C22.0489 10.1833 22.0625 10.1432 22.0625 10.1019C22.0625 10.0607 22.0489 10.0205 22.0237 9.98779C21.9986 9.95505 21.9634 9.93151 21.9235 9.92084C21.4351 9.79043 21.0035 9.50241 20.6956 9.10151C20.3877 8.70062 20.2208 8.20928 20.2208 7.7038C20.2208 7.19831 20.3877 6.70697 20.6956 6.30608C21.0035 5.90518 21.4351 5.61717 21.9235 5.48676C21.9674 5.47497 22.0056 5.44762 22.0308 5.4098C22.0561 5.37199 22.0667 5.32628 22.0608 5.28119C22.0549 5.23611 22.0327 5.19471 21.9986 5.16472C21.9644 5.13473 21.9205 5.11818 21.875 5.11816H5.52311C4.92245 5.1179 4.34046 5.32686 3.87715 5.70914C3.41384 6.09141 3.09815 6.62313 2.98433 7.21291C2.87052 7.80268 2.96569 8.41369 3.25348 8.94091C3.54127 9.46814 4.00372 9.87865 4.56135 10.1019C4.08201 10.2936 3.6711 10.6245 3.38165 11.0519C3.09221 11.4794 2.9375 11.9838 2.9375 12.5C2.9375 13.0163 3.09221 13.5207 3.38165 13.9481C3.6711 14.3756 4.08201 14.7065 4.56135 14.8982C4.00372 15.1214 3.54127 15.5319 3.25348 16.0592C2.96569 16.5864 2.87052 17.1974 2.98433 17.7872C3.09815 18.3769 3.41384 18.9087 3.87715 19.2909C4.34046 19.6732 4.92245 19.8822 5.52311 19.8819H21.875C21.9205 19.8819 21.9644 19.8653 21.9986 19.8354C22.0327 19.8054 22.0549 19.764 22.0608 19.7189C22.0667 19.6738 22.0561 19.6281 22.0308 19.5903C22.0056 19.5525 21.9674 19.5251 21.9235 19.5133C21.4351 19.3829 21.0035 19.0949 20.6956 18.694C20.3877 18.2931 20.2208 17.8018 20.2208 17.2963C20.2208 16.7908 20.3877 16.2995 20.6956 15.8986C21.0035 15.4977 21.4351 15.2097 21.9235 15.0792L21.9229 15.0768C21.9586 15.0677 21.9908 15.0482 22.0153 15.0208C22.0399 14.9934 22.0558 14.9592 22.0608 14.9227ZM3.31249 7.70381C3.31315 7.11772 3.54627 6.55583 3.9607 6.1414C4.37513 5.72698 4.93702 5.49386 5.52311 5.49319H21.0199C20.6583 5.73756 20.3622 6.06688 20.1575 6.45229C19.9528 6.83771 19.8458 7.26744 19.8458 7.70384C19.8458 8.14023 19.9529 8.56997 20.1576 8.95537C20.3623 9.34077 20.6584 9.67008 21.02 9.91444H18.7228V10.2894H21.02C20.6584 10.5338 20.3623 10.8631 20.1576 11.2485C19.9529 11.6339 19.8458 12.0636 19.8458 12.5C19.8458 12.9364 19.9529 13.3662 20.1575 13.7516C20.3622 14.137 20.6583 14.4663 21.0199 14.7107H11.8716V10.2894H16.0087V9.91444H5.52311C4.93702 9.91377 4.37513 9.68065 3.9607 9.26622C3.54627 8.85179 3.31315 8.2899 3.31249 7.70381ZM3.31249 12.5001C3.31315 11.914 3.54627 11.3521 3.9607 10.9377C4.37513 10.5232 4.93702 10.2901 5.52311 10.2894H8.38468V14.7107H5.52311C4.93702 14.71 4.37513 14.4769 3.9607 14.0625C3.54627 13.648 3.31315 13.0862 3.31249 12.5001ZM19.8458 17.2963C19.8464 17.7326 19.9536 18.1621 20.1583 18.5474C20.3629 18.9328 20.6587 19.2622 21.0199 19.5069H5.52311C4.93682 19.5069 4.37454 19.274 3.95996 18.8595C3.54539 18.4449 3.31249 17.8826 3.31249 17.2963C3.31249 16.71 3.54539 16.1477 3.95996 15.7332C4.37454 15.3186 4.93682 15.0857 5.52311 15.0857H8.38468V15.6079C8.38467 15.6409 8.39337 15.6733 8.40989 15.7019C8.42642 15.7304 8.45019 15.7541 8.4788 15.7705C8.50741 15.7869 8.53985 15.7955 8.57284 15.7954C8.60583 15.7953 8.6382 15.7864 8.66668 15.7698L10.1281 14.9174L11.5896 15.7699C11.6183 15.7866 11.6509 15.7954 11.6841 15.7954C11.7338 15.7954 11.7815 15.7756 11.8167 15.7405C11.8519 15.7053 11.8716 15.6576 11.8716 15.6079V15.0857H21.0207C20.6594 15.3303 20.3634 15.6597 20.1586 16.045C19.9538 16.4303 19.8464 16.8599 19.8458 17.2963ZM18.1891 10.2894H17.6326V9.91444H18.1891V10.2894ZM17.0989 10.2894H16.5424V9.91444H17.0989V10.2894ZM11.1329 12.0562H10.6891V11.6812H11.1329V12.0562ZM10.2135 11.1242H9.7697V10.7492H10.2135V11.1242ZM11.1329 11.1173H10.6891V10.7423H11.1329V11.1173Z" stroke="#717171" stroke-width="0.5" mask="url(#path-1-outside-1_157_1315)"/>
</svg>
