<svg width="24" height="20" viewBox="0 0 24 20" fill="none" xmlns="http://www.w3.org/2000/svg">
<mask id="mask0_157_4238" style="mask-type:luminance" maskUnits="userSpaceOnUse" x="11" y="5" width="1" height="4">
<path d="M11.7598 7.83996V5.95996C11.7598 6.03996 11.6638 6.15996 11.5198 6.23996V8.11996C11.7118 8.03996 11.7598 7.91996 11.7598 7.83996Z" fill="white"/>
</mask>
<g mask="url(#mask0_157_4238)">
<path d="M11.5198 6.23996V8.11996C11.6638 8.03996 11.7598 7.95996 11.7598 7.83996V5.95996C11.7598 6.03996 11.7118 6.15996 11.5198 6.23996Z" fill="#63CBF2"/>
</g>
<path d="M10.3195 6.83999V8.71999L11.5195 8.11999V6.23999L10.3195 6.83999Z" fill="#63CBF2"/>
<path d="M7.39231 8.24009V10.1201L10.3203 8.72009V6.84009L7.39231 8.24009Z" fill="#374F76"/>
<path d="M4.17566 5.67993V7.55993L4.84766 10.4399L4.79966 8.55993L4.17566 5.67993Z" fill="#63CBF2"/>
<path d="M6.1916 8.79999V10.68L7.3916 10.12V8.23999L6.1916 8.79999Z" fill="#63CBF2"/>
<path d="M4.80038 8.56006V10.4401C4.89638 10.7601 5.71238 10.9201 6.19238 10.6801V8.80006C5.71238 9.04006 4.89638 8.88006 4.80038 8.56006Z" fill="#63CBF2"/>
<path d="M15.9358 4.23999V6.11999C15.9358 6.19999 16.0318 6.31999 16.1758 6.39999V4.51999C15.9838 4.43999 15.9358 4.31999 15.9358 4.23999Z" fill="#61A01D"/>
<path d="M16.1757 4.52002V6.40002L17.4717 7.04002V5.16002L16.1757 4.52002Z" fill="#61A01D"/>
<path d="M17.4724 5.15991V7.03991L20.4004 8.43991V6.55991L17.4724 5.15991Z" fill="#599217"/>
<path d="M22.8475 6.83996V8.71996L23.5195 5.83996V3.95996L22.8475 6.83996Z" fill="#61A01D"/>
<path d="M20.4001 6.56006V8.44006L21.4561 8.96006V7.08006L20.4001 6.56006Z" fill="#73BD1E"/>
<path d="M21.4557 7.08009V8.96009C21.7917 9.12009 22.3197 9.12009 22.6077 8.96009C22.7517 8.92009 22.7997 8.84009 22.8477 8.72009V6.84009C22.8477 6.92009 22.7517 7.00009 22.6077 7.08009C22.3197 7.20009 21.7917 7.24009 21.4557 7.08009Z" fill="#73BD1E"/>
<mask id="mask1_157_4238" style="mask-type:luminance" maskUnits="userSpaceOnUse" x="18" y="6" width="3" height="5">
<path d="M18.3364 9.12002V11C18.3364 10.08 19.0084 9.16002 20.4004 8.40002V6.52002C19.0084 7.28002 18.3364 8.20002 18.3364 9.12002Z" fill="white"/>
</mask>
<g mask="url(#mask1_157_4238)">
<path d="M18.3364 9.12002V11C18.3364 10.08 19.0084 9.16002 20.4004 8.40002V6.52002C19.0084 7.28002 18.3364 8.20002 18.3364 9.12002Z" fill="#61A01D"/>
</g>
<path d="M7.39198 8.23999V10.12L11.376 12.04L11.328 10.16L7.39198 8.23999Z" fill="#07A3D3"/>
<path d="M14.2079 9.15991V11.0399C14.2079 11.3999 14.3039 11.7599 14.4479 12.1599C14.8799 13.2399 15.9839 14.3199 17.7119 15.1599V13.2799C15.9839 12.4399 14.8799 11.3999 14.4479 10.2799C14.3039 9.87991 14.2559 9.51991 14.2079 9.15991Z" fill="#D72F40"/>
<mask id="mask2_157_4238" style="mask-type:luminance" maskUnits="userSpaceOnUse" x="14" y="9" width="4" height="7">
<path d="M14.2079 9.15991V11.0399C14.2079 11.3999 14.3039 11.7599 14.4479 12.1599C14.8799 13.2399 15.9839 14.3199 17.7119 15.1599V13.2799C15.9839 12.4399 14.8799 11.3999 14.4479 10.2799C14.3039 9.87991 14.2559 9.51991 14.2079 9.15991Z" fill="white"/>
</mask>
<g mask="url(#mask2_157_4238)">
<path d="M14.2082 9.15991V11.0399C14.2082 11.0799 14.2082 11.1199 14.2082 11.1199V9.23991C14.2562 9.19991 14.2082 9.15991 14.2082 9.15991Z" fill="#436E11"/>
<path d="M14.2556 9.23999V11.12C14.2556 11.32 14.3036 11.52 14.3516 11.68V9.79999C14.2556 9.63999 14.2556 9.43999 14.2556 9.23999Z" fill="#457112"/>
<path d="M14.3041 9.7998V11.6798C14.3521 11.8398 14.4001 11.9598 14.4481 12.1198C14.4481 12.1598 14.4961 12.1998 14.4961 12.2398V10.3598C14.4961 10.3198 14.4481 10.2798 14.4481 10.2398C14.4001 10.1198 14.3521 9.9598 14.3041 9.7998Z" fill="#477513"/>
<path d="M14.496 10.3599V12.2399C14.592 12.4399 14.688 12.6399 14.832 12.7999V10.9199C14.688 10.7599 14.592 10.5599 14.496 10.3599Z" fill="#4A7913"/>
<path d="M14.8315 10.96V12.84C14.9755 13.04 15.1195 13.24 15.3115 13.44V11.56C15.1195 11.36 14.9755 11.16 14.8315 10.96Z" fill="#4C7D14"/>
<path d="M15.3121 11.5598V13.4398C15.5521 13.6798 15.7921 13.8798 16.0801 14.1198V12.2398C15.7921 11.9998 15.5521 11.7598 15.3121 11.5598Z" fill="#4E8114"/>
<path d="M16.0798 12.24V14.12C16.5118 14.44 16.9918 14.76 17.5678 15.04V13.16C16.9918 12.88 16.4638 12.56 16.0798 12.24ZM17.5678 13.16V15.04C17.6158 15.08 17.6638 15.08 17.7598 15.12V13.24C17.6638 13.2 17.6158 13.2 17.5678 13.16Z" fill="#D72F40"/>
</g>
<mask id="mask3_157_4238" style="mask-type:luminance" maskUnits="userSpaceOnUse" x="11" y="10" width="4" height="3">
<path d="M11.3761 12.04C12.4321 12 13.4401 12.04 14.4961 12.12V10.24C13.4881 10.16 12.4321 10.12 11.3761 10.16C11.3281 10.72 11.3761 11.48 11.3761 12.04Z" fill="white"/>
</mask>
<g mask="url(#mask3_157_4238)">
<path d="M11.3284 10.1599V12.0399C11.4244 12.0399 11.4724 12.0399 11.5684 12.0399V10.1599C11.5204 10.1599 11.4244 10.1599 11.3284 10.1599Z" fill="#405B88"/>
<path d="M11.5684 10.1599V12.0399C12.0004 12.0399 12.3844 12.0399 12.8164 12.0399V10.1599C12.3844 10.1199 12.0004 10.1199 11.5684 10.1599Z" fill="#425E8D"/>
<path d="M12.8162 10.1599V12.0399C13.2482 12.0399 13.7282 12.0799 14.1602 12.1199V10.2399C13.7282 10.1999 13.2482 10.1599 12.8162 10.1599Z" fill="#446191"/>
<path d="M14.1602 10.24V12.12C14.2562 12.12 14.3522 12.12 14.4482 12.16V10.28C14.3522 10.24 14.2562 10.24 14.1602 10.24Z" fill="#466496"/>
</g>
<path d="M4.41624 5.35999C4.56024 5.27999 4.80024 5.23999 5.08824 5.23999L11.0402 5.55999C11.7122 5.59999 12.0002 5.99999 11.5202 6.23999L10.2722 6.83999L14.2562 8.75999C14.2082 9.27999 14.2562 9.75999 14.4482 10.28C13.4402 10.2 12.3842 10.16 11.3282 10.2L7.34424 8.27999L6.19224 8.83999C5.71224 9.07999 4.89624 8.91999 4.80024 8.59999L4.17624 5.71999C4.17624 5.55999 4.27224 5.43999 4.41624 5.35999Z" fill="#1CC0F3"/>
<path d="M3.88758 11.6799V13.5599L6.76758 14.9999V13.0799L3.88758 11.6799Z" fill="#C5434F"/>
<path d="M6.76791 13.0799V14.9599C9.88791 13.5999 14.7359 13.6799 17.7119 15.1199V13.2399C14.7359 11.7999 9.93591 11.7599 6.76791 13.0799Z" fill="#D72F40"/>
<path d="M14.2558 8.75999C14.4478 7.47999 15.5038 6.19999 17.4718 5.15999L16.1278 4.51999C15.7918 4.35999 15.8398 4.11999 16.1278 3.95999C16.2718 3.91999 16.4158 3.83999 16.6078 3.83999L22.6078 3.51999C23.1358 3.47999 23.5678 3.67999 23.5198 3.95999L22.8478 6.83999C22.8478 6.91999 22.7518 6.99999 22.6078 7.07999C22.3198 7.23999 21.7918 7.23999 21.4558 7.07999L20.3998 6.55999C17.5678 8.07999 17.6638 10.4 20.6878 11.84L22.9438 12.96L20.0638 14.36L17.8078 13.24C16.0798 12.4 14.9758 11.36 14.5438 10.24C14.2558 9.75999 14.2078 9.23999 14.2558 8.75999Z" fill="#83CC25"/>
<path d="M17.7596 13.24V15.12L20.0156 16.24V14.36L17.7596 13.24Z" fill="#D72F40"/>
<path d="M20.0165 14.36V16.24L22.8965 14.84V12.96L20.0165 14.36Z" fill="#61A01D"/>
<path d="M17.7116 13.24V15.12L20.0156 16.24V14.36L17.7116 13.24Z" fill="#D72F40"/>
<path d="M8.06445 15.7599V13.8799C8.06445 13.9999 7.96845 14.0799 7.82445 14.1599C7.68045 14.1999 7.53645 14.2799 7.34445 14.2799V16.1599C7.53645 16.1599 7.72845 16.1199 7.82445 16.0399C8.01645 15.9599 8.06445 15.8799 8.06445 15.7599Z" fill="#F74457"/>
<path d="M1.39175 14.6V16.48L7.34375 16.16V14.28L1.39175 14.6Z" fill="#F74457"/>
<path d="M0.479601 14.2V16.08C0.479601 16.32 0.911602 16.48 1.3916 16.48V14.6C0.911602 14.64 0.479601 14.44 0.479601 14.2Z" fill="#F74457"/>
<path d="M1.15162 11.2799C1.15162 11.1999 1.24763 11.1199 1.39162 11.0399C1.67962 10.8799 2.20762 10.8799 2.54362 11.0399L3.88762 11.6799C5.99962 10.7199 8.63962 10.1999 11.3756 10.1199C12.4316 10.0799 13.4396 10.1199 14.4956 10.1999C14.8796 11.3599 15.9836 12.3999 17.7596 13.2399C14.7836 11.7999 9.93563 11.7599 6.81562 13.0799L7.82362 13.5999C8.15962 13.7599 8.11162 13.9999 7.82362 14.1599C7.67962 14.1999 7.53562 14.2799 7.34362 14.2799L1.39162 14.5999C0.863625 14.6399 0.431623 14.3999 0.479624 14.1599L1.15162 11.2799Z" fill="#FF5766"/>
</svg>
