<svg width="18" height="19" viewBox="0 0 18 19" fill="none" xmlns="http://www.w3.org/2000/svg">
<path d="M1.20035 6.87037C1.15038 5.8762 1.41291 4.89419 1.94416 4.07081L2.08255 3.86836L2.09398 3.85726L2.19006 3.74433L2.29071 3.62902L2.30214 3.61713C2.49429 3.4198 2.70702 3.24624 2.93653 3.09804L3.00134 3.05693L3.06615 3.01879L3.21865 2.93082C3.28041 2.9015 3.34751 2.86663 3.40927 2.83731C3.45426 2.81987 3.49924 2.79689 3.54423 2.77945C3.62887 2.74379 3.71884 2.70892 3.80881 2.6796C3.83931 2.66454 3.87134 2.65265 3.90412 2.64473L3.94053 2.63006L3.98037 2.6154C4.39059 2.49257 4.81224 2.40777 5.23847 2.36893L5.19434 2.37411V1.48842C5.19434 1.1333 5.48028 0.846165 5.83394 0.846165C6.18759 0.846165 6.47434 1.1333 6.47434 1.48842V4.28782C6.47434 4.64294 6.18759 4.93088 5.83394 4.93088C5.48028 4.93088 5.19434 4.64294 5.19434 4.28782L5.19438 3.64061C4.77451 3.68273 4.36224 3.78738 3.97122 3.95315C2.96219 4.4079 2.48096 5.2739 2.43536 6.64629L2.43176 6.8672V7.21194H15.9575V6.85848C15.9834 6.22289 15.8561 5.59047 15.5862 5.01908C15.3269 4.5301 14.9121 4.15049 14.4112 3.94444C14.0921 3.80686 13.758 3.71087 13.4165 3.6585L13.1943 3.63145L13.1944 4.28459C13.1944 4.63818 12.908 4.92457 12.5544 4.92457C12.2008 4.92457 11.9144 4.63818 11.9144 4.28459L11.9143 3.58336L6.48056 3.58385V2.31029L11.9143 2.31L11.9144 1.48466C11.9112 1.13107 12.196 0.842274 12.5496 0.839859C12.9032 0.837474 13.192 1.12147 13.1944 1.47506L13.1949 2.36919C13.5054 2.39988 13.8135 2.45416 14.1166 2.5317L14.418 2.61699C14.4424 2.62174 14.4607 2.62808 14.4943 2.63997C14.5278 2.65186 14.556 2.66375 14.5896 2.67484C14.6788 2.70416 14.7619 2.73903 14.8481 2.7747C14.8976 2.79213 14.9434 2.81512 14.9823 2.83255C15.0494 2.86187 15.118 2.89674 15.1729 2.92607C15.2293 2.95539 15.2834 2.98788 15.3307 3.01403C15.378 3.04019 15.4146 3.06951 15.4542 3.09329C15.6269 3.20503 15.7911 3.33104 15.9444 3.46964L16.094 3.61238L16.1008 3.62426L16.2054 3.73541L16.3037 3.85251L16.309 3.8636C16.884 4.66025 17.1933 5.62775 17.1943 6.61898L17.1881 6.8672V7.21194H17.1943V14.1168C17.1943 17.1279 15.5157 18.6491 12.1891 18.6491H6.19195C2.87292 18.6491 1.19434 17.1279 1.19434 14.1168V7.21194H1.20035V6.87037ZM12.8529 13.5257C12.4409 13.5257 12.1128 13.8646 12.1128 14.2824C12.1204 14.7001 12.4485 15.039 12.8529 15.039C13.2573 15.039 13.5854 14.7001 13.5854 14.2824C13.5854 13.8646 13.2573 13.5257 12.8529 13.5257ZM9.19815 13.5178C8.78613 13.5257 8.45805 13.8646 8.45805 14.2824C8.45805 14.7001 8.79376 15.039 9.19815 15.039C9.60254 15.039 9.93062 14.7001 9.93062 14.2745C9.92299 13.8646 9.60254 13.5257 9.19815 13.5178ZM5.53578 13.5178C5.12376 13.5178 4.79567 13.8646 4.8033 14.2824C4.8033 14.7001 5.13139 15.039 5.53578 15.039C5.94016 15.039 6.26825 14.6922 6.26825 14.2745C6.26825 13.8567 5.94016 13.5178 5.53578 13.5178ZM12.8529 10.2939C12.4409 10.2939 12.1204 10.6329 12.1204 11.0506C12.1204 11.4684 12.4485 11.8073 12.8529 11.8073C13.2573 11.8073 13.5854 11.4684 13.5854 11.0506C13.5854 10.6329 13.2573 10.2939 12.8529 10.2939ZM9.19815 10.286C8.78613 10.2939 8.45805 10.6329 8.45805 11.0506C8.45805 11.4684 8.79376 11.8073 9.19815 11.8073C9.60254 11.8073 9.93062 11.4684 9.93062 11.0427C9.93062 10.6329 9.60254 10.2939 9.19815 10.286ZM5.54341 10.286C5.13139 10.286 4.8033 10.6329 4.8033 11.0506C4.8033 11.4684 5.13139 11.8073 5.53578 11.8073C5.94779 11.8073 6.27588 11.4605 6.26825 11.0427C6.26825 10.625 5.94016 10.286 5.54341 10.286Z" fill="white" stroke="#63CBF2" stroke-width="0.694656"/>
</svg>
