<svg width="20" height="19" viewBox="0 0 20 19" fill="none" xmlns="http://www.w3.org/2000/svg">
<path d="M5.54449 4.27459V5.02459C5.79715 5.02459 6.03283 4.89737 6.17148 4.68615L5.54449 4.27459ZM6.74958 2.4387L6.12259 2.02713V2.02713L6.74958 2.4387ZM12.9088 2.4387L13.5358 2.02713V2.02713L12.9088 2.4387ZM14.1139 4.27459L13.4869 4.68615C13.6256 4.89737 13.8613 5.02459 14.1139 5.02459V4.27459ZM11.65 10.8021C11.65 11.8409 10.8239 12.6631 9.82921 12.6631V14.1631C11.6742 14.1631 13.15 12.6473 13.15 10.8021H11.65ZM9.82921 12.6631C8.83451 12.6631 8.00838 11.8409 8.00838 10.8021H6.50838C6.50838 12.6473 7.98424 14.1631 9.82921 14.1631V12.6631ZM8.00838 10.8021C8.00838 9.7633 8.83451 8.9411 9.82921 8.9411V7.4411C7.98424 7.4411 6.50838 8.95688 6.50838 10.8021H8.00838ZM9.82921 8.9411C10.8239 8.9411 11.65 9.7633 11.65 10.8021H13.15C13.15 8.95688 11.6742 7.4411 9.82921 7.4411V8.9411ZM6.17148 4.68615L7.37657 2.85026L6.12259 2.02713L4.9175 3.86302L6.17148 4.68615ZM8.17562 2.41357H11.4828V0.913574H8.17562V2.41357ZM12.2818 2.85026L13.4869 4.68615L14.7409 3.86302L13.5358 2.02713L12.2818 2.85026ZM11.4828 2.41357C11.7999 2.41357 12.1008 2.57445 12.2818 2.85026L13.5358 2.02713C13.0811 1.33443 12.3118 0.913574 11.4828 0.913574V2.41357ZM7.37657 2.85026C7.55761 2.57445 7.85854 2.41357 8.17562 2.41357V0.913574C7.34662 0.913574 6.57729 1.33443 6.12259 2.02713L7.37657 2.85026ZM17.6487 7.75593V13.8483H19.1487V7.75593H17.6487ZM14.9709 16.5796H4.68754V18.0796H14.9709V16.5796ZM2.00977 13.8483V7.75593H0.509766V13.8483H2.00977ZM4.68754 16.5796C3.21957 16.5796 2.00977 15.3678 2.00977 13.8483H0.509766C0.509766 16.1742 2.3693 18.0796 4.68754 18.0796V16.5796ZM17.6487 13.8483C17.6487 15.3678 16.4389 16.5796 14.9709 16.5796V18.0796C17.2891 18.0796 19.1487 16.1742 19.1487 13.8483H17.6487ZM14.9709 5.02459C16.4389 5.02459 17.6487 6.23644 17.6487 7.75593H19.1487C19.1487 5.43003 17.2891 3.52459 14.9709 3.52459V5.02459ZM4.68754 3.52459C2.3693 3.52459 0.509766 5.43003 0.509766 7.75593H2.00977C2.00977 6.23644 3.21957 5.02459 4.68754 5.02459V3.52459ZM4.68754 5.02459H5.54449V3.52459H4.68754V5.02459ZM14.9709 3.52459H14.1139V5.02459H14.9709V3.52459Z" fill="#797C7B"/>
<ellipse cx="9.42161" cy="4.13703" rx="0.816138" ry="0.82453" fill="#797C7B"/>
</svg>
