<svg width="47" height="47" viewBox="0 0 47 47" fill="none" xmlns="http://www.w3.org/2000/svg">
<circle cx="23.4772" cy="23.4391" r="20.3884" fill="#F5F5F5" stroke="white" stroke-width="5.19704"/>
<path d="M24.2361 31.6962H19.7695C17.3026 31.6962 15.3028 29.6964 15.3028 27.2296V20.0829C15.3028 17.616 17.3026 15.6162 19.7695 15.6162H26.9161C29.383 15.6162 31.3828 17.616 31.3828 20.0829V24.5496" stroke="#63CBF2" stroke-width="2.07882" stroke-linecap="round" stroke-linejoin="round"/>
<path d="M25.6164 21.3818C26.872 22.6378 26.8718 24.6739 25.6159 25.9296C24.36 27.1854 22.3239 27.1854 21.068 25.9296C19.8121 24.6739 19.8119 22.6378 21.0676 21.3818C21.6707 20.7784 22.4889 20.4395 23.342 20.4395C24.1951 20.4395 25.0133 20.7784 25.6164 21.3818" stroke="#63CBF2" stroke-width="2.07882" stroke-linecap="round" stroke-linejoin="round"/>
<path d="M27.8096 30.351H32.2762" stroke="#63CBF2" stroke-width="2.07882" stroke-linecap="round" stroke-linejoin="round"/>
<path d="M30.0424 32.5848V28.1182" stroke="#63CBF2" stroke-width="2.07882" stroke-linecap="round" stroke-linejoin="round"/>
</svg>
