<svg width="25" height="25" viewBox="0 0 25 25" fill="none" xmlns="http://www.w3.org/2000/svg">
<path fill-rule="evenodd" clip-rule="evenodd" d="M12.2238 2.50008C8.71386 2.48598 5.45256 4.30712 3.62749 7.30043C1.80243 10.2937 1.67991 14.0224 3.30456 17.1287L3.50489 17.5192C3.66908 17.8264 3.70343 18.1865 3.60028 18.5192C3.31441 19.2784 3.07548 20.0545 2.88483 20.843C2.88483 21.243 2.9993 21.4716 3.42857 21.462C4.18889 21.2941 4.93767 21.0778 5.67031 20.8144C5.98585 20.7275 6.32136 20.7476 6.62424 20.8716C6.90088 21.0049 7.4637 21.3478 7.48278 21.3478C11.1585 23.2805 15.6478 22.7473 18.7667 20.0075C21.8857 17.2677 22.9869 12.8901 21.5346 9.00411C20.0823 5.11817 16.3781 2.53061 12.2238 2.50008Z" stroke="#717171" stroke-linecap="round" stroke-linejoin="round"/>
<path d="M7.4541 13.5C8.00639 13.5 8.4541 13.0523 8.4541 12.5C8.4541 11.9477 8.00639 11.5 7.4541 11.5C6.90182 11.5 6.4541 11.9477 6.4541 12.5C6.4541 13.0523 6.90182 13.5 7.4541 13.5Z" fill="#717171" stroke="#717171" stroke-width="1.5" stroke-linecap="round" stroke-linejoin="round"/>
<path d="M12.2236 13.5C12.7759 13.5 13.2236 13.0523 13.2236 12.5C13.2236 11.9477 12.7759 11.5 12.2236 11.5C11.6713 11.5 11.2236 11.9477 11.2236 12.5C11.2236 13.0523 11.6713 13.5 12.2236 13.5Z" fill="#717171" stroke="#717171" stroke-width="1.5" stroke-linecap="round" stroke-linejoin="round"/>
<path d="M16.9932 13.5C17.5454 13.5 17.9932 13.0523 17.9932 12.5C17.9932 11.9477 17.5454 11.5 16.9932 11.5C16.4409 11.5 15.9932 11.9477 15.9932 12.5C15.9932 13.0523 16.4409 13.5 16.9932 13.5Z" fill="#717171" stroke="#717171" stroke-width="1.5" stroke-linecap="round" stroke-linejoin="round"/>
</svg>
