<svg width="66" height="26" viewBox="0 0 66 26" fill="none" xmlns="http://www.w3.org/2000/svg">
<rect x="0.496183" y="0.496183" width="64.5038" height="24.8092" rx="12.4046" fill="white" stroke="#63CBF2" stroke-width="0.992366"/>
<path d="M14.4373 10.1819C15.3761 10.1819 16.1511 10.4148 16.7624 10.8805C17.3737 11.339 17.7958 11.9685 18.0287 12.769H16.9808C16.7843 12.2596 16.4677 11.8557 16.0311 11.5573C15.5944 11.2517 15.0595 11.0988 14.4264 11.0988C13.9243 11.0988 13.4731 11.2225 13.0728 11.47C12.6798 11.7101 12.3669 12.0594 12.134 12.5179C11.9084 12.9691 11.7956 13.5004 11.7956 14.1117C11.7956 14.7157 11.9084 15.2433 12.134 15.6945C12.3669 16.1457 12.6798 16.495 13.0728 16.7424C13.4731 16.9826 13.9243 17.1027 14.4264 17.1027C15.0595 17.1027 15.5944 16.9535 16.0311 16.6551C16.4677 16.3494 16.7843 15.9419 16.9808 15.4325H18.0287C17.7958 16.233 17.3737 16.8661 16.7624 17.3319C16.1511 17.7904 15.3761 18.0196 14.4373 18.0196C13.7169 18.0196 13.0801 17.8559 12.527 17.5284C11.9739 17.1936 11.5409 16.7315 11.228 16.142C10.9224 15.5453 10.7695 14.8685 10.7695 14.1117C10.7695 13.3475 10.9224 12.6671 11.228 12.0704C11.5409 11.4736 11.9739 11.0115 12.527 10.684C13.0801 10.3493 13.7169 10.1819 14.4373 10.1819ZM20.3505 9.87624V17.9541H19.3571V9.87624H20.3505ZM27.4601 14.6247C27.4601 14.8358 27.4456 15.0177 27.4165 15.1705H22.6243C22.6462 15.8546 22.839 16.3676 23.2029 16.7097C23.574 17.0517 24.0252 17.2227 24.5565 17.2227C25.0368 17.2227 25.437 17.1027 25.7572 16.8625C26.0847 16.6151 26.2849 16.2876 26.3576 15.8801H27.4165C27.3437 16.2949 27.18 16.666 26.9253 16.9935C26.6778 17.321 26.354 17.5757 25.9537 17.7576C25.5535 17.9395 25.1023 18.0305 24.6001 18.0305C24.0252 18.0305 23.5158 17.9068 23.0719 17.6594C22.628 17.4119 22.2787 17.059 22.024 16.6005C21.7765 16.1348 21.6528 15.589 21.6528 14.9631C21.6528 14.3373 21.7765 13.7915 22.024 13.3257C22.2787 12.86 22.628 12.5034 23.0719 12.2559C23.5158 12.0085 24.0252 11.8848 24.6001 11.8848C25.1823 11.8848 25.6881 12.0085 26.1175 12.2559C26.5541 12.5034 26.8852 12.8345 27.1108 13.2493C27.3437 13.6641 27.4601 14.1226 27.4601 14.6247ZM26.4559 14.6902C26.4777 14.2463 26.4049 13.8751 26.2376 13.5768C26.0702 13.2784 25.8409 13.0564 25.5498 12.9109C25.2587 12.7653 24.9422 12.6926 24.6001 12.6926C24.0543 12.6926 23.5959 12.8636 23.2247 13.2056C22.8536 13.5404 22.6535 14.0352 22.6243 14.6902H26.4559ZM31.2155 11.8848C31.7977 11.8848 32.2889 12.0303 32.6892 12.3214C33.0967 12.6125 33.3805 13.0019 33.5406 13.4894V11.9612H34.534V17.9541H33.5406V16.4259C33.3805 16.9134 33.0967 17.3028 32.6892 17.5939C32.2889 17.885 31.7977 18.0305 31.2155 18.0305C30.6843 18.0305 30.2112 17.9068 29.7964 17.6594C29.3816 17.4119 29.0541 17.059 28.814 16.6005C28.5811 16.1348 28.4647 15.589 28.4647 14.9631C28.4647 14.3373 28.5811 13.7915 28.814 13.3257C29.0541 12.86 29.3816 12.5034 29.7964 12.2559C30.2112 12.0085 30.6843 11.8848 31.2155 11.8848ZM31.4993 12.769C30.888 12.769 30.3968 12.9655 30.0257 13.3585C29.6618 13.7442 29.4799 14.279 29.4799 14.9631C29.4799 15.6472 29.6618 16.1857 30.0257 16.5787C30.3968 16.9644 30.888 17.1572 31.4993 17.1572C31.8923 17.1572 32.2416 17.0663 32.5473 16.8843C32.8602 16.7024 33.104 16.4477 33.2786 16.1202C33.4533 15.7855 33.5406 15.3998 33.5406 14.9631C33.5406 14.5265 33.4533 14.1408 33.2786 13.806C33.104 13.4713 32.8602 13.2165 32.5473 13.0419C32.2416 12.86 31.8923 12.769 31.4993 12.769ZM37.1083 13.1729C37.3048 12.7581 37.5922 12.4379 37.9707 12.2123C38.3491 11.9794 38.8003 11.863 39.3243 11.863V12.9436H39.0186C38.4582 12.9436 37.9998 13.0892 37.6432 13.3803C37.2866 13.6641 37.1083 14.1371 37.1083 14.7994V17.9541H36.1149V11.9612H37.1083V13.1729ZM47.5097 16.1748H44.1258L43.4817 17.9541H42.412L45.261 10.4002H46.3854L49.2236 17.9541H48.1538L47.5097 16.1748ZM47.2259 15.3998L45.8178 11.5136L44.4096 15.3998H47.2259ZM51.2224 9.87624V17.9541H50.229V9.87624H51.2224ZM53.8128 9.87624V17.9541H52.8194V9.87624H53.8128Z" fill="#63CBF2"/>
</svg>
