<svg width="24" height="24" viewBox="0 0 24 24" fill="none" xmlns="http://www.w3.org/2000/svg">
<mask id="path-1-inside-1_157_643" fill="white">
<path fill-rule="evenodd" clip-rule="evenodd" d="M19.5926 16.1184C20.4864 14.6211 21 12.8705 21 11C21 5.47715 16.5228 1 11 1C5.47715 1 1 5.47715 1 11C1 16.5228 5.47715 21 11 21C12.8741 21 14.6278 20.4845 16.127 19.5875L20.8621 20.8563L19.5926 16.1184Z"/>
</mask>
<path d="M19.5926 16.1184L18.7339 15.6058C18.5954 15.8379 18.5567 16.1162 18.6267 16.3772L19.5926 16.1184ZM16.127 19.5875L16.3858 18.6216C16.1244 18.5515 15.8458 18.5904 15.6135 18.7294L16.127 19.5875ZM20.8621 20.8563L20.6033 21.8222C20.9484 21.9146 21.3166 21.816 21.5692 21.5634C21.8218 21.3107 21.9205 20.9425 21.828 20.5974L20.8621 20.8563ZM20 11C20 12.6851 19.5378 14.2592 18.7339 15.6058L20.4512 16.631C21.435 14.983 22 13.056 22 11H20ZM11 2C15.9706 2 20 6.02944 20 11H22C22 4.92487 17.0751 0 11 0V2ZM2 11C2 6.02944 6.02944 2 11 2V0C4.92487 0 0 4.92487 0 11H2ZM11 20C6.02944 20 2 15.9706 2 11H0C0 17.0751 4.92487 22 11 22V20ZM15.6135 18.7294C14.2652 19.5361 12.6883 20 11 20V22C13.0599 22 14.9903 21.4328 16.6404 20.4456L15.6135 18.7294ZM15.8681 20.5534L20.6033 21.8222L21.1209 19.8903L16.3858 18.6216L15.8681 20.5534ZM21.828 20.5974L20.5585 15.8596L18.6267 16.3772L19.8962 21.1151L21.828 20.5974Z" fill="#63CBF2" mask="url(#path-1-inside-1_157_643)"/>
</svg>
