<svg width="20" height="20" viewBox="0 0 20 20" fill="none" xmlns="http://www.w3.org/2000/svg">
<mask id="path-1-inside-1_1_12" fill="white">
<path fill-rule="evenodd" clip-rule="evenodd" d="M18.5926 15.1184C19.4864 13.6211 20 11.8705 20 10C20 4.47715 15.5228 0 10 0C4.47715 0 0 4.47715 0 10C0 15.5228 4.47715 20 10 20C11.8741 20 13.6278 19.4845 15.127 18.5875L19.8621 19.8563L18.5926 15.1184Z"/>
</mask>
<path fill-rule="evenodd" clip-rule="evenodd" d="M18.5926 15.1184C19.4864 13.6211 20 11.8705 20 10C20 4.47715 15.5228 0 10 0C4.47715 0 0 4.47715 0 10C0 15.5228 4.47715 20 10 20C11.8741 20 13.6278 19.4845 15.127 18.5875L19.8621 19.8563L18.5926 15.1184Z" fill="#63CBF2"/>
<path d="M18.5926 15.1184L17.7339 14.6058C17.5954 14.8379 17.5567 15.1162 17.6267 15.3772L18.5926 15.1184ZM15.127 18.5875L15.3858 17.6216C15.1244 17.5515 14.8458 17.5904 14.6135 17.7294L15.127 18.5875ZM19.8621 19.8563L19.6033 20.8222C19.9484 20.9146 20.3166 20.816 20.5692 20.5634C20.8218 20.3107 20.9205 19.9425 20.828 19.5974L19.8621 19.8563ZM19 10C19 11.6851 18.5378 13.2592 17.7339 14.6058L19.4512 15.631C20.435 13.983 21 12.056 21 10H19ZM10 1C14.9706 1 19 5.02944 19 10H21C21 3.92487 16.0751 -1 10 -1V1ZM1 10C1 5.02944 5.02944 1 10 1V-1C3.92487 -1 -1 3.92487 -1 10H1ZM10 19C5.02944 19 1 14.9706 1 10H-1C-1 16.0751 3.92487 21 10 21V19ZM14.6135 17.7294C13.2652 18.5361 11.6883 19 10 19V21C12.0599 21 13.9903 20.4329 15.6404 19.4456L14.6135 17.7294ZM14.8681 19.5534L19.6033 20.8222L20.1209 18.8903L15.3858 17.6216L14.8681 19.5534ZM20.828 19.5974L19.5585 14.8596L17.6267 15.3772L18.8962 20.1151L20.828 19.5974Z" fill="#63CBF2" mask="url(#path-1-inside-1_1_12)"/>
</svg>
