<svg width="44" height="44" viewBox="0 0 44 44" fill="none" xmlns="http://www.w3.org/2000/svg">
<rect y="0.212891" width="43.2567" height="43.2567" rx="7.31451" fill="white"/>
<path d="M24.8249 18.8763L24.381 27.7945C24.3759 27.8979 24.3312 27.9954 24.2561 28.0668C24.1811 28.1382 24.0816 28.1781 23.978 28.1781H23.9578C23.9048 28.1755 23.8527 28.1625 23.8047 28.1398C23.7567 28.1171 23.7136 28.0851 23.678 28.0457C23.6424 28.0063 23.6149 27.9603 23.597 27.9102C23.5792 27.8602 23.5714 27.8071 23.5742 27.7541L24.016 18.8763H22.0307V27.7743C22.0307 27.8814 21.9881 27.9841 21.9124 28.0598C21.8366 28.1356 21.7339 28.1781 21.6268 28.1781C21.5197 28.1781 21.417 28.1356 21.3413 28.0598C21.2655 27.9841 21.223 27.8814 21.223 27.7743V18.8763H19.2373L19.6791 27.7541C19.6818 27.8071 19.674 27.8602 19.6562 27.9102C19.6384 27.9603 19.6109 28.0063 19.5752 28.0457C19.5396 28.0851 19.4965 28.1171 19.4485 28.1398C19.4005 28.1625 19.3485 28.1755 19.2954 28.1781H19.2752C19.1717 28.1781 19.0721 28.1382 18.9971 28.0668C18.9221 27.9954 18.8774 27.8979 18.8722 27.7945L18.4288 18.8763H15.1079C15.0728 18.8763 15.0381 18.8723 15.0029 18.8711L16.0368 29.9377C16.0755 30.3743 16.2767 30.7804 16.6005 31.0758C16.9243 31.3712 17.3471 31.5343 17.7854 31.5329H25.4666C26.3793 31.5329 27.1304 30.8463 27.2152 29.9377L28.2491 18.8711C28.2152 18.8727 28.182 18.8763 28.1481 18.8763H24.8249Z" fill="#63CBF2"/>
<path d="M28.1479 14.9148H25.1109V14.0182C25.1109 12.9844 24.275 12.1484 23.2411 12.1484H20.0104C18.9806 12.1484 18.1406 12.9844 18.1406 14.0182V14.9148H15.1077C14.3282 14.9148 13.6982 15.5448 13.6982 16.3242V16.6594C13.6982 17.4348 14.3282 18.0688 15.1077 18.0688H28.1479C28.5213 18.0678 28.8792 17.9189 29.1433 17.6548C29.4074 17.3907 29.5562 17.0329 29.5573 16.6594V16.3242C29.5573 15.5448 28.9232 14.9148 28.1479 14.9148ZM24.3032 14.9148H18.9482V14.0182C18.9482 13.4327 19.4248 12.9561 20.0104 12.9561H23.2411C23.8267 12.9561 24.3032 13.4327 24.3032 14.0182V14.9148Z" fill="#63CBF2"/>
</svg>
