<svg width="107" height="56" viewBox="0 0 107 56" fill="none" xmlns="http://www.w3.org/2000/svg">
<rect x="25" width="57" height="56" rx="10.7368" fill="#F1F3FF"/>
<path d="M57.9152 23.9067L57.3023 36.2222C57.2951 36.365 57.2334 36.4996 57.1298 36.5982C57.0262 36.6968 56.8887 36.7519 56.7457 36.752H56.7178C56.6446 36.7484 56.5727 36.7304 56.5064 36.699C56.4401 36.6677 56.3806 36.6235 56.3314 36.5691C56.2822 36.5147 56.2442 36.4512 56.2196 36.3821C56.195 36.313 56.1843 36.2397 56.188 36.1664L56.7981 23.9067H54.0565V36.1943C54.0565 36.3422 53.9978 36.4841 53.8932 36.5886C53.7886 36.6932 53.6467 36.752 53.4988 36.752C53.3509 36.752 53.2091 36.6932 53.1045 36.5886C52.9999 36.4841 52.9411 36.3422 52.9411 36.1943V23.9067H50.199L50.8091 36.1664C50.8128 36.2397 50.8021 36.313 50.7775 36.3821C50.7529 36.4512 50.7149 36.5147 50.6657 36.5691C50.6165 36.6235 50.557 36.6677 50.4907 36.699C50.4244 36.7304 50.3525 36.7484 50.2793 36.752H50.2514C50.1084 36.7519 49.9709 36.6968 49.8673 36.5982C49.7637 36.4996 49.702 36.365 49.6948 36.2222L49.0825 23.9067H44.4966C44.448 23.9067 44.4001 23.9011 44.3516 23.8994L45.7793 39.1819C45.8328 39.7847 46.1105 40.3456 46.5577 40.7535C47.0049 41.1614 47.5888 41.3867 48.1941 41.3847H58.8014C60.0618 41.3847 61.0991 40.4367 61.2162 39.1819L62.6439 23.8994C62.597 23.9016 62.5513 23.9067 62.5044 23.9067H57.9152Z" fill="#63CBF2"/>
<path d="M62.5031 18.4354H58.3092V17.1974C58.3092 15.7697 57.1548 14.6152 55.7271 14.6152H51.2656C49.8434 14.6152 48.6834 15.7697 48.6834 17.1974V18.4354H44.4952C43.4188 18.4354 42.5488 19.3054 42.5488 20.3818V20.8447C42.5488 21.9154 43.4188 22.791 44.4952 22.791H62.5031C63.0188 22.7895 63.513 22.584 63.8777 22.2193C64.2424 21.8546 64.4479 21.3604 64.4494 20.8447V20.3818C64.4494 19.3054 63.5738 18.4354 62.5031 18.4354ZM57.1938 18.4354H49.7988V17.1974C49.7988 16.3887 50.4569 15.7306 51.2656 15.7306H55.7271C56.5357 15.7306 57.1938 16.3887 57.1938 17.1974V18.4354Z" fill="#63CBF2"/>
</svg>
