<svg width="20" height="20" viewBox="0 0 20 20" fill="none" xmlns="http://www.w3.org/2000/svg">
<path d="M14.2453 6.13092C14.5559 5.82026 14.5559 5.31659 14.2453 5.00594C13.9346 4.69529 13.4309 4.69529 13.1203 5.00594L5.72796 12.3983L2.31305 8.98334C2.00239 8.67269 1.49872 8.67269 1.18807 8.98334C0.877415 9.294 0.877415 9.79767 1.18807 10.1083L5.16547 14.0857C5.47612 14.3964 5.97979 14.3964 6.29045 14.0857L14.2453 6.13092Z" fill="#63CBF2"/>
<path d="M18.2227 6.13092C18.5333 5.82026 18.5333 5.31659 18.2227 5.00594C17.912 4.69529 17.4083 4.69529 17.0977 5.00594L9.70161 12.402C9.38936 12.1545 8.93426 12.175 8.6457 12.4636C8.33504 12.7742 8.33504 13.2779 8.6457 13.5885L9.14287 14.0857C9.45352 14.3964 9.95719 14.3964 10.2678 14.0857L18.2227 6.13092Z" fill="#63CBF2"/>
<path d="M6.78762 9.48052L6.29045 8.98334C5.97979 8.67269 5.47612 8.67269 5.16547 8.98334C4.85482 9.294 4.85482 9.79767 5.16547 10.1083L5.66264 10.6055C5.9733 10.9161 6.47697 10.9161 6.78762 10.6055C7.09828 10.2948 7.09828 9.79117 6.78762 9.48052Z" fill="#63CBF2"/>
</svg>
