<svg width="8" height="5" viewBox="0 0 8 5" fill="none" xmlns="http://www.w3.org/2000/svg">
<path d="M7.87495 1.422L7.87496 1.42388C7.87519 1.4906 7.86047 1.55651 7.83188 1.61679C7.80333 1.677 7.76166 1.73006 7.70994 1.77207C7.70989 1.77211 7.70984 1.77215 7.70979 1.77219L4.28191 4.53239L4.2819 4.53238L4.28092 4.5332C4.20104 4.59887 4.10086 4.63477 3.99748 4.63477C3.89423 4.63477 3.79416 4.59896 3.71434 4.53344C3.71424 4.53336 3.71414 4.53328 3.71405 4.5332L0.286446 1.67608L0.286324 1.67597C0.195132 1.60016 0.137778 1.4912 0.12689 1.37308C0.116002 1.25495 0.152473 1.13734 0.228272 1.04612C0.30407 0.954901 0.412983 0.897545 0.531046 0.886656C0.649073 0.875771 0.766594 0.912215 0.857772 0.987982C0.8578 0.988006 0.857828 0.988029 0.857857 0.988053L3.92027 3.54267L3.99899 3.60833L4.07879 3.54399L7.14136 1.07498L7.14137 1.07499L7.14293 1.07369C7.20845 1.01909 7.28823 0.984412 7.37283 0.973751C7.45744 0.96309 7.54333 0.976893 7.62033 1.01353C7.69734 1.05017 7.76225 1.1081 7.80738 1.18049C7.85251 1.25288 7.87597 1.33669 7.87495 1.422Z" fill="#444444" stroke="white" stroke-width="0.25"/>
</svg>
