<svg width="44" height="44" viewBox="0 0 44 44" fill="none" xmlns="http://www.w3.org/2000/svg">
<rect y="0.327148" width="43.2567" height="43.2567" rx="7.31451" fill="white"/>
<path d="M21.6291 22.3727C24.3905 22.3727 26.6479 19.8469 26.6479 16.7571C26.6479 13.6673 24.3905 11.1416 21.6291 11.1416C18.8677 11.1416 16.6104 13.6673 16.6104 16.7571C16.6104 19.8469 18.8677 22.3727 21.6291 22.3727Z" fill="#63CBF2"/>
<path d="M30.2422 26.8602C30.1107 26.4924 29.9354 26.1491 29.7382 25.8303C28.73 24.1628 27.174 23.0593 25.4207 22.7895C25.2016 22.765 24.9605 22.8141 24.7852 22.9612C23.8647 23.7214 22.7689 24.1137 21.6292 24.1137C20.4896 24.1137 19.3938 23.7214 18.4733 22.9612C18.298 22.8141 18.0569 22.7405 17.8378 22.7895C16.0845 23.0593 14.5065 24.1628 13.5203 25.8303C13.3231 26.1491 13.1477 26.5169 13.0163 26.8602C12.9505 27.0074 12.9724 27.179 13.0382 27.3261C13.2135 27.6694 13.4326 28.0128 13.6299 28.307C13.9367 28.773 14.2654 29.1898 14.638 29.5821C14.9448 29.9254 15.2955 30.2442 15.6462 30.563C17.3775 32.0098 19.4596 32.77 21.6074 32.77C23.7551 32.77 25.8372 32.0098 27.5685 30.563C27.9192 30.2688 28.2698 29.9254 28.5767 29.5821C28.9273 29.1898 29.278 28.7729 29.5848 28.307C29.804 27.9882 30.0012 27.6694 30.1765 27.3261C30.2861 27.179 30.308 27.0073 30.2422 26.8602Z" fill="#63CBF2"/>
</svg>
