<svg width="50" height="76" viewBox="0 0 50 76" fill="none" xmlns="http://www.w3.org/2000/svg">
<path fill-rule="evenodd" clip-rule="evenodd" d="M32.5679 0.379883C37.5875 0.379883 40.0967 0.379883 42.7988 1.23405C45.7487 2.3078 48.0721 4.63113 49.1458 7.58113C50 10.2828 50 12.7928 50 17.812V32.9478C50 37.9674 50 40.4766 49.1458 43.1786C48.0721 46.1286 45.7487 48.452 42.7988 49.5253C40.0967 50.3799 37.5875 50.3799 32.5679 50.3799H17.4321C12.4125 50.3799 9.90292 50.3799 7.20125 49.5253C4.25125 48.452 1.92792 46.1286 0.854167 43.1786C0 40.4766 0 37.9674 0 32.9478V17.812C0 12.7928 0 10.2828 0.854167 7.58113C1.92792 4.63113 4.25125 2.3078 7.20125 1.23405C9.90292 0.379883 12.4125 0.379883 17.4321 0.379883H32.5679Z" fill="url(#paint0_linear_157_2899)"/>
<path fill-rule="evenodd" clip-rule="evenodd" d="M41.0502 36.1842C40.9816 36.2026 40.9096 36.2124 40.8354 36.2124H9.16662C9.09229 36.2124 9.02023 36.2026 8.95166 36.1843L18.8245 26.3167L20.9208 28.4643C23.1727 30.7713 26.8291 30.7715 29.0812 28.4643L31.1775 26.3167L41.0502 36.1842ZM41.6675 35.1306V15.557C41.6675 15.4572 41.6499 15.3614 41.6176 15.2726C41.5684 15.3866 31.7593 25.4713 31.7593 25.4713L41.6392 35.346C41.6576 35.2773 41.6675 35.2051 41.6675 35.1306ZM8.33398 35.2143V15.6407C8.33398 15.5409 8.35163 15.4451 8.38395 15.3564C8.43312 15.4704 18.2422 25.555 18.2422 25.555L8.36216 35.4297C8.34378 35.361 8.33398 35.2888 8.33398 35.2143ZM41.0905 14.5617L28.4846 27.4655C26.5596 29.4376 23.4422 29.4375 21.5173 27.4655C21.5173 27.4655 13.1147 18.8644 8.91345 14.5638C8.87539 14.5248 41.0905 14.5617 41.0905 14.5617Z" fill="white"/>
<path d="M22.569 62.7569V70.3799H21.568V64.2969L19.137 70.3799H18.246L15.804 64.3189V70.3799H14.803V62.7569H16.002L18.708 69.1589L21.37 62.7569H22.569ZM26.6452 64.2639C27.2319 64.2639 27.7269 64.4105 28.1302 64.7039C28.5409 64.9972 28.8269 65.3895 28.9882 65.8809V64.3409H29.9892V70.3799H28.9882V68.8399C28.8269 69.3312 28.5409 69.7235 28.1302 70.0169C27.7269 70.3102 27.2319 70.4569 26.6452 70.4569C26.1099 70.4569 25.6332 70.3322 25.2152 70.0829C24.7972 69.8335 24.4672 69.4779 24.2252 69.0159C23.9905 68.5465 23.8732 67.9965 23.8732 67.3659C23.8732 66.7352 23.9905 66.1852 24.2252 65.7159C24.4672 65.2465 24.7972 64.8872 25.2152 64.6379C25.6332 64.3885 26.1099 64.2639 26.6452 64.2639ZM26.9312 65.1549C26.3152 65.1549 25.8202 65.3529 25.4462 65.7489C25.0795 66.1375 24.8962 66.6765 24.8962 67.3659C24.8962 68.0552 25.0795 68.5979 25.4462 68.9939C25.8202 69.3825 26.3152 69.5769 26.9312 69.5769C27.3272 69.5769 27.6792 69.4852 27.9872 69.3019C28.3025 69.1185 28.5482 68.8619 28.7242 68.5319C28.9002 68.1945 28.9882 67.8059 28.9882 67.3659C28.9882 66.9259 28.9002 66.5372 28.7242 66.1999C28.5482 65.8625 28.3025 65.6059 27.9872 65.4299C27.6792 65.2465 27.3272 65.1549 26.9312 65.1549ZM31.4063 62.5699C31.4063 62.3865 31.4686 62.2399 31.5933 62.1299C31.718 62.0125 31.883 61.9539 32.0883 61.9539C32.2936 61.9539 32.4586 62.0125 32.5833 62.1299C32.708 62.2399 32.7703 62.3865 32.7703 62.5699C32.7703 62.7532 32.708 62.9035 32.5833 63.0209C32.4586 63.1309 32.2936 63.1859 32.0883 63.1859C31.883 63.1859 31.718 63.1309 31.5933 63.0209C31.4686 62.9035 31.4063 62.7532 31.4063 62.5699ZM32.5833 64.3409V70.3799H31.5823V64.3409H32.5833ZM35.1936 62.2399V70.3799H34.1926V62.2399H35.1936Z" fill="black"/>
<defs>
<linearGradient id="paint0_linear_157_2899" x1="0" y1="0.379883" x2="0" y2="50.3799" gradientUnits="userSpaceOnUse">
<stop stop-color="#1E51EE"/>
<stop offset="1" stop-color="#19E6FF"/>
</linearGradient>
</defs>
</svg>
