<svg width="9" height="9" viewBox="0 0 9 9" fill="none" xmlns="http://www.w3.org/2000/svg">
<rect x="9" width="9" height="9" rx="4.5" transform="rotate(90 9 0)" fill="white"/>
<path d="M2.99927 6.79394L2.99927 6.17182L4.95059 6.17182C5.04746 6.17182 5.12599 6.09329 5.12599 5.99643L5.12599 5.46475C5.12599 5.36788 5.04746 5.28935 4.95059 5.28935L2.99927 5.28935L2.99927 4.66722C2.99927 4.59625 2.95649 4.53226 2.89089 4.50514C2.8253 4.47802 2.74983 4.49311 2.6997 4.54336L1.639 5.60672C1.57071 5.67518 1.57071 5.78599 1.639 5.85445L2.6997 6.91781C2.74982 6.96806 2.8253 6.98315 2.89089 6.95603C2.95649 6.92891 2.99927 6.86492 2.99927 6.79394ZM6.47558 2.34656C6.42546 2.29631 6.34998 2.28122 6.28439 2.30835C6.2188 2.33547 6.17602 2.39945 6.17602 2.47043L6.17602 3.09256L4.22203 3.09256C4.12516 3.09256 4.04664 3.17108 4.04664 3.26795L4.04664 3.79963C4.04664 3.8965 4.12516 3.97502 4.22203 3.97502L6.17602 3.97502L6.17602 4.59715C6.17602 4.66813 6.2188 4.73211 6.28439 4.75924C6.34998 4.78636 6.42546 4.77127 6.47558 4.72102L7.53629 3.65766C7.60457 3.5892 7.60457 3.47838 7.53629 3.40992L6.47558 2.34656Z" fill="#63CBF2" stroke="#63CBF2" stroke-width="0.350785" stroke-linejoin="round"/>
</svg>
