<svg width="15" height="14" viewBox="0 0 15 14" fill="none" xmlns="http://www.w3.org/2000/svg">
<path d="M3.5793 2.41613C3.5241 2.36706 3.45856 2.32813 3.38644 2.30158C3.31431 2.27502 3.23701 2.26135 3.15894 2.26135C3.08087 2.26135 3.00356 2.27502 2.93144 2.30158C2.85931 2.32813 2.79378 2.36706 2.73857 2.41613C2.62709 2.51523 2.56445 2.64963 2.56445 2.78978C2.56445 2.92993 2.62709 3.06434 2.73857 3.16344L6.07188 6.12638C5.86099 6.4751 5.78212 6.87494 5.84695 7.26663C5.91178 7.65833 6.11687 8.02103 6.43182 8.30098C6.74676 8.58094 7.1548 8.76324 7.59546 8.82087C8.03612 8.87849 8.48594 8.80838 8.87825 8.62093L12.2116 11.5839C12.2666 11.6332 12.3321 11.6723 12.4042 11.6991C12.4764 11.7258 12.5538 11.7395 12.6319 11.7395C12.7101 11.7395 12.7875 11.7258 12.8596 11.6991C12.9318 11.6723 12.9972 11.6332 13.0523 11.5839C13.1078 11.5349 13.1518 11.4767 13.1819 11.4126C13.2119 11.3485 13.2274 11.2797 13.2274 11.2102C13.2274 11.1407 13.2119 11.0719 13.1819 11.0078C13.1518 10.9437 13.1078 10.8855 13.0523 10.8366L3.5793 2.41613ZM7.89543 7.78941C7.65989 7.78941 7.434 7.70624 7.26745 7.5582C7.1009 7.41015 7.00734 7.20936 7.00734 6.99999V6.96316L7.93095 7.78415L7.89543 7.78941Z" fill="#A7A7A7"/>
<path d="M8.02588 9.63141C5.48001 9.68404 3.8104 7.74207 3.28939 7.00003C3.66029 6.47411 4.10605 5.99298 4.6156 5.56855L3.75119 4.8265C3.08295 5.38618 2.51047 6.0298 2.05198 6.73689C2.00001 6.81689 1.97266 6.90764 1.97266 7.00003C1.97266 7.09241 2.00001 7.18316 2.05198 7.26316C2.42498 7.8368 4.42022 10.684 7.90747 10.684H8.05548C8.71122 10.6667 9.35847 10.5473 9.96784 10.3314L9.03238 9.49984C8.70341 9.57677 8.36583 9.62089 8.02588 9.63141ZM13.7393 6.73689C13.3604 6.15272 11.2704 3.22136 7.73577 3.31609C7.08003 3.33338 6.43278 3.45272 5.82341 3.66869L6.75887 4.50021C7.08783 4.42328 7.42542 4.37916 7.76537 4.36864C10.3053 4.31075 11.9749 6.25797 12.5019 7.00003C12.1218 7.52751 11.666 8.00872 11.146 8.4315L12.0401 9.17355C12.7167 8.61534 13.2972 7.97165 13.763 7.26316C13.8114 7.18132 13.8347 7.08959 13.8305 6.9972C13.8263 6.90481 13.7949 6.81503 13.7393 6.73689Z" fill="#A7A7A7"/>
</svg>
