<svg width="10" height="9" viewBox="0 0 10 9" fill="none" xmlns="http://www.w3.org/2000/svg">
<rect x="0.500977" y="0.281738" width="8.71833" height="8.71832" rx="4.35916" fill="#D7D5FF"/>
<mask id="mask0_157_671" style="mask-type:alpha" maskUnits="userSpaceOnUse" x="0" y="0" width="10" height="9">
<rect x="0.532227" y="0.281738" width="8.71833" height="8.71832" rx="4.35916" fill="#D7D5FF"/>
</mask>
<g mask="url(#mask0_157_671)">
<path d="M7.01307 0.281738H3.34668V8.99987H7.01307V0.281738Z" fill="#F2F2F2"/>
<path d="M3.63059 0.281738V9.00006H1.77153C1.44291 8.99976 1.12783 8.86523 0.89547 8.626C0.663112 8.38677 0.53247 8.0624 0.532227 7.72411V1.55769C0.532324 1.21935 0.662919 0.894895 0.895308 0.655634C1.1277 0.416374 1.44286 0.281889 1.77153 0.281738H3.63059Z" fill="#017658"/>
<path d="M9.82785 1.55769V7.72411C9.82781 8.06246 9.69723 8.38695 9.46483 8.62622C9.23243 8.86549 8.91723 8.99996 8.58855 9.00006H6.72949V0.281738H8.58855C8.75132 0.281713 8.9125 0.314701 9.06288 0.378817C9.21326 0.442934 9.3499 0.536922 9.46499 0.655413C9.58008 0.773903 9.67136 0.914575 9.73362 1.06939C9.79588 1.22421 9.8279 1.39013 9.82785 1.55769Z" fill="#F77500"/>
<path opacity="0.12" d="M8.59309 0.813477H1.77183C1.58018 0.813477 1.39636 0.891813 1.26079 1.03127C1.12521 1.17072 1.04897 1.35989 1.04883 1.55718V5.53341C1.04906 5.60788 1.06477 5.68144 1.0949 5.74914C1.12504 5.81685 1.1689 5.87712 1.22355 5.92593C1.27819 5.97473 1.34235 6.01093 1.41171 6.03209C1.48108 6.05325 1.55404 6.05888 1.62569 6.0486C5.90519 5.45705 8.00096 2.74389 8.84305 1.25932C8.86843 1.21415 8.8818 1.1629 8.88183 1.11071C8.88185 1.05853 8.86852 1.00726 8.84318 0.96207C8.81784 0.916875 8.78139 0.879347 8.73749 0.853262C8.69359 0.827177 8.64378 0.813455 8.59309 0.813477Z" fill="white"/>
</g>
</svg>
