<svg width="9" height="15" viewBox="0 0 9 15" fill="none" xmlns="http://www.w3.org/2000/svg">
<path d="M8.17095 7.34197L8.17635 7.34694L8.18193 7.35171C8.25837 7.41691 8.31739 7.49434 8.35704 7.57803C8.39663 7.66161 8.4165 7.75054 8.4165 7.8395C8.4165 7.92846 8.39663 8.01738 8.35704 8.10096C8.31739 8.18466 8.25837 8.26208 8.18193 8.32729L8.17635 8.33205L8.17095 8.33703L1.73269 14.2798L1.73268 14.2798L1.72971 14.2826C1.66034 14.348 1.57604 14.4015 1.48096 14.4387C1.3863 14.4757 1.28374 14.4953 1.17942 14.4959C1.07509 14.4953 0.972541 14.4757 0.877875 14.4387C0.782799 14.4015 0.698492 14.348 0.629123 14.2826L0.627201 14.2808C0.488055 14.1514 0.416016 13.9828 0.416016 13.8138C0.416016 13.645 0.487924 13.4766 0.626821 13.3472C0.626947 13.3471 0.627074 13.347 0.6272 13.3469L6.25702 8.14112L6.55329 7.86717L6.25839 7.59174L0.627762 2.33264L0.627201 2.33212C0.488055 2.20269 0.416016 2.03412 0.416016 1.86516C0.416016 1.6962 0.488055 1.52763 0.627201 1.3982L0.627509 1.39792C0.69719 1.33295 0.781668 1.27996 0.876768 1.24332C0.971894 1.20668 1.07484 1.1875 1.17942 1.1875C1.284 1.1875 1.38694 1.20668 1.48207 1.24332C1.57717 1.27996 1.66165 1.33295 1.73133 1.39792L1.73133 1.39792L1.73269 1.39918L8.17095 7.34197Z" fill="#63CBF2" stroke="#F9F9F9" stroke-width="0.75"/>
</svg>
