<svg width="24" height="24" viewBox="0 0 24 24" fill="none" xmlns="http://www.w3.org/2000/svg">
<g clip-path="url(#clip0_157_4345)">
<path d="M21.998 10.4062H20.4043V23.7656H21.998V10.4062Z" fill="#BEBF25"/>
<path d="M12.2344 1.125H11.7656V4.6875H12.2344V1.125Z" fill="#DB332A"/>
<path d="M12 2.01562V0.234375L13.7812 1.125L12 2.01562Z" fill="#DB332A"/>
<path d="M12 2.25004C11.9578 2.25004 11.9156 2.23597 11.8781 2.21722C11.8078 2.17504 11.7656 2.10004 11.7656 2.01566V0.234412C11.7656 0.154724 11.8078 0.0797244 11.8781 0.0328494C11.9484 -0.00933806 12.0328 -0.0140256 12.1078 0.0234744L13.8891 0.914099C13.9687 0.951599 14.0203 1.03597 14.0203 1.12504C14.0203 1.2141 13.9687 1.29379 13.8891 1.33597L12.1078 2.2266C12.0703 2.24066 12.0375 2.25004 12 2.25004ZM12.2344 0.614099V1.63597L13.2562 1.12504L12.2344 0.614099ZM12 3.51566C10.0172 5.85472 7.3125 7.47191 4.31719 8.11879L0.234375 9.00004H23.7656L19.6828 8.11879C16.6875 7.47191 13.9828 5.85472 12 3.51566Z" fill="#DB332A"/>
<path d="M12.0004 3.51562C10.9082 5.83125 8.97227 7.64062 6.58633 8.56875L5.4707 9H18.5348L17.4191 8.56875C15.0285 7.64062 13.0926 5.83125 12.0004 3.51562Z" fill="#F8D700"/>
<path d="M12 3.51562L11.8312 4.85625C11.6437 6.34687 11.1 7.76719 10.2422 9H13.7578C12.9047 7.76719 12.3609 6.34687 12.1688 4.85625L12 3.51562Z" fill="#DB332A"/>
<path d="M23.7656 9H0.234375V10.4062H23.7656V9Z" fill="#2D1123"/>
<path d="M3.5957 10.4062H2.00195V23.7656H3.5957V10.4062Z" fill="#BEBF25"/>
<path d="M3.5957 10.4062H2.00195V12.5156H3.5957V10.4062Z" fill="#A38B21"/>
<path d="M21.998 10.4062H20.4043V12.5156H21.998V10.4062Z" fill="#A38B21"/>
<path d="M4.54668 22.1719H1.0498V23.7656H4.54668V22.1719Z" fill="#2D1123"/>
<path d="M22.95 22.1719H19.4531V23.7656H22.95V22.1719Z" fill="#2D1123"/>
<path d="M2.00156 12H1.82812C0.946875 12 0.234375 11.2875 0.234375 10.4062H3.59531C3.59531 11.2875 2.88281 12 2.00156 12Z" fill="#DB332A"/>
<path d="M5.36289 12H5.18945C4.3082 12 3.5957 11.2875 3.5957 10.4062H6.95664C6.95664 11.2875 6.24414 12 5.36289 12Z" fill="#F8D700"/>
<path d="M8.72324 12H8.5498C7.66855 12 6.95605 11.2875 6.95605 10.4062H10.317C10.317 11.2875 9.60449 12 8.72324 12Z" fill="#DB332A"/>
<path d="M12.0895 12H11.916C11.0348 12 10.3223 11.2875 10.3223 10.4062H13.6832C13.6832 11.2875 12.966 12 12.0895 12Z" fill="#F8D700"/>
<path d="M15.4498 12H15.2764C14.3951 12 13.6826 11.2875 13.6826 10.4062H17.0436C17.0436 11.2875 16.3264 12 15.4498 12Z" fill="#DB332A"/>
<path d="M18.8111 12H18.6377C17.7564 12 17.0439 11.2875 17.0439 10.4062H20.4049C20.4049 11.2875 19.6924 12 18.8111 12Z" fill="#F8D700"/>
<path d="M22.1715 12H21.998C21.1168 12 20.4043 11.2875 20.4043 10.4062H23.7652C23.7652 11.2875 23.0527 12 22.1715 12Z" fill="#DB332A"/>
<path d="M5.90625 13.9969L3.5625 12.9844H2.01562V12.5156H3.60938C3.64219 12.5156 3.675 12.5203 3.70312 12.5344L6.09375 13.5656L5.90625 13.9969Z" fill="#F8D700"/>
<path d="M3.60938 18.0469H2.01562V17.5782H3.5625L5.91094 16.5657L6.09844 16.9969L3.70781 18.0282C3.675 18.0422 3.64219 18.0469 3.60938 18.0469Z" fill="#F8D700"/>
<path d="M21.9844 18.0469H20.3906C20.3578 18.0469 20.325 18.0422 20.2969 18.0282L17.9062 16.9969L18.0938 16.5657L20.4375 17.5782H21.9844V18.0469Z" fill="#F8B700"/>
<path d="M18.0938 13.9969L17.9062 13.5656L20.2969 12.5344C20.325 12.5203 20.3578 12.5156 20.3906 12.5156H21.9844V12.9844H20.4375L18.0938 13.9969Z" fill="#F8B700"/>
<path d="M18.2344 13.7812C18.2344 13.65 18.1313 13.5469 18 13.5469H6C5.86875 13.5469 5.76562 13.65 5.76562 13.7812V16.7812C5.76562 16.9125 5.86875 17.0156 6 17.0156H18C18.1313 17.0156 18.2344 16.9125 18.2344 16.7812V13.7812Z" fill="#F8B700"/>
<path d="M15.75 13.5469H6C5.86875 13.5469 5.76562 13.65 5.76562 13.7812V16.7812C5.76562 16.9125 5.86875 17.0156 6 17.0156H13.6172C14.925 17.0156 15.9844 15.9562 15.9844 14.6484V13.7812C15.9844 13.65 15.8813 13.5469 15.75 13.5469Z" fill="#F8D700"/>
<path d="M15.9844 15.0469H8.01562V15.5156H15.9844V15.0469Z" fill="#DB332A"/>
</g>
<defs>
<clipPath id="clip0_157_4345">
<rect width="24" height="24" fill="white"/>
</clipPath>
</defs>
</svg>
