<svg width="21" height="18" viewBox="0 0 21 18" fill="none" xmlns="http://www.w3.org/2000/svg">
<path d="M20.5626 4.73804V8.05221C20.5626 8.11761 20.5366 8.18033 20.4905 8.22657C20.4443 8.27282 20.3817 8.2988 20.3164 8.2988H19.3072C19.2419 8.2988 19.1793 8.27282 19.1331 8.22657C19.087 8.18033 19.061 8.11761 19.061 8.05221V7.06092L18.0616 8.06207C18.7744 9.01006 19.1598 10.1647 19.1595 11.3516C19.1595 11.5193 19.1496 11.6869 19.1398 11.8497C19.1482 11.8802 19.1515 11.9118 19.1496 11.9434C19.0478 12.9715 18.6567 13.9494 18.0218 14.7635C17.3869 15.5776 16.5343 16.1944 15.5632 16.5421C14.5921 16.8898 13.5424 16.9542 12.5362 16.7276C11.53 16.5011 10.6087 15.993 9.8795 15.2625C8.96993 14.346 8.41209 13.1375 8.30412 11.8497C8.2992 11.7954 8.29427 11.7412 8.29427 11.6869C8.8601 11.4242 9.38164 11.0748 9.84012 10.6513C9.79641 10.8821 9.77498 11.1166 9.77612 11.3516C9.77548 12.0015 9.93492 12.6415 10.2403 13.2149C10.5457 13.7884 10.9876 14.2774 11.5268 14.6388C12.0661 15.0002 12.686 15.2227 13.3316 15.2867C13.9772 15.3506 14.6286 15.254 15.228 15.0053C15.8275 14.7567 16.3564 14.3638 16.7679 13.8613C17.1795 13.3589 17.4609 12.7625 17.5873 12.1251C17.7137 11.4876 17.6811 10.8287 17.4925 10.2069C17.3039 9.58504 16.965 9.01943 16.5059 8.56018C16.2291 8.28678 15.916 8.0528 15.5755 7.8648H15.5706C15.2318 7.68349 14.8687 7.55226 14.4924 7.47519C14.2377 7.42568 13.9789 7.40091 13.7195 7.40121C12.9392 7.40372 12.1771 7.63706 11.5287 8.07193C11.3139 8.2137 11.1143 8.37732 10.933 8.56018C10.8426 8.64912 10.7572 8.74296 10.677 8.84129C10.5425 9.00667 10.4223 9.18321 10.3177 9.369C10.3078 9.37393 10.3029 9.37886 10.3078 9.38379C9.99638 9.83217 9.61777 10.2297 9.18535 10.5625C8.90925 10.7753 8.61616 10.965 8.30904 11.1296C8.30412 11.1346 8.2992 11.1346 8.29427 11.1395C8.27551 11.1498 8.25571 11.1581 8.2352 11.1642C7.71866 11.4238 7.16323 11.597 6.59089 11.6771C6.58512 11.681 6.57814 11.6827 6.5712 11.682V12.8114H7.66412C7.7294 12.8114 7.79202 12.8374 7.83818 12.8836C7.88434 12.9299 7.91027 12.9926 7.91027 13.058V14.069C7.91027 14.1344 7.88434 14.1971 7.83818 14.2434C7.79202 14.2896 7.7294 14.3156 7.66412 14.3156H6.5712V15.4252C6.57019 15.4903 6.54393 15.5525 6.49798 15.5985C6.45204 15.6445 6.39001 15.6708 6.32505 15.6718H5.31582C5.25053 15.6718 5.18792 15.6458 5.14176 15.5996C5.0956 15.5534 5.06966 15.4906 5.06966 15.4252V14.3156H3.98167C3.91638 14.3156 3.85377 14.2896 3.80761 14.2434C3.76145 14.1971 3.73551 14.1344 3.73551 14.069V13.058C3.73551 12.9926 3.76145 12.9299 3.80761 12.8836C3.85377 12.8374 3.91638 12.8114 3.98167 12.8114H5.06966V11.682C3.76644 11.506 2.57167 10.8609 1.70836 9.8672C0.845043 8.87349 0.372167 7.59903 0.377983 6.28169C0.380366 5.15109 0.731104 4.04878 1.38229 3.12535C1.88428 2.41401 2.54989 1.83424 3.32283 1.43507C4.09577 1.03589 4.9533 0.829063 5.82289 0.832063C6.09979 0.83283 6.37625 0.854261 6.64997 0.896177C7.47233 1.01834 8.25532 1.32944 8.93771 1.80513C9.6201 2.28083 10.1834 2.90823 10.5835 3.63825V3.64318C10.9419 4.29135 11.1631 5.00653 11.2333 5.74413V5.76879C11.2383 5.82797 11.2481 5.88715 11.2481 5.94633C11.0212 6.04792 10.8023 6.16662 10.5933 6.30142C10.2726 6.49747 9.97237 6.72549 9.69735 6.98201C9.80904 6.35589 9.76797 5.712 9.57765 5.10521C9.38732 4.49842 9.05337 3.94672 8.60427 3.49712C8.15516 3.04753 7.60421 2.71337 6.99836 2.52312C6.39251 2.33287 5.74973 2.29218 5.12479 2.4045C4.49986 2.51682 3.91129 2.77884 3.40926 3.16821C2.90722 3.55759 2.50659 4.06278 2.24152 4.64073C1.97645 5.21869 1.85479 5.85228 1.88691 6.48751C1.91902 7.12273 2.10397 7.74077 2.42598 8.28893C2.93871 9.15044 3.75573 9.78761 4.7152 10.0742C4.8578 10.1147 5.00241 10.1476 5.14843 10.1729C5.83907 10.2939 6.54946 10.2274 7.20573 9.98019C7.86199 9.733 8.44017 9.31419 8.88012 8.76732C8.88504 8.76239 8.88504 8.76239 8.88504 8.75745C8.93427 8.69827 8.9835 8.63416 9.02781 8.57005C9.03273 8.56511 9.03273 8.56018 9.04258 8.55525C9.05292 8.53404 9.19421 8.33184 9.20504 8.2988C9.20504 8.2988 9.20799 8.29534 9.20996 8.29386C9.58141 7.74454 10.0503 7.26814 10.5933 6.8883C10.7232 6.79554 10.8579 6.70992 10.997 6.63185C11.2955 6.45329 11.6124 6.30776 11.9423 6.19785C12.7864 5.9078 13.6887 5.82941 14.5701 5.96955C15.4515 6.1097 16.2852 6.46409 16.9983 7.00174L17.9976 5.99565H17.0081C16.9428 5.99565 16.8802 5.96967 16.834 5.92343C16.7879 5.87718 16.7619 5.81446 16.7619 5.74906V4.73804C16.7619 4.67264 16.7879 4.60992 16.834 4.56368C16.8802 4.51743 16.9428 4.49145 17.0081 4.49145H20.3164C20.3817 4.49145 20.4443 4.51743 20.4905 4.56368C20.5366 4.60992 20.5626 4.67264 20.5626 4.73804Z" fill="white" stroke="#63CBF2" stroke-width="0.694656"/>
</svg>
