<svg width="25" height="25" viewBox="0 0 25 25" fill="none" xmlns="http://www.w3.org/2000/svg">
<path d="M19.7466 14.6464L19.7413 14.6518L19.7361 14.6573C18.9758 15.4652 17.2938 16.7365 15.7336 17.8563C14.9619 18.4102 14.2333 18.9177 13.6833 19.3006L13.6403 19.3305C13.3849 19.5083 13.1686 19.6588 13.0085 19.772C12.9241 19.8316 12.8528 19.8826 12.7985 19.9227L12.7978 19.9232C12.7782 19.9377 12.7519 19.9571 12.725 19.9784C12.5338 20.0723 12.4545 20.1 12.4002 20.1C12.3459 20.1 12.2669 20.0724 12.0765 19.9789C12.0506 19.9582 12.0252 19.9391 12.0056 19.9243C11.9514 19.8836 11.8804 19.8317 11.796 19.7708C11.6269 19.6487 11.3955 19.4842 11.121 19.2892L11.0463 19.2362C10.5055 18.8521 9.80701 18.3561 9.06889 17.8203C7.50964 16.6886 5.82015 15.4128 5.05375 14.6464C3.38927 12.982 3.2002 11.1412 3.2002 9.9C3.2002 7.18213 5.47031 5 8.10019 5C9.72787 5 11.1807 5.81293 12.0933 7.09062L12.5002 7.66023L12.9071 7.09062C13.8261 5.8039 15.2827 5 16.7002 5C19.4241 5 21.6002 7.17614 21.6002 9.9C21.6002 11.1412 21.4111 12.982 19.7466 14.6464Z" stroke="#717171"/>
</svg>
