<svg width="23" height="22" viewBox="0 0 23 22" fill="none" xmlns="http://www.w3.org/2000/svg">
<g clip-path="url(#clip0_157_1445)">
<path d="M11.1255 4.46875H10.951C10.8766 4.37458 10.8268 4.26336 10.8062 4.14514C10.7855 4.02691 10.7946 3.9054 10.8326 3.79157C11.0425 3.50998 11.156 3.16823 11.1562 2.81704V1.65172C11.1542 1.21222 10.9778 0.791492 10.6659 0.481842C10.354 0.172192 9.93201 -0.00109277 9.4925 4.60865e-06H9.3825C8.94299 -0.00109277 8.521 0.172192 8.20909 0.481842C7.89719 0.791492 7.72084 1.21222 7.71875 1.65172V2.81704C7.71898 3.16821 7.83241 3.50995 8.04222 3.79157C8.08027 3.90539 8.08938 4.02689 8.06874 4.14512C8.04809 4.26334 7.99834 4.37456 7.92397 4.46875H7.74952C6.69008 4.46875 5.82812 5.38227 5.82812 6.5053V13.2767C5.82935 13.4943 5.91685 13.7025 6.07141 13.8557C6.22598 14.0089 6.435 14.0945 6.65261 14.0938H6.6875V20.7969C6.6875 21.116 6.81426 21.422 7.03989 21.6476C7.26552 21.8732 7.57154 22 7.89062 22C8.20971 22 8.51573 21.8732 8.74136 21.6476C8.96699 21.422 9.09375 21.116 9.09375 20.7969V14.0938H9.78125V20.7969C9.78125 21.116 9.90801 21.422 10.1336 21.6476C10.3593 21.8732 10.6653 22 10.9844 22C11.3035 22 11.6095 21.8732 11.8351 21.6476C12.0607 21.422 12.1875 21.116 12.1875 20.7969V14.0938H12.2224C12.44 14.0945 12.649 14.0089 12.8036 13.8557C12.9582 13.7025 13.0456 13.4943 13.0469 13.2767V6.50547C13.0469 5.38227 12.1849 4.46875 11.1255 4.46875ZM8.73006 4.33607C8.93639 4.42379 9.1583 4.46892 9.3825 4.46875H9.4925C9.7167 4.46892 9.93861 4.42379 10.1449 4.33607C10.1603 4.41364 10.1827 4.48964 10.212 4.56311C10.1937 4.57986 10.1774 4.59853 10.1632 4.6188L9.4375 5.68288L8.71184 4.6188C8.69758 4.59852 8.68115 4.57985 8.66286 4.56311C8.69209 4.4897 8.71453 4.41375 8.72989 4.33624L8.73006 4.33607ZM8.40625 1.65172C8.40816 1.3945 8.51201 1.14853 8.69502 0.967774C8.87804 0.787016 9.12527 0.686223 9.3825 0.687505H9.4925C9.74973 0.686223 9.99696 0.787016 10.18 0.967774C10.363 1.14853 10.4668 1.3945 10.4688 1.65172V2.81704C10.4668 3.07426 10.363 3.32023 10.18 3.50098C9.99696 3.68174 9.74973 3.78254 9.4925 3.78125H9.3825C9.12527 3.78254 8.87804 3.68174 8.69502 3.50098C8.51201 3.32023 8.40816 3.07426 8.40625 2.81704V1.65172ZM8.40625 20.7969C8.40625 20.9336 8.35193 21.0648 8.25523 21.1615C8.15853 21.2582 8.02738 21.3125 7.89062 21.3125C7.75387 21.3125 7.62272 21.2582 7.52602 21.1615C7.42932 21.0648 7.375 20.9336 7.375 20.7969V14.0938H8.40625V20.7969ZM11.5 20.7969C11.5 20.9336 11.4457 21.0648 11.349 21.1615C11.2523 21.2582 11.1211 21.3125 10.9844 21.3125C10.8476 21.3125 10.7165 21.2582 10.6198 21.1615C10.5231 21.0648 10.4688 20.9336 10.4688 20.7969V14.0938H11.5V20.7969ZM12.3594 13.2767C12.3583 13.312 12.3433 13.3455 12.3177 13.3698C12.292 13.3941 12.2577 13.4072 12.2224 13.4063H11.3281V12.375C11.3281 12.2838 11.2919 12.1964 11.2274 12.1319C11.163 12.0675 11.0755 12.0313 10.9844 12.0313C10.8932 12.0313 10.8058 12.0675 10.7413 12.1319C10.6768 12.1964 10.6406 12.2838 10.6406 12.375V13.4063H8.23438V12.375C8.23438 12.2838 8.19816 12.1964 8.13369 12.1319C8.06923 12.0675 7.98179 12.0313 7.89062 12.0313C7.79946 12.0313 7.71202 12.0675 7.64756 12.1319C7.58309 12.1964 7.54688 12.2838 7.54688 12.375V13.4063H6.65261C6.61727 13.4072 6.58301 13.3941 6.55734 13.3698C6.53166 13.3455 6.51666 13.312 6.51562 13.2767V6.50547C6.51562 5.76125 7.06906 5.15625 7.74952 5.15625H8.24623L9.02878 6.30386C9.07178 6.36416 9.12625 6.41538 9.18907 6.45461C9.25189 6.49383 9.32182 6.52029 9.39487 6.53246C9.48311 6.53444 9.57047 6.51461 9.6492 6.47473C9.72793 6.43486 9.79561 6.37617 9.84622 6.30386L10.6286 5.15625H11.1253C11.8059 5.15625 12.3594 5.76125 12.3594 6.5053V13.2767ZM15.4531 4.29688H16.1406C16.2318 4.29688 16.3192 4.26066 16.3837 4.1962C16.4482 4.13173 16.4844 4.0443 16.4844 3.95313C16.4844 3.86196 16.4482 3.77453 16.3837 3.71006C16.3192 3.6456 16.2318 3.60938 16.1406 3.60938H15.4531C15.362 3.60938 15.2745 3.6456 15.2101 3.71006C15.1456 3.77453 15.1094 3.86196 15.1094 3.95313C15.1094 4.0443 15.1456 4.13173 15.2101 4.1962C15.2745 4.26066 15.362 4.29688 15.4531 4.29688ZM15.4531 7.21875H16.1406C16.2318 7.21875 16.3192 7.18254 16.3837 7.11807C16.4482 7.05361 16.4844 6.96617 16.4844 6.875C16.4844 6.78384 16.4482 6.6964 16.3837 6.63194C16.3192 6.56747 16.2318 6.53125 16.1406 6.53125H15.4531C15.362 6.53125 15.2745 6.56747 15.2101 6.63194C15.1456 6.6964 15.1094 6.78384 15.1094 6.875C15.1094 6.96617 15.1456 7.05361 15.2101 7.11807C15.2745 7.18254 15.362 7.21875 15.4531 7.21875ZM15.4531 8.59375H16.1406C16.2318 8.59375 16.3192 8.55754 16.3837 8.49307C16.4482 8.42861 16.4844 8.34117 16.4844 8.25C16.4844 8.15884 16.4482 8.0714 16.3837 8.00694C16.3192 7.94247 16.2318 7.90625 16.1406 7.90625H15.4531C15.362 7.90625 15.2745 7.94247 15.2101 8.00694C15.1456 8.0714 15.1094 8.15884 15.1094 8.25C15.1094 8.34117 15.1456 8.42861 15.2101 8.49307C15.2745 8.55754 15.362 8.59375 15.4531 8.59375ZM15.4531 11.5156H16.1406C16.2318 11.5156 16.3192 11.4794 16.3837 11.4149C16.4482 11.3505 16.4844 11.263 16.4844 11.1719C16.4844 11.0807 16.4482 10.9933 16.3837 10.9288C16.3192 10.8643 16.2318 10.8281 16.1406 10.8281H15.4531C15.362 10.8281 15.2745 10.8643 15.2101 10.9288C15.1456 10.9933 15.1094 11.0807 15.1094 11.1719C15.1094 11.263 15.1456 11.3505 15.2101 11.4149C15.2745 11.4794 15.362 11.5156 15.4531 11.5156ZM15.4531 13.0625H16.1406C16.2318 13.0625 16.3192 13.0263 16.3837 12.9618C16.4482 12.8974 16.4844 12.8099 16.4844 12.7188C16.4844 12.6276 16.4482 12.5402 16.3837 12.4757C16.3192 12.4112 16.2318 12.375 16.1406 12.375H15.4531C15.362 12.375 15.2745 12.4112 15.2101 12.4757C15.1456 12.5402 15.1094 12.6276 15.1094 12.7188C15.1094 12.8099 15.1456 12.8974 15.2101 12.9618C15.2745 13.0263 15.362 13.0625 15.4531 13.0625ZM15.4531 15.9844H16.1406C16.2318 15.9844 16.3192 15.9482 16.3837 15.8837C16.4482 15.8192 16.4844 15.7318 16.4844 15.6406C16.4844 15.5495 16.4482 15.462 16.3837 15.3976C16.3192 15.3331 16.2318 15.2969 16.1406 15.2969H15.4531C15.362 15.2969 15.2745 15.3331 15.2101 15.3976C15.1456 15.462 15.1094 15.5495 15.1094 15.6406C15.1094 15.7318 15.1456 15.8192 15.2101 15.8837C15.2745 15.9482 15.362 15.9844 15.4531 15.9844ZM15.4531 17.3594H16.1406C16.2318 17.3594 16.3192 17.3232 16.3837 17.2587C16.4482 17.1942 16.4844 17.1068 16.4844 17.0156C16.4844 16.9245 16.4482 16.837 16.3837 16.7726C16.3192 16.7081 16.2318 16.6719 16.1406 16.6719H15.4531C15.362 16.6719 15.2745 16.7081 15.2101 16.7726C15.1456 16.837 15.1094 16.9245 15.1094 17.0156C15.1094 17.1068 15.1456 17.1942 15.2101 17.2587C15.2745 17.3232 15.362 17.3594 15.4531 17.3594ZM15.4531 5.67188H16.8281C16.9193 5.67188 17.0067 5.63566 17.0712 5.5712C17.1357 5.50673 17.1719 5.4193 17.1719 5.32813C17.1719 5.23696 17.1357 5.14953 17.0712 5.08506C17.0067 5.0206 16.9193 4.98438 16.8281 4.98438H15.4531C15.362 4.98438 15.2745 5.0206 15.2101 5.08506C15.1456 5.14953 15.1094 5.23696 15.1094 5.32813C15.1094 5.4193 15.1456 5.50673 15.2101 5.5712C15.2745 5.63566 15.362 5.67188 15.4531 5.67188ZM16.8281 9.45313H15.4531C15.362 9.45313 15.2745 9.48935 15.2101 9.55381C15.1456 9.61828 15.1094 9.70571 15.1094 9.79688C15.1094 9.88805 15.1456 9.97548 15.2101 10.0399C15.2745 10.1044 15.362 10.1406 15.4531 10.1406H16.8281C16.9193 10.1406 17.0067 10.1044 17.0712 10.0399C17.1357 9.97548 17.1719 9.88805 17.1719 9.79688C17.1719 9.70571 17.1357 9.61828 17.0712 9.55381C17.0067 9.48935 16.9193 9.45313 16.8281 9.45313ZM16.8281 13.75H15.4531C15.362 13.75 15.2745 13.7862 15.2101 13.8507C15.1456 13.9152 15.1094 14.0026 15.1094 14.0938C15.1094 14.1849 15.1456 14.2724 15.2101 14.3368C15.2745 14.4013 15.362 14.4375 15.4531 14.4375H16.8281C16.9193 14.4375 17.0067 14.4013 17.0712 14.3368C17.1357 14.2724 17.1719 14.1849 17.1719 14.0938C17.1719 14.0026 17.1357 13.9152 17.0712 13.8507C17.0067 13.7862 16.9193 13.75 16.8281 13.75ZM16.8281 18.2188H15.4531C15.362 18.2188 15.2745 18.255 15.2101 18.3194C15.1456 18.3839 15.1094 18.4713 15.1094 18.5625C15.1094 18.6537 15.1456 18.7411 15.2101 18.8056C15.2745 18.87 15.362 18.9063 15.4531 18.9063H16.8281C16.9193 18.9063 17.0067 18.87 17.0712 18.8056C17.1357 18.7411 17.1719 18.6537 17.1719 18.5625C17.1719 18.4713 17.1357 18.3839 17.0712 18.3194C17.0067 18.255 16.9193 18.2188 16.8281 18.2188ZM16.1406 19.5938H15.4531C15.362 19.5938 15.2745 19.63 15.2101 19.6944C15.1456 19.7589 15.1094 19.8463 15.1094 19.9375C15.1094 20.0287 15.1456 20.1161 15.2101 20.1806C15.2745 20.245 15.362 20.2813 15.4531 20.2813H16.1406C16.2318 20.2813 16.3192 20.245 16.3837 20.1806C16.4482 20.1161 16.4844 20.0287 16.4844 19.9375C16.4844 19.8463 16.4482 19.7589 16.3837 19.6944C16.3192 19.63 16.2318 19.5938 16.1406 19.5938ZM14.3858 0.189926C14.3573 0.132724 14.3134 0.0846026 14.259 0.0509664C14.2047 0.0173303 14.142 -0.000488281 14.0781 -0.000488281C14.0142 -0.000488281 13.9516 0.0173303 13.8972 0.0509664C13.8429 0.0846026 13.799 0.132724 13.7705 0.189926L13.2548 1.22118C13.2218 1.2873 13.2109 1.36233 13.2238 1.43512C13.2368 1.50791 13.2728 1.57459 13.3267 1.62526C13.3805 1.67594 13.4493 1.7079 13.5227 1.71641C13.5961 1.72493 13.6704 1.70953 13.7344 1.67252V21.6563C13.7344 21.7474 13.7706 21.8349 13.8351 21.8993C13.8995 21.9638 13.987 22 14.0781 22C14.1693 22 14.2567 21.9638 14.3212 21.8993C14.3857 21.8349 14.4219 21.7474 14.4219 21.6563V1.67166C14.4857 1.70896 14.56 1.72462 14.6335 1.71631C14.707 1.70799 14.7758 1.67614 14.8297 1.6255C14.8837 1.57487 14.9198 1.50816 14.9327 1.43533C14.9456 1.36249 14.9346 1.28744 14.9014 1.22135L14.3858 0.189926Z" fill="#63CBF2"/>
</g>
<defs>
<clipPath id="clip0_157_1445">
<rect width="22" height="22" fill="white" transform="translate(0.5)"/>
</clipPath>
</defs>
</svg>
