<svg width="19" height="18" viewBox="0 0 19 18" fill="none" xmlns="http://www.w3.org/2000/svg">
<path d="M17.4109 2.16194L18.0249 1.55657C18.1877 1.39373 18.2792 1.17286 18.2792 0.942561C18.2792 0.712263 18.1877 0.491396 18.0249 0.32855C17.862 0.165705 17.6412 0.0742187 17.4109 0.0742188C17.1806 0.0742188 16.9597 0.165705 16.7969 0.32855L15.5861 1.54792L13.1387 3.99532L7.68183 9.44359C6.78766 8.85365 5.70634 8.61663 4.64738 8.77846C3.58843 8.94028 2.62724 9.48943 1.95007 10.3195C1.2729 11.1496 0.927963 12.2015 0.98209 13.2713C1.03622 14.3412 1.48556 15.3529 2.24304 16.1104C3.00053 16.8679 4.01223 17.3172 5.08211 17.3714C6.15199 17.4255 7.20387 17.0805 8.03394 16.4034C8.86401 15.7262 9.41316 14.765 9.57498 13.7061C9.73681 12.6471 9.49979 11.5658 8.90986 10.6716L13.7441 5.8287L15.5775 7.67074C15.6581 7.7508 15.7537 7.8142 15.8589 7.85732C15.964 7.90043 16.0766 7.92241 16.1902 7.92201C16.3039 7.92161 16.4163 7.89883 16.5211 7.85497C16.626 7.81112 16.7211 7.74705 16.8012 7.66641C16.8813 7.58578 16.9447 7.49017 16.9878 7.38503C17.0309 7.2799 17.0529 7.1673 17.0525 7.05367C17.0521 6.94004 17.0293 6.8276 16.9854 6.72277C16.9416 6.61794 16.8775 6.52278 16.7969 6.44272L14.9635 4.60933L16.1915 3.38996L16.7969 3.99532C16.8769 4.07595 16.9721 4.14003 17.0769 4.18388C17.1818 4.22774 17.2942 4.25052 17.4078 4.25092C17.5215 4.25132 17.6341 4.22934 17.7392 4.18622C17.8443 4.14311 17.9399 4.07971 18.0206 3.99964C18.1012 3.91958 18.1653 3.82442 18.2091 3.71959C18.253 3.61476 18.2758 3.50232 18.2762 3.38869C18.2766 3.27506 18.2546 3.16246 18.2115 3.05733C18.1684 2.95219 18.105 2.85658 18.0249 2.77595L17.4109 2.16194ZM5.30362 15.6442C4.7905 15.6442 4.28889 15.4921 3.86224 15.207C3.43559 14.9219 3.10306 14.5167 2.9067 14.0427C2.71033 13.5686 2.65895 13.0469 2.75906 12.5437C2.85917 12.0404 3.10626 11.5781 3.4691 11.2153C3.83193 10.8525 4.29421 10.6054 4.79748 10.5053C5.30074 10.4052 5.82239 10.4565 6.29646 10.6529C6.77053 10.8493 7.17572 11.1818 7.4608 11.6084C7.74587 12.0351 7.89803 12.5367 7.89803 13.0498C7.89803 13.7379 7.6247 14.3978 7.13815 14.8843C6.6516 15.3709 5.9917 15.6442 5.30362 15.6442Z" fill="#63CBF2"/>
</svg>
