<svg width="44" height="45" viewBox="0 0 44 45" fill="none" xmlns="http://www.w3.org/2000/svg">
<rect y="0.867188" width="43.2567" height="43.2567" rx="7.31451" fill="white"/>
<path d="M15.6826 17.4678H15.3572L14.749 20.0023H16.2908L15.6826 17.4678Z" fill="#63CBF2"/>
<path d="M27.9824 22.5371C28.3108 23.2721 28.7475 23.867 29.2307 24.3733C29.714 23.867 30.2014 23.2721 30.5298 22.5371H27.9824Z" fill="#63CBF2"/>
<path d="M32.3251 15.5254H22.8821L24.8511 28.6916C24.8859 29.2301 24.7093 29.7371 24.2875 30.134L20.9531 33.3096H32.3251C33.5829 33.3096 34.6062 32.4569 34.6062 31.4087V17.4686C34.6062 16.4203 33.5829 15.5254 32.3251 15.5254ZM32.3251 22.5377H32.122C31.6894 23.6944 31.0033 24.5996 30.2902 25.3131C30.8488 25.7387 31.4461 26.0878 32.04 26.4788C32.3674 26.6972 32.4209 27.0957 32.158 27.3692C31.8963 27.6423 31.4163 27.6866 31.0895 27.4676C30.4442 27.0432 29.8386 26.6879 29.2329 26.2248C28.6273 26.6879 28.0723 27.0432 27.427 27.4676C27.1002 27.6866 26.6202 27.6423 26.3585 27.3692C26.0956 27.0957 26.1491 26.6972 26.4766 26.4788C27.0704 26.0878 27.617 25.7387 28.1756 25.3131C27.4626 24.5996 26.8271 23.6945 26.3945 22.5377H26.1914C25.7711 22.5377 25.4311 22.2543 25.4311 21.9041C25.4311 21.5538 25.7711 21.2704 26.1914 21.2704H28.4725V20.6368C28.4725 20.2865 28.8126 20.0031 29.2329 20.0031C29.6532 20.0031 29.9933 20.2865 29.9933 20.6368V21.2704H32.3251C32.7454 21.2704 33.0855 21.5538 33.0855 21.9041C33.0855 22.2543 32.7454 22.5377 32.3251 22.5377Z" fill="#63CBF2"/>
<path d="M21.0274 13.3468C20.8856 12.3976 19.9121 11.6816 18.7641 11.6816H10.9315C9.67365 11.6816 8.65039 12.5344 8.65039 13.5826V27.6072C8.65039 28.6554 9.67365 29.5081 10.9315 29.5081C15.477 29.5081 18.747 29.5081 22.9226 29.5081C23.1444 29.2968 23.3304 29.1645 23.3382 28.8887C23.3402 28.8196 21.0377 13.4154 21.0274 13.3468ZM17.9748 23.793C17.5716 23.8621 17.1632 23.644 17.08 23.2961L16.594 21.2708H14.4442L13.9582 23.2961C13.8765 23.6389 13.48 23.8641 13.0634 23.793C12.6521 23.7243 12.3847 23.3908 12.4672 23.0473L13.9878 16.7109C14.0591 16.4151 14.371 16.2016 14.7334 16.2016H16.3048C16.6671 16.2016 16.979 16.4151 17.0503 16.7109L18.5711 23.0473C18.6535 23.3908 18.3862 23.7243 17.9748 23.793Z" fill="#63CBF2"/>
<path d="M17.5342 30.7744L17.6647 31.6438C17.7516 32.226 18.2159 32.8198 18.9795 33.1162C20.4205 31.7943 19.5487 32.594 21.5323 30.7744H17.5342Z" fill="#63CBF2"/>
</svg>
