<svg width="22" height="22" viewBox="0 0 22 22" fill="none" xmlns="http://www.w3.org/2000/svg">
<path d="M11.2669 4.49818C11.6056 4.14486 11.9216 3.77341 12.2807 3.44726C14.22 1.68403 16.8264 1.3341 18.8506 2.55149C20.936 3.80625 21.9849 6.44487 21.3642 8.94307C20.8012 11.2114 19.4317 13.0018 17.8855 14.6744C15.995 16.7197 13.8111 18.4263 11.5648 20.0559C11.4244 20.1578 11.1095 20.2087 10.9928 20.1238C7.9072 17.877 4.90317 15.534 2.69318 12.3552C1.70317 10.9328 0.953289 9.39719 0.918174 7.61357C0.871731 5.26259 2.19817 3.11092 4.1952 2.24912C6.19903 1.38393 8.6197 1.91392 10.3324 3.59222C10.6258 3.87986 10.9226 4.16411 11.2669 4.49818Z" fill="#63CBF2"/>
</svg>
