<svg width="22" height="22" viewBox="0 0 22 22" fill="none" xmlns="http://www.w3.org/2000/svg">
<path d="M10.9183 4.85681L11.2793 5.20706L11.6274 4.84394C11.7494 4.71662 11.8617 4.59494 11.9698 4.47776C12.187 4.24239 12.3873 4.0252 12.6164 3.81714L12.6166 3.81696C14.4156 2.18128 16.7829 1.89147 18.5924 2.97967C20.4777 4.11404 21.4497 6.52329 20.8785 8.82226L20.8784 8.82239C20.3467 10.9649 19.0487 12.6788 17.5179 14.3348L17.8851 14.6742L17.5179 14.3348C15.6641 16.3402 13.5158 18.0218 11.2798 19.6444C11.2794 19.6445 11.2789 19.6447 11.2785 19.6449C11.2759 19.646 11.2723 19.6474 11.2678 19.649C11.2513 19.6547 11.2306 19.6599 11.2095 19.6632C8.15359 17.4353 5.24278 15.147 3.10323 12.0695L3.10307 12.0693C2.13914 10.6844 1.44993 9.24604 1.41759 7.60348L1.41759 7.60345C1.3748 5.4374 2.59848 3.48229 4.39282 2.70796L4.39291 2.70792C6.1875 1.93306 8.39575 2.39474 9.98197 3.9491C10.1688 4.13232 10.3584 4.31545 10.5592 4.50943C10.6746 4.62094 10.7938 4.73604 10.9183 4.85681Z" stroke="#63CBF2"/>
</svg>
