<svg width="14" height="14" viewBox="0 0 14 14" fill="none" xmlns="http://www.w3.org/2000/svg">
<path d="M9.71382 5.50748V4.51246C9.71382 3.11943 8.51979 2.0249 7.00012 2.0249C5.48045 2.0249 4.28642 3.11943 4.28642 4.51246V5.50748C3.36376 5.50748 2.6582 6.15425 2.6582 7.00002V10.4826C2.6582 11.3284 3.36376 11.9751 4.28642 11.9751H9.71382C10.6365 11.9751 11.342 11.3284 11.342 10.4826V7.00002C11.342 6.15425 10.6365 5.50748 9.71382 5.50748ZM5.3719 4.51246C5.3719 3.66669 6.07746 3.01993 7.00012 3.01993C7.92278 3.01993 8.62834 3.66669 8.62834 4.51246V5.50748H5.3719V4.51246ZM7.54286 9.48758C7.54286 9.78608 7.32577 9.98509 7.00012 9.98509C6.67448 9.98509 6.45738 9.78608 6.45738 9.48758V7.99504C6.45738 7.69653 6.67448 7.49753 7.00012 7.49753C7.32577 7.49753 7.54286 7.69653 7.54286 7.99504V9.48758Z" fill="#63CBF2"/>
</svg>
