<svg width="18" height="19" viewBox="0 0 18 19" fill="none" xmlns="http://www.w3.org/2000/svg">
<path d="M12.7746 15.2667L12.7751 15.2667C12.8468 15.2663 12.9173 15.2487 12.9809 15.2154C13.0444 15.1822 13.0991 15.1342 13.1406 15.0756C13.1821 15.0169 13.2091 14.9492 13.2196 14.8781C13.2301 14.807 13.2238 14.7344 13.2011 14.6662L13.2009 14.6657L8.64362 1.20734L8.64361 1.20731C8.6133 1.11789 8.55602 1.0401 8.4796 0.984932C8.40317 0.929751 8.31145 0.900005 8.21727 0.9H2.60828C1.58594 0.9 0.755469 1.74049 0.755469 2.77083L0.755469 13.3958L0.755469 13.396C0.756056 13.8916 0.951194 14.367 1.2984 14.7177C1.64564 15.0685 2.11664 15.2661 2.60816 15.2667H2.60828L12.7746 15.2667ZM1.65659 2.77083C1.65659 2.2393 2.08464 1.80833 2.60828 1.80833H7.89525L12.1444 14.3583H2.60828C2.08464 14.3583 1.65659 13.9274 1.65659 13.3958V2.77083Z" fill="#797C7B" stroke="#797C7B" stroke-width="0.2"/>
<path d="M9.89837 17.8051L9.89834 17.805L8.84669 14.9717L9.89837 17.8051ZM9.89837 17.8051C9.93051 17.8914 9.988 17.9659 10.0634 18.0186C10.1387 18.0714 10.2283 18.0997 10.3202 18.0997H15.9292C16.9515 18.0997 17.782 17.2592 17.782 16.2288V5.60384C17.782 4.5735 16.9515 3.73301 15.9292 3.73301H9.26853C9.1487 3.73301 9.03399 3.78111 8.94957 3.86639C8.86519 3.95164 8.81797 4.06705 8.81797 4.18717C8.81797 4.3073 8.86519 4.42271 8.94957 4.50796C9.03399 4.59324 9.1487 4.64134 9.26853 4.64134H15.9292C16.4528 4.64134 16.8809 5.07231 16.8809 5.60384V16.2288C16.8809 16.7604 16.4528 17.1913 15.9292 17.1913H10.633L9.6904 14.6527L9.69037 14.6526M9.89837 17.8051L9.69037 14.6526M9.69037 14.6526C9.64848 14.5401 9.56391 14.4486 9.45494 14.3987C9.34594 14.3488 9.22168 14.3446 9.10962 14.3872C8.99758 14.4298 8.90719 14.5154 8.85802 14.625L8.94926 14.6659M9.69037 14.6526L8.94926 14.6659M8.94926 14.6659L8.85802 14.625M8.94926 14.6659L8.85802 14.625M8.85802 14.625C8.80888 14.7345 8.8048 14.8591 8.84665 14.9716L8.85802 14.625Z" fill="#797C7B" stroke="#797C7B" stroke-width="0.2"/>
<path d="M12.5112 14.5785L12.4356 14.513C12.4745 14.4681 12.5219 14.4312 12.575 14.4047C12.6281 14.3782 12.6859 14.3624 12.7452 14.3585C12.8044 14.3545 12.8638 14.3623 12.9199 14.3815L12.8876 14.4762L12.9199 14.3815C12.9761 14.4007 13.0279 14.4309 13.0724 14.4703C13.1169 14.5096 13.1533 14.5574 13.1794 14.6108C13.2056 14.6643 13.221 14.7223 13.225 14.7817C13.2289 14.8411 13.2212 14.9008 13.2023 14.9572C13.1834 15.0136 13.1536 15.0658 13.1147 15.1107C13.1147 15.1107 13.1147 15.1107 13.1147 15.1107L10.6608 17.9441L10.6607 17.9441C10.6184 17.9929 10.5662 18.032 10.5076 18.0589L10.466 17.968L10.5076 18.0589C10.449 18.0857 10.3854 18.0997 10.321 18.0997C10.2341 18.0998 10.1491 18.0745 10.0762 18.0271C10.0033 17.9796 9.94569 17.9121 9.91005 17.8326C9.87442 17.7531 9.86225 17.665 9.87495 17.5788C9.88763 17.4927 9.92464 17.412 9.98167 17.3463L12.5112 14.5785ZM12.5112 14.5785L12.4356 14.513L9.9818 17.3462L12.5112 14.5785ZM7.51657 11.0164H7.51654C7.42326 11.0165 7.33232 10.9874 7.25626 10.9333L7.31427 10.8518L7.25626 10.9333C7.18025 10.8791 7.12287 10.8027 7.09185 10.7145L7.09187 10.7145L7.18615 10.6812L7.09181 10.7144L5.76357 6.95719L4.43529 10.7145L4.43528 10.7145L4.34099 10.6812C4.30975 10.7697 4.245 10.842 4.16098 10.8823C4.07696 10.9225 3.98056 10.9274 3.89298 10.8958C3.80539 10.8643 3.73381 10.7989 3.69397 10.714L7.51657 11.0164ZM7.51657 11.0164C7.58887 11.0162 7.66003 10.9986 7.72407 10.9649C7.7881 10.9312 7.84309 10.8826 7.8845 10.8232C7.9259 10.7637 7.95252 10.6952 7.9622 10.6233C7.97188 10.5514 7.96434 10.4783 7.94021 10.4099L7.94019 10.4099L6.18747 5.45178C6.18746 5.45176 6.18745 5.45174 6.18745 5.45172M7.51657 11.0164L6.18745 5.45172M6.18745 5.45172L6.18738 5.45155L6.0931 5.48487L6.18745 5.45172Z" fill="#797C7B" stroke="#797C7B" stroke-width="0.2"/>
<path d="M5.0615 8.89134H6.46375C6.58358 8.89134 6.69829 8.84324 6.7827 8.75796C6.86709 8.67271 6.91431 8.5573 6.91431 8.43717C6.91431 8.31705 6.86709 8.20164 6.7827 8.11639C6.69829 8.03111 6.58358 7.98301 6.46375 7.98301H5.0615C4.94167 7.98301 4.82696 8.03111 4.74254 8.11639C4.65816 8.20164 4.61094 8.31705 4.61094 8.43717C4.61094 8.5573 4.65816 8.67271 4.74254 8.75796C4.82696 8.84324 4.94167 8.89134 5.0615 8.89134ZM11.0211 8.89134H15.9289C16.0487 8.89134 16.1635 8.84324 16.2479 8.75796C16.3323 8.67271 16.3795 8.5573 16.3795 8.43717C16.3795 8.31705 16.3323 8.20164 16.2479 8.11639C16.1635 8.03111 16.0487 7.98301 15.9289 7.98301H11.0211C10.9012 7.98301 10.7865 8.03111 10.7021 8.11639C10.6177 8.20164 10.5705 8.31705 10.5705 8.43717C10.5705 8.5573 10.6177 8.67271 10.7021 8.75796C10.7865 8.84324 10.9012 8.89134 11.0211 8.89134Z" fill="#797C7B" stroke="#797C7B" stroke-width="0.2"/>
<path d="M12.3349 13.059L12.3349 13.059C12.2586 13.1127 12.1678 13.1416 12.0746 13.1417M12.3349 13.059L11.6419 12.8265M12.3349 13.059L12.3357 13.0584C13.1504 12.4733 13.8967 11.5601 14.4386 10.6791C14.71 10.2379 14.9317 9.80236 15.0858 9.41673C15.2389 9.03372 15.3291 8.69092 15.3291 8.43821C15.3291 8.31808 15.2819 8.20268 15.1975 8.11743C15.1131 8.03214 14.9983 7.98404 14.8785 7.98404C14.7587 7.98404 14.644 8.03214 14.5596 8.11743C14.4752 8.20268 14.428 8.31808 14.428 8.43821C14.428 8.57018 14.3649 8.80972 14.2361 9.12265C14.1091 9.43124 13.9233 9.7993 13.6894 10.1834C13.221 10.9529 12.5651 11.7776 11.8128 12.3177C11.7341 12.3731 11.6751 12.4523 11.6444 12.5437C11.6137 12.6353 11.6128 12.7344 11.6419 12.8265M12.3349 13.059L11.6419 12.8265M12.0746 13.1417C11.9784 13.1427 11.8846 13.1126 11.8068 13.0559C11.7288 12.9991 11.6711 12.9187 11.6419 12.8265M12.0746 13.1417C12.0744 13.1417 12.0742 13.1417 12.074 13.1417L12.074 13.0417L12.0752 13.1417C12.075 13.1417 12.0748 13.1417 12.0746 13.1417ZM12.8068 8.75828C12.8912 8.84357 13.0059 8.89167 13.1257 8.89167C13.2455 8.89167 13.3602 8.84357 13.4447 8.75828C13.529 8.67303 13.5763 8.55762 13.5763 8.4375V7.72917C13.5763 7.60904 13.529 7.49363 13.4447 7.40838C13.3602 7.3231 13.2455 7.275 13.1257 7.275C13.0059 7.275 12.8912 7.3231 12.8068 7.40838C12.7224 7.49363 12.6751 7.60904 12.6751 7.72917V8.4375C12.6751 8.55762 12.7224 8.67303 12.8068 8.75828Z" fill="#797C7B" stroke="#797C7B" stroke-width="0.2"/>
<path d="M11.654 10.3756L11.654 10.3756C11.6139 10.2652 11.6178 10.1435 11.665 10.036C11.7121 9.92838 11.7989 9.84322 11.9073 9.79874C12.0157 9.75424 12.1371 9.75406 12.2457 9.79823C12.3543 9.84239 12.4413 9.9273 12.4888 10.0347L12.4901 10.0378L12.4901 10.0378C12.5559 10.2015 12.7121 10.434 12.9285 10.7062C13.1429 10.9759 13.4098 11.2767 13.6894 11.5755C14.2484 12.1728 14.8542 12.7576 15.182 13.061C15.182 13.061 15.182 13.061 15.182 13.061L15.1141 13.1344C15.1663 13.1826 15.2028 13.2456 15.2189 13.3152C15.235 13.3847 15.2299 13.4576 15.2043 13.5242C15.1787 13.5907 15.1337 13.6479 15.0753 13.6882C15.0169 13.7285 14.9479 13.75 14.8772 13.7499L11.654 10.3756ZM11.654 10.3756L11.6553 10.3788C11.7606 10.6407 11.9832 10.9666 12.254 11.3065C12.5265 11.6486 12.854 12.0124 13.1758 12.3513C13.8193 13.0291 14.4445 13.6119 14.5728 13.7304L11.654 10.3756Z" fill="#797C7B" stroke="#797C7B" stroke-width="0.2"/>
</svg>
