<svg width="21" height="21" viewBox="0 0 21 21" fill="none" xmlns="http://www.w3.org/2000/svg">
<path d="M15.1067 17.4436H3.02371C2.47139 17.4429 1.94189 17.2232 1.55134 16.8326C1.16079 16.4421 0.941091 15.9126 0.94043 15.3603L0.94043 2.86062C0.94043 1.71232 1.8754 0.777344 3.02371 0.777344H9.6902C9.77706 0.777349 9.86174 0.8045 9.93242 0.855001C10.0031 0.905502 10.0562 0.976827 10.0844 1.059L15.5009 16.8919C15.522 16.9546 15.5279 17.0215 15.5181 17.0869C15.5084 17.1524 15.4832 17.2146 15.4447 17.2684C15.4063 17.3223 15.3556 17.3662 15.2968 17.3967C15.238 17.4271 15.1729 17.4432 15.1067 17.4436ZM3.02371 1.61065C2.33456 1.61065 1.77374 2.17147 1.77374 2.86062V15.3603C1.77374 16.0494 2.33456 16.6102 3.02371 16.6102H14.5234L9.3927 1.61065H3.02371Z" fill="#63CBF2"/>
<path d="M18.8575 20.7775H12.191C12.1063 20.7775 12.0236 20.7517 11.9539 20.7035C11.8842 20.6552 11.8309 20.5869 11.801 20.5076L10.5511 17.1743C10.5122 17.0709 10.516 16.9562 10.5616 16.8556C10.6072 16.7549 10.691 16.6766 10.7944 16.6377C10.8978 16.5988 11.0125 16.6025 11.1131 16.6482C11.2138 16.6938 11.2922 16.7775 11.3311 16.881L12.4802 19.9442H18.8575C19.5467 19.9442 20.1075 19.3834 20.1075 18.6943V6.1946C20.1075 5.50546 19.5467 4.94464 18.8575 4.94464H10.9411C10.8306 4.94464 10.7246 4.90074 10.6464 4.8226C10.5683 4.74447 10.5244 4.63849 10.5244 4.52798C10.5244 4.41748 10.5683 4.3115 10.6464 4.23336C10.7246 4.15523 10.8306 4.11133 10.9411 4.11133H18.8575C20.0058 4.11133 20.9408 5.0463 20.9408 6.1946V18.6943C20.9408 19.8426 20.0058 20.7775 18.8575 20.7775Z" fill="#63CBF2"/>
<path d="M12.1909 20.7769C12.1108 20.7769 12.0323 20.7539 11.965 20.7105C11.8976 20.667 11.8442 20.6051 11.8111 20.5321C11.778 20.4591 11.7667 20.3781 11.7785 20.2989C11.7903 20.2196 11.8247 20.1454 11.8776 20.0852L14.7942 16.752C14.8302 16.7108 14.8741 16.6771 14.9231 16.6528C14.9722 16.6285 15.0256 16.6142 15.0802 16.6105C15.1349 16.6069 15.1897 16.6141 15.2415 16.6316C15.2934 16.6492 15.3413 16.6767 15.3825 16.7128C15.4237 16.7489 15.4574 16.7927 15.4817 16.8418C15.5059 16.8908 15.5203 16.9442 15.5239 16.9988C15.5276 17.0535 15.5204 17.1083 15.5029 17.1602C15.4853 17.212 15.4577 17.2599 15.4217 17.3011L12.5051 20.6344C12.4659 20.6791 12.4175 20.7149 12.3634 20.7395C12.3092 20.7641 12.2504 20.7768 12.1909 20.7769ZM8.85768 12.4437C8.77168 12.4439 8.68775 12.4173 8.61746 12.3678C8.54717 12.3183 8.49397 12.2481 8.46519 12.1671L6.7744 7.43305L5.08361 12.1671C5.04648 12.2712 4.96952 12.3563 4.86966 12.4036C4.7698 12.451 4.65522 12.4567 4.55113 12.4196C4.44703 12.3825 4.36195 12.3055 4.3146 12.2056C4.26725 12.1058 4.26151 11.9912 4.29863 11.8871L6.38191 6.05392C6.50024 5.72226 7.04856 5.72226 7.16606 6.05392L9.24933 11.8871C9.27174 11.9499 9.27875 12.0172 9.26975 12.0833C9.26076 12.1493 9.23604 12.2123 9.19766 12.2668C9.15929 12.3214 9.10838 12.3659 9.04922 12.3967C8.99006 12.4275 8.92437 12.4436 8.85768 12.4437Z" fill="#63CBF2"/>
<path d="M7.60769 9.94513H5.94107C5.83057 9.94513 5.72459 9.90123 5.64645 9.82309C5.56831 9.74495 5.52441 9.63898 5.52441 9.52847C5.52441 9.41797 5.56831 9.31199 5.64645 9.23385C5.72459 9.15571 5.83057 9.11182 5.94107 9.11182H7.60769C7.71819 9.11182 7.82417 9.15571 7.90231 9.23385C7.98045 9.31199 8.02435 9.41797 8.02435 9.52847C8.02435 9.63898 7.98045 9.74495 7.90231 9.82309C7.82417 9.90123 7.71819 9.94513 7.60769 9.94513ZM18.8574 9.94513H13.0242C12.9137 9.94513 12.8077 9.90123 12.7296 9.82309C12.6515 9.74495 12.6076 9.63898 12.6076 9.52847C12.6076 9.41797 12.6515 9.31199 12.7296 9.23385C12.8077 9.15571 12.9137 9.11182 13.0242 9.11182H18.8574C18.9679 9.11182 19.0739 9.15571 19.152 9.23385C19.2301 9.31199 19.274 9.41797 19.274 9.52847C19.274 9.63898 19.2301 9.74495 19.152 9.82309C19.0739 9.90123 18.9679 9.94513 18.8574 9.94513Z" fill="#63CBF2"/>
<path d="M15.5244 9.94397C15.4139 9.94397 15.3079 9.90007 15.2298 9.82193C15.1516 9.74379 15.1077 9.63781 15.1077 9.52731V8.694C15.1077 8.5835 15.1516 8.47752 15.2298 8.39938C15.3079 8.32124 15.4139 8.27734 15.5244 8.27734C15.6349 8.27734 15.7409 8.32124 15.819 8.39938C15.8971 8.47752 15.941 8.5835 15.941 8.694V9.52731C15.941 9.63781 15.8971 9.74379 15.819 9.82193C15.7409 9.90007 15.6349 9.94397 15.5244 9.94397ZM14.2744 14.9438C14.1856 14.9449 14.0988 14.9174 14.0268 14.8655C13.9547 14.8135 13.9013 14.7399 13.8742 14.6553C13.8472 14.5707 13.848 14.4796 13.8765 14.3955C13.905 14.3114 13.9598 14.2387 14.0328 14.188C15.8569 12.8922 17.191 10.249 17.191 9.52814C17.191 9.41764 17.2349 9.31166 17.313 9.23352C17.3912 9.15539 17.4972 9.11149 17.6077 9.11149C17.7182 9.11149 17.8241 9.15539 17.9023 9.23352C17.9804 9.31166 18.0243 9.41764 18.0243 9.52814C18.0243 10.6264 16.4185 13.5155 14.5161 14.868C14.4452 14.9174 14.3608 14.9439 14.2744 14.9438Z" fill="#63CBF2"/>
<path d="M17.6059 15.7772C17.5019 15.7776 17.4015 15.7386 17.3251 15.668C17.0226 15.3913 14.3602 12.9322 13.8868 11.7673C13.8496 11.6658 13.8532 11.5539 13.897 11.4551C13.9407 11.3563 14.0211 11.2783 14.1212 11.2376C14.2214 11.197 14.3334 11.1968 14.4336 11.2372C14.5338 11.2775 14.6145 11.3553 14.6585 11.4539C14.9993 12.2931 17.1051 14.3364 17.8876 15.053C17.9496 15.1097 17.993 15.1839 18.0121 15.2657C18.0313 15.3475 18.0252 15.4332 17.9947 15.5115C17.9643 15.5899 17.9108 15.6571 17.8414 15.7045C17.7721 15.7519 17.69 15.7773 17.6059 15.7772Z" fill="#63CBF2"/>
</svg>
