<svg width="61" height="76" viewBox="0 0 61 76" fill="none" xmlns="http://www.w3.org/2000/svg">
<path fill-rule="evenodd" clip-rule="evenodd" d="M38.0679 0.379883C43.0875 0.379883 45.5967 0.379883 48.2988 1.23405C51.2487 2.3078 53.5721 4.63113 54.6458 7.58113C55.5 10.2828 55.5 12.7928 55.5 17.812V32.9478C55.5 37.9674 55.5 40.4766 54.6458 43.1786C53.5721 46.1286 51.2487 48.452 48.2988 49.5253C45.5967 50.3799 43.0875 50.3799 38.0679 50.3799H22.9321C17.9125 50.3799 15.4029 50.3799 12.7013 49.5253C9.75125 48.452 7.42792 46.1286 6.35417 43.1786C5.5 40.4766 5.5 37.9674 5.5 32.9478V17.812C5.5 12.7928 5.5 10.2828 6.35417 7.58113C7.42792 4.63113 9.75125 2.3078 12.7013 1.23405C15.4029 0.379883 17.9125 0.379883 22.9321 0.379883H38.0679Z" fill="url(#paint0_radial_157_2908)"/>
<path fill-rule="evenodd" clip-rule="evenodd" d="M30.084 8.77734C20.7318 8.77734 13.4824 15.6278 13.4824 24.8809C13.4824 29.7208 15.466 33.9031 18.6962 36.7918C18.9674 37.0345 19.1311 37.3745 19.1422 37.7384L19.2326 40.6915C19.2615 41.6335 20.2345 42.2464 21.0965 41.8659L24.3916 40.4113C24.671 40.2881 24.984 40.2652 25.2783 40.3462C26.7926 40.7626 28.4042 40.9844 30.084 40.9844C39.4361 40.9844 46.6855 34.1339 46.6855 24.8809C46.6855 15.6278 39.4361 8.77734 30.084 8.77734Z" fill="white"/>
<path fill-rule="evenodd" clip-rule="evenodd" d="M20.1145 29.5897L24.9912 21.8528C25.7669 20.6219 27.4281 20.3154 28.592 21.1884L32.4707 24.0974C32.8266 24.3643 33.3162 24.3629 33.6706 24.094L38.9089 20.1184C39.6081 19.5878 40.5208 20.4245 40.0529 21.167L35.1762 28.9041C34.4004 30.1349 32.7392 30.4414 31.5754 29.5684L27.6966 26.6593C27.3408 26.3924 26.8511 26.3939 26.4967 26.6628L21.2583 30.6384C20.5592 31.1689 19.6465 30.3322 20.1145 29.5897Z" fill="url(#paint1_radial_157_2908)"/>
<path d="M9.05533 62.7569V70.3799H8.05433V64.2969L5.62333 70.3799H4.73233L2.29033 64.3189V70.3799H1.28933V62.7569H2.48833L5.19433 69.1589L7.85633 62.7569H9.05533ZM16.2115 67.0249C16.2115 67.2375 16.1968 67.4209 16.1675 67.5749H11.3385C11.3605 68.2642 11.5548 68.7812 11.9215 69.1259C12.2955 69.4705 12.7502 69.6429 13.2855 69.6429C13.7695 69.6429 14.1728 69.5219 14.4955 69.2799C14.8255 69.0305 15.0272 68.7005 15.1005 68.2899H16.1675C16.0942 68.7079 15.9292 69.0819 15.6725 69.4119C15.4232 69.7419 15.0968 69.9985 14.6935 70.1819C14.2902 70.3652 13.8355 70.4569 13.3295 70.4569C12.7502 70.4569 12.2368 70.3322 11.7895 70.0829C11.3422 69.8335 10.9902 69.4779 10.7335 69.0159C10.4842 68.5465 10.3595 67.9965 10.3595 67.3659C10.3595 66.7352 10.4842 66.1852 10.7335 65.7159C10.9902 65.2465 11.3422 64.8872 11.7895 64.6379C12.2368 64.3885 12.7502 64.2639 13.3295 64.2639C13.9162 64.2639 14.4258 64.3885 14.8585 64.6379C15.2985 64.8872 15.6322 65.2209 15.8595 65.6389C16.0942 66.0569 16.2115 66.5189 16.2115 67.0249ZM15.1995 67.0909C15.2215 66.6435 15.1482 66.2695 14.9795 65.9689C14.8108 65.6682 14.5798 65.4445 14.2865 65.2979C13.9932 65.1512 13.6742 65.0779 13.3295 65.0779C12.7795 65.0779 12.3175 65.2502 11.9435 65.5949C11.5695 65.9322 11.3678 66.4309 11.3385 67.0909H15.1995ZM19.4128 64.2639C20.0948 64.2639 20.6411 64.4435 21.0518 64.8029C21.4698 65.1549 21.7228 65.6315 21.8108 66.2329H20.8538C20.8098 65.8735 20.6594 65.5802 20.4028 65.3529C20.1534 65.1182 19.8161 65.0009 19.3908 65.0009C19.0314 65.0009 18.7491 65.0889 18.5438 65.2649C18.3458 65.4335 18.2468 65.6645 18.2468 65.9579C18.2468 66.1779 18.3128 66.3575 18.4448 66.4969C18.5841 66.6289 18.7528 66.7315 18.9508 66.8049C19.1561 66.8709 19.4348 66.9442 19.7868 67.0249C20.2341 67.1275 20.5934 67.2339 20.8648 67.3439C21.1434 67.4465 21.3781 67.6152 21.5688 67.8499C21.7668 68.0845 21.8658 68.3999 21.8658 68.7959C21.8658 69.2872 21.6788 69.6869 21.3048 69.9949C20.9381 70.3029 20.4468 70.4569 19.8308 70.4569C19.1121 70.4569 18.5254 70.2845 18.0708 69.9399C17.6161 69.5952 17.3484 69.1149 17.2678 68.4989H18.2358C18.2724 68.8655 18.4301 69.1625 18.7088 69.3899C18.9948 69.6172 19.3688 69.7309 19.8308 69.7309C20.1754 69.7309 20.4431 69.6429 20.6338 69.4669C20.8318 69.2909 20.9308 69.0599 20.9308 68.7739C20.9308 68.5392 20.8611 68.3522 20.7218 68.2129C20.5824 68.0735 20.4101 67.9672 20.2048 67.8939C19.9994 67.8205 19.7171 67.7435 19.3578 67.6629C18.9104 67.5602 18.5511 67.4575 18.2798 67.3549C18.0158 67.2522 17.7884 67.0909 17.5978 66.8709C17.4144 66.6435 17.3228 66.3392 17.3228 65.9579C17.3228 65.4519 17.5098 65.0449 17.8838 64.7369C18.2578 64.4215 18.7674 64.2639 19.4128 64.2639ZM25.0954 64.2639C25.7774 64.2639 26.3237 64.4435 26.7344 64.8029C27.1524 65.1549 27.4054 65.6315 27.4934 66.2329H26.5364C26.4924 65.8735 26.3421 65.5802 26.0854 65.3529C25.8361 65.1182 25.4987 65.0009 25.0734 65.0009C24.7141 65.0009 24.4317 65.0889 24.2264 65.2649C24.0284 65.4335 23.9294 65.6645 23.9294 65.9579C23.9294 66.1779 23.9954 66.3575 24.1274 66.4969C24.2667 66.6289 24.4354 66.7315 24.6334 66.8049C24.8387 66.8709 25.1174 66.9442 25.4694 67.0249C25.9167 67.1275 26.2761 67.2339 26.5474 67.3439C26.8261 67.4465 27.0607 67.6152 27.2514 67.8499C27.4494 68.0845 27.5484 68.3999 27.5484 68.7959C27.5484 69.2872 27.3614 69.6869 26.9874 69.9949C26.6207 70.3029 26.1294 70.4569 25.5134 70.4569C24.7947 70.4569 24.2081 70.2845 23.7534 69.9399C23.2987 69.5952 23.0311 69.1149 22.9504 68.4989H23.9184C23.9551 68.8655 24.1127 69.1625 24.3914 69.3899C24.6774 69.6172 25.0514 69.7309 25.5134 69.7309C25.8581 69.7309 26.1257 69.6429 26.3164 69.4669C26.5144 69.2909 26.6134 69.0599 26.6134 68.7739C26.6134 68.5392 26.5437 68.3522 26.4044 68.2129C26.2651 68.0735 26.0927 67.9672 25.8874 67.8939C25.6821 67.8205 25.3997 67.7435 25.0404 67.6629C24.5931 67.5602 24.2337 67.4575 23.9624 67.3549C23.6984 67.2522 23.4711 67.0909 23.2804 66.8709C23.0971 66.6435 23.0054 66.3392 23.0054 65.9579C23.0054 65.4519 23.1924 65.0449 23.5664 64.7369C23.9404 64.4215 24.4501 64.2639 25.0954 64.2639ZM34.441 67.0249C34.441 67.2375 34.4263 67.4209 34.397 67.5749H29.568C29.59 68.2642 29.7843 68.7812 30.151 69.1259C30.525 69.4705 30.9797 69.6429 31.515 69.6429C31.999 69.6429 32.4023 69.5219 32.725 69.2799C33.055 69.0305 33.2567 68.7005 33.33 68.2899H34.397C34.3237 68.7079 34.1587 69.0819 33.902 69.4119C33.6527 69.7419 33.3263 69.9985 32.923 70.1819C32.5197 70.3652 32.065 70.4569 31.559 70.4569C30.9797 70.4569 30.4663 70.3322 30.019 70.0829C29.5717 69.8335 29.2197 69.4779 28.963 69.0159C28.7137 68.5465 28.589 67.9965 28.589 67.3659C28.589 66.7352 28.7137 66.1852 28.963 65.7159C29.2197 65.2465 29.5717 64.8872 30.019 64.6379C30.4663 64.3885 30.9797 64.2639 31.559 64.2639C32.1457 64.2639 32.6553 64.3885 33.088 64.6379C33.528 64.8872 33.8617 65.2209 34.089 65.6389C34.3237 66.0569 34.441 66.5189 34.441 67.0249ZM33.429 67.0909C33.451 66.6435 33.3777 66.2695 33.209 65.9689C33.0403 65.6682 32.8093 65.4445 32.516 65.2979C32.2227 65.1512 31.9037 65.0779 31.559 65.0779C31.009 65.0779 30.547 65.2502 30.173 65.5949C29.799 65.9322 29.5973 66.4309 29.568 67.0909H33.429ZM38.9293 64.2419C39.6333 64.2419 40.2016 64.4692 40.6343 64.9239C41.0669 65.3712 41.2833 66.0202 41.2833 66.8709V70.3799H40.2823V66.9589C40.2823 66.3575 40.1283 65.8955 39.8203 65.5729C39.5123 65.2502 39.0943 65.0889 38.5663 65.0889C38.0163 65.0889 37.5763 65.2685 37.2463 65.6279C36.9163 65.9799 36.7513 66.4969 36.7513 67.1789V70.3799H35.7503V64.3409H36.7513V65.7709C36.9053 65.2795 37.1766 64.9019 37.5653 64.6379C37.9613 64.3739 38.4159 64.2419 38.9293 64.2419ZM45.2936 64.2639C45.8803 64.2639 46.3753 64.4105 46.7786 64.7039C47.1893 64.9972 47.4753 65.3895 47.6366 65.8809V64.3409H48.6376V70.4789C48.6376 71.0362 48.5203 71.5312 48.2856 71.9639C48.051 72.3965 47.721 72.7339 47.2956 72.9759C46.8703 73.2179 46.3753 73.3389 45.8106 73.3389C44.9966 73.3389 44.333 73.1409 43.8196 72.7449C43.3063 72.3562 42.98 71.8282 42.8406 71.1609H43.8306C43.948 71.5642 44.168 71.8795 44.4906 72.1069C44.8206 72.3415 45.2423 72.4589 45.7556 72.4589C46.2983 72.4589 46.7456 72.2829 47.0976 71.9309C47.457 71.5862 47.6366 71.1022 47.6366 70.4789V68.8399C47.4753 69.3312 47.1893 69.7235 46.7786 70.0169C46.3753 70.3102 45.8803 70.4569 45.2936 70.4569C44.7583 70.4569 44.2816 70.3322 43.8636 70.0829C43.4456 69.8335 43.1156 69.4779 42.8736 69.0159C42.639 68.5465 42.5216 67.9965 42.5216 67.3659C42.5216 66.7352 42.639 66.1852 42.8736 65.7159C43.1156 65.2465 43.4456 64.8872 43.8636 64.6379C44.2816 64.3885 44.7583 64.2639 45.2936 64.2639ZM45.5796 65.1549C44.9636 65.1549 44.4686 65.3529 44.0946 65.7489C43.728 66.1375 43.5446 66.6765 43.5446 67.3659C43.5446 68.0552 43.728 68.5979 44.0946 68.9939C44.4686 69.3825 44.9636 69.5769 45.5796 69.5769C45.9756 69.5769 46.3276 69.4852 46.6356 69.3019C46.951 69.1185 47.1966 68.8619 47.3726 68.5319C47.5486 68.1945 47.6366 67.8059 47.6366 67.3659C47.6366 66.9259 47.5486 66.5372 47.3726 66.1999C47.1966 65.8625 46.951 65.6059 46.6356 65.4299C46.3276 65.2465 45.9756 65.1549 45.5796 65.1549ZM55.7857 67.0249C55.7857 67.2375 55.7711 67.4209 55.7417 67.5749H50.9127C50.9347 68.2642 51.1291 68.7812 51.4957 69.1259C51.8697 69.4705 52.3244 69.6429 52.8597 69.6429C53.3437 69.6429 53.7471 69.5219 54.0697 69.2799C54.3997 69.0305 54.6014 68.7005 54.6747 68.2899H55.7417C55.6684 68.7079 55.5034 69.0819 55.2467 69.4119C54.9974 69.7419 54.6711 69.9985 54.2677 70.1819C53.8644 70.3652 53.4097 70.4569 52.9037 70.4569C52.3244 70.4569 51.8111 70.3322 51.3637 70.0829C50.9164 69.8335 50.5644 69.4779 50.3077 69.0159C50.0584 68.5465 49.9337 67.9965 49.9337 67.3659C49.9337 66.7352 50.0584 66.1852 50.3077 65.7159C50.5644 65.2465 50.9164 64.8872 51.3637 64.6379C51.8111 64.3885 52.3244 64.2639 52.9037 64.2639C53.4904 64.2639 54.0001 64.3885 54.4327 64.6379C54.8727 64.8872 55.2064 65.2209 55.4337 65.6389C55.6684 66.0569 55.7857 66.5189 55.7857 67.0249ZM54.7737 67.0909C54.7957 66.6435 54.7224 66.2695 54.5537 65.9689C54.3851 65.6682 54.1541 65.4445 53.8607 65.2979C53.5674 65.1512 53.2484 65.0779 52.9037 65.0779C52.3537 65.0779 51.8917 65.2502 51.5177 65.5949C51.1437 65.9322 50.9421 66.4309 50.9127 67.0909H54.7737ZM58.096 65.5619C58.294 65.1439 58.5837 64.8212 58.965 64.5939C59.3463 64.3592 59.801 64.2419 60.329 64.2419V65.3309H60.021C59.4563 65.3309 58.9943 65.4775 58.635 65.7709C58.2757 66.0569 58.096 66.5335 58.096 67.2009V70.3799H57.095V64.3409H58.096V65.5619Z" fill="black"/>
<defs>
<radialGradient id="paint0_radial_157_2908" cx="0" cy="0" r="1" gradientUnits="userSpaceOnUse" gradientTransform="translate(15.1237 50.1125) scale(54.4798)">
<stop stop-color="#0099FF"/>
<stop offset="0.609754" stop-color="#A033FF"/>
<stop offset="0.934823" stop-color="#FF5280"/>
<stop offset="1" stop-color="#FF7061"/>
</radialGradient>
<radialGradient id="paint1_radial_157_2908" cx="0" cy="0" r="1" gradientUnits="userSpaceOnUse" gradientTransform="translate(23.8733 30.7475) scale(22.004 11.8269)">
<stop stop-color="#0099FF"/>
<stop offset="0.609754" stop-color="#A033FF"/>
<stop offset="0.934823" stop-color="#FF5280"/>
<stop offset="1" stop-color="#FF7061"/>
</radialGradient>
</defs>
</svg>
