<svg width="55" height="76" viewBox="0 0 55 76" fill="none" xmlns="http://www.w3.org/2000/svg">
<path fill-rule="evenodd" clip-rule="evenodd" d="M35.0679 0.379883C40.0875 0.379883 42.5967 0.379883 45.2988 1.23405C48.2487 2.3078 50.5721 4.63113 51.6458 7.58113C52.5 10.2828 52.5 12.7928 52.5 17.812V32.9478C52.5 37.9674 52.5 40.4766 51.6458 43.1786C50.5721 46.1286 48.2487 48.452 45.2988 49.5253C42.5967 50.3799 40.0875 50.3799 35.0679 50.3799H19.9321C14.9125 50.3799 12.4029 50.3799 9.70125 49.5253C6.75125 48.452 4.42792 46.1286 3.35417 43.1786C2.5 40.4766 2.5 37.9674 2.5 32.9478V17.812C2.5 12.7928 2.5 10.2828 3.35417 7.58113C4.42792 4.63113 6.75125 2.3078 9.70125 1.23405C12.4029 0.379883 14.9125 0.379883 19.9321 0.379883H35.0679Z" fill="url(#paint0_linear_157_2892)"/>
<path fill-rule="evenodd" clip-rule="evenodd" d="M27.4993 39.9626C37.6246 39.9626 45.8327 33.1536 45.8327 24.7542C45.8327 16.3549 37.6246 9.5459 27.4993 9.5459C17.3741 9.5459 9.16602 16.3549 9.16602 24.7542C9.16602 30.2397 12.6669 35.0468 17.9164 37.722V38.2959C17.9164 39.5361 16.3539 41.0834 15.6964 41.7344C15.4979 41.931 15.3819 42.0459 15.4164 42.0459C17.2476 42.0459 18.7376 41.2492 19.8966 40.6295C20.4139 40.3529 20.8653 40.1115 21.2517 39.992C22.2964 39.6688 22.9017 39.5744 23.9208 39.673C25.0782 39.863 26.2747 39.9626 27.4993 39.9626Z" fill="white"/>
<path d="M11.4264 62.7569V70.3799H10.4254V64.2969L7.99442 70.3799H7.10342L4.66142 64.3189V70.3799H3.66042V62.7569H4.85942L7.56542 69.1589L10.2274 62.7569H11.4264ZM18.5826 67.0249C18.5826 67.2375 18.5679 67.4209 18.5386 67.5749H13.7096C13.7316 68.2642 13.9259 68.7812 14.2926 69.1259C14.6666 69.4705 15.1213 69.6429 15.6566 69.6429C16.1406 69.6429 16.5439 69.5219 16.8666 69.2799C17.1966 69.0305 17.3983 68.7005 17.4716 68.2899H18.5386C18.4653 68.7079 18.3003 69.0819 18.0436 69.4119C17.7943 69.7419 17.4679 69.9985 17.0646 70.1819C16.6613 70.3652 16.2066 70.4569 15.7006 70.4569C15.1213 70.4569 14.6079 70.3322 14.1606 70.0829C13.7133 69.8335 13.3613 69.4779 13.1046 69.0159C12.8553 68.5465 12.7306 67.9965 12.7306 67.3659C12.7306 66.7352 12.8553 66.1852 13.1046 65.7159C13.3613 65.2465 13.7133 64.8872 14.1606 64.6379C14.6079 64.3885 15.1213 64.2639 15.7006 64.2639C16.2873 64.2639 16.7969 64.3885 17.2296 64.6379C17.6696 64.8872 18.0033 65.2209 18.2306 65.6389C18.4653 66.0569 18.5826 66.5189 18.5826 67.0249ZM17.5706 67.0909C17.5926 66.6435 17.5193 66.2695 17.3506 65.9689C17.1819 65.6682 16.9509 65.4445 16.6576 65.2979C16.3643 65.1512 16.0453 65.0779 15.7006 65.0779C15.1506 65.0779 14.6886 65.2502 14.3146 65.5949C13.9406 65.9322 13.7389 66.4309 13.7096 67.0909H17.5706ZM21.7839 64.2639C22.4659 64.2639 23.0122 64.4435 23.4229 64.8029C23.8409 65.1549 24.0939 65.6315 24.1819 66.2329H23.2249C23.1809 65.8735 23.0305 65.5802 22.7739 65.3529C22.5245 65.1182 22.1872 65.0009 21.7619 65.0009C21.4025 65.0009 21.1202 65.0889 20.9149 65.2649C20.7169 65.4335 20.6179 65.6645 20.6179 65.9579C20.6179 66.1779 20.6839 66.3575 20.8159 66.4969C20.9552 66.6289 21.1239 66.7315 21.3219 66.8049C21.5272 66.8709 21.8059 66.9442 22.1579 67.0249C22.6052 67.1275 22.9645 67.2339 23.2359 67.3439C23.5145 67.4465 23.7492 67.6152 23.9399 67.8499C24.1379 68.0845 24.2369 68.3999 24.2369 68.7959C24.2369 69.2872 24.0499 69.6869 23.6759 69.9949C23.3092 70.3029 22.8179 70.4569 22.2019 70.4569C21.4832 70.4569 20.8965 70.2845 20.4419 69.9399C19.9872 69.5952 19.7195 69.1149 19.6389 68.4989H20.6069C20.6435 68.8655 20.8012 69.1625 21.0799 69.3899C21.3659 69.6172 21.7399 69.7309 22.2019 69.7309C22.5465 69.7309 22.8142 69.6429 23.0049 69.4669C23.2029 69.2909 23.3019 69.0599 23.3019 68.7739C23.3019 68.5392 23.2322 68.3522 23.0929 68.2129C22.9535 68.0735 22.7812 67.9672 22.5759 67.8939C22.3705 67.8205 22.0882 67.7435 21.7289 67.6629C21.2815 67.5602 20.9222 67.4575 20.6509 67.3549C20.3869 67.2522 20.1595 67.0909 19.9689 66.8709C19.7855 66.6435 19.6939 66.3392 19.6939 65.9579C19.6939 65.4519 19.8809 65.0449 20.2549 64.7369C20.6289 64.4215 21.1385 64.2639 21.7839 64.2639ZM27.4665 64.2639C28.1485 64.2639 28.6948 64.4435 29.1055 64.8029C29.5235 65.1549 29.7765 65.6315 29.8645 66.2329H28.9075C28.8635 65.8735 28.7132 65.5802 28.4565 65.3529C28.2072 65.1182 27.8698 65.0009 27.4445 65.0009C27.0852 65.0009 26.8028 65.0889 26.5975 65.2649C26.3995 65.4335 26.3005 65.6645 26.3005 65.9579C26.3005 66.1779 26.3665 66.3575 26.4985 66.4969C26.6378 66.6289 26.8065 66.7315 27.0045 66.8049C27.2098 66.8709 27.4885 66.9442 27.8405 67.0249C28.2878 67.1275 28.6472 67.2339 28.9185 67.3439C29.1972 67.4465 29.4318 67.6152 29.6225 67.8499C29.8205 68.0845 29.9195 68.3999 29.9195 68.7959C29.9195 69.2872 29.7325 69.6869 29.3585 69.9949C28.9918 70.3029 28.5005 70.4569 27.8845 70.4569C27.1658 70.4569 26.5792 70.2845 26.1245 69.9399C25.6698 69.5952 25.4022 69.1149 25.3215 68.4989H26.2895C26.3262 68.8655 26.4838 69.1625 26.7625 69.3899C27.0485 69.6172 27.4225 69.7309 27.8845 69.7309C28.2292 69.7309 28.4968 69.6429 28.6875 69.4669C28.8855 69.2909 28.9845 69.0599 28.9845 68.7739C28.9845 68.5392 28.9148 68.3522 28.7755 68.2129C28.6362 68.0735 28.4638 67.9672 28.2585 67.8939C28.0532 67.8205 27.7708 67.7435 27.4115 67.6629C26.9642 67.5602 26.6048 67.4575 26.3335 67.3549C26.0695 67.2522 25.8422 67.0909 25.6515 66.8709C25.4682 66.6435 25.3765 66.3392 25.3765 65.9579C25.3765 65.4519 25.5635 65.0449 25.9375 64.7369C26.3115 64.4215 26.8212 64.2639 27.4665 64.2639ZM33.7321 64.2639C34.3188 64.2639 34.8138 64.4105 35.2171 64.7039C35.6278 64.9972 35.9138 65.3895 36.0751 65.8809V64.3409H37.0761V70.3799H36.0751V68.8399C35.9138 69.3312 35.6278 69.7235 35.2171 70.0169C34.8138 70.3102 34.3188 70.4569 33.7321 70.4569C33.1968 70.4569 32.7201 70.3322 32.3021 70.0829C31.8841 69.8335 31.5541 69.4779 31.3121 69.0159C31.0774 68.5465 30.9601 67.9965 30.9601 67.3659C30.9601 66.7352 31.0774 66.1852 31.3121 65.7159C31.5541 65.2465 31.8841 64.8872 32.3021 64.6379C32.7201 64.3885 33.1968 64.2639 33.7321 64.2639ZM34.0181 65.1549C33.4021 65.1549 32.9071 65.3529 32.5331 65.7489C32.1664 66.1375 31.9831 66.6765 31.9831 67.3659C31.9831 68.0552 32.1664 68.5979 32.5331 68.9939C32.9071 69.3825 33.4021 69.5769 34.0181 69.5769C34.4141 69.5769 34.7661 69.4852 35.0741 69.3019C35.3894 69.1185 35.6351 68.8619 35.8111 68.5319C35.9871 68.1945 36.0751 67.8059 36.0751 67.3659C36.0751 66.9259 35.9871 66.5372 35.8111 66.1999C35.6351 65.8625 35.3894 65.6059 35.0741 65.4299C34.7661 65.2465 34.4141 65.1549 34.0181 65.1549ZM41.1442 64.2639C41.7309 64.2639 42.2259 64.4105 42.6292 64.7039C43.0399 64.9972 43.3259 65.3895 43.4872 65.8809V64.3409H44.4882V70.4789C44.4882 71.0362 44.3709 71.5312 44.1362 71.9639C43.9015 72.3965 43.5715 72.7339 43.1462 72.9759C42.7209 73.2179 42.2259 73.3389 41.6612 73.3389C40.8472 73.3389 40.1835 73.1409 39.6702 72.7449C39.1569 72.3562 38.8305 71.8282 38.6912 71.1609H39.6812C39.7985 71.5642 40.0185 71.8795 40.3412 72.1069C40.6712 72.3415 41.0929 72.4589 41.6062 72.4589C42.1489 72.4589 42.5962 72.2829 42.9482 71.9309C43.3075 71.5862 43.4872 71.1022 43.4872 70.4789V68.8399C43.3259 69.3312 43.0399 69.7235 42.6292 70.0169C42.2259 70.3102 41.7309 70.4569 41.1442 70.4569C40.6089 70.4569 40.1322 70.3322 39.7142 70.0829C39.2962 69.8335 38.9662 69.4779 38.7242 69.0159C38.4895 68.5465 38.3722 67.9965 38.3722 67.3659C38.3722 66.7352 38.4895 66.1852 38.7242 65.7159C38.9662 65.2465 39.2962 64.8872 39.7142 64.6379C40.1322 64.3885 40.6089 64.2639 41.1442 64.2639ZM41.4302 65.1549C40.8142 65.1549 40.3192 65.3529 39.9452 65.7489C39.5785 66.1375 39.3952 66.6765 39.3952 67.3659C39.3952 68.0552 39.5785 68.5979 39.9452 68.9939C40.3192 69.3825 40.8142 69.5769 41.4302 69.5769C41.8262 69.5769 42.1782 69.4852 42.4862 69.3019C42.8015 69.1185 43.0472 68.8619 43.2232 68.5319C43.3992 68.1945 43.4872 67.8059 43.4872 67.3659C43.4872 66.9259 43.3992 66.5372 43.2232 66.1999C43.0472 65.8625 42.8015 65.6059 42.4862 65.4299C42.1782 65.2465 41.8262 65.1549 41.4302 65.1549ZM51.6363 67.0249C51.6363 67.2375 51.6217 67.4209 51.5923 67.5749H46.7633C46.7853 68.2642 46.9797 68.7812 47.3463 69.1259C47.7203 69.4705 48.175 69.6429 48.7103 69.6429C49.1943 69.6429 49.5977 69.5219 49.9203 69.2799C50.2503 69.0305 50.452 68.7005 50.5253 68.2899H51.5923C51.519 68.7079 51.354 69.0819 51.0973 69.4119C50.848 69.7419 50.5217 69.9985 50.1183 70.1819C49.715 70.3652 49.2603 70.4569 48.7543 70.4569C48.175 70.4569 47.6617 70.3322 47.2143 70.0829C46.767 69.8335 46.415 69.4779 46.1583 69.0159C45.909 68.5465 45.7843 67.9965 45.7843 67.3659C45.7843 66.7352 45.909 66.1852 46.1583 65.7159C46.415 65.2465 46.767 64.8872 47.2143 64.6379C47.6617 64.3885 48.175 64.2639 48.7543 64.2639C49.341 64.2639 49.8507 64.3885 50.2833 64.6379C50.7233 64.8872 51.057 65.2209 51.2843 65.6389C51.519 66.0569 51.6363 66.5189 51.6363 67.0249ZM50.6243 67.0909C50.6463 66.6435 50.573 66.2695 50.4043 65.9689C50.2357 65.6682 50.0047 65.4445 49.7113 65.2979C49.418 65.1512 49.099 65.0779 48.7543 65.0779C48.2043 65.0779 47.7423 65.2502 47.3683 65.5949C46.9943 65.9322 46.7927 66.4309 46.7633 67.0909H50.6243Z" fill="black"/>
<defs>
<linearGradient id="paint0_linear_157_2892" x1="2.5" y1="0.379883" x2="2.5" y2="50.3799" gradientUnits="userSpaceOnUse">
<stop stop-color="#67FF81"/>
<stop offset="1" stop-color="#01B41F"/>
</linearGradient>
</defs>
</svg>
