<svg width="120" height="100" viewBox="0 0 120 100" fill="none" xmlns="http://www.w3.org/2000/svg">
<rect x="-0.00390625" width="120.006" height="99.8487" rx="20.8301" fill="#63CBF2" fill-opacity="0.14"/>
<path fill-rule="evenodd" clip-rule="evenodd" d="M34.0362 68.5052L49.8116 52.1686L53.6297 56.0127C54.4984 56.8901 55.5324 57.5865 56.6719 58.0618C57.8114 58.5371 59.0338 58.7819 60.2685 58.7819C61.5032 58.7819 62.7256 58.5371 63.8651 58.0618C65.0046 57.5865 66.0386 56.8901 66.9073 56.0127L70.3607 52.5355L85.8012 68.5246C85.5549 68.5767 85.2988 68.6035 85.0369 68.6035H34.8891C34.5958 68.6035 34.31 68.5692 34.0362 68.5052ZM88.6592 34.1091C88.7239 34.3844 88.7582 34.671 88.7582 34.9657V64.8821C88.7582 65.8422 88.3942 66.7175 87.7981 67.3777L71.9333 50.951L88.6585 34.1083L88.6592 34.1091ZM31.2422 65.6249V35.71C31.2422 35.0639 31.4067 34.4559 31.6962 33.926L48.2382 50.5841L32.0773 67.3189C31.6573 66.8355 31.3696 66.2524 31.2422 65.6249ZM87.4096 32.0988L65.3511 54.1566C62.4447 57.0637 57.732 57.0637 54.8257 54.1566L32.6563 31.9886C33.2778 31.522 34.051 31.2451 34.8891 31.2451H85.0361C85.9026 31.2438 86.7421 31.5461 87.4088 32.0995L87.4096 32.0988Z" fill="#63CBF2"/>
</svg>
