<svg width="44" height="45" viewBox="0 0 44 45" fill="none" xmlns="http://www.w3.org/2000/svg">
<rect y="0.982422" width="43.2567" height="43.2567" rx="7.31451" fill="white"/>
<path d="M21.6285 32.0728C22.6694 32.0728 23.521 31.2211 23.521 30.1803H19.736C19.736 30.6822 19.9354 31.1636 20.2903 31.5185C20.6452 31.8734 21.1266 32.0728 21.6285 32.0728ZM27.3059 26.3953V21.6641C27.3059 18.7592 25.7541 16.3273 23.0479 15.6839V15.0405C23.0479 14.2551 22.4139 13.6211 21.6285 13.6211C20.8431 13.6211 20.2091 14.2551 20.2091 15.0405V15.6839C17.4934 16.3273 15.9511 18.7497 15.9511 21.6641V26.3953L14.0586 28.2878V29.234H29.1984V28.2878L27.3059 26.3953Z" fill="#63CBF2"/>
</svg>
