<svg width="44" height="44" viewBox="0 0 44 44" fill="none" xmlns="http://www.w3.org/2000/svg">
<rect y="0.751953" width="43.2567" height="43.2567" rx="7.31451" fill="white"/>
<path d="M19.1071 21.7598C19.4489 21.7598 19.727 22.0379 19.727 22.3796C19.727 22.7213 19.4489 22.9994 19.1071 22.9994C18.7654 22.9994 18.4873 22.7213 18.4873 22.3796C18.4873 22.0379 18.7654 21.7598 19.1071 21.7598Z" fill="#63CBF2"/>
<path d="M19.7268 19.3423V20.6265C19.533 20.5575 19.3243 20.5199 19.107 20.5199C18.0818 20.5199 17.2475 21.3542 17.2475 22.3794C17.2475 23.4046 18.0818 24.2389 19.107 24.2389C19.3243 24.2389 19.533 24.2013 19.7268 24.1323V25.4166C19.5239 25.4579 19.3165 25.4786 19.107 25.4786C17.3983 25.4786 16.0078 24.0881 16.0078 22.3794C16.0078 20.6708 17.3983 19.2803 19.107 19.2803C19.3165 19.2803 19.5239 19.3009 19.7268 19.3423Z" fill="#63CBF2"/>
<path d="M14.7688 22.3801C14.7688 24.7726 16.7151 26.7189 19.1076 26.7189C19.3163 26.7189 19.5233 26.7044 19.7275 26.6747V30.4379H17.868C17.5258 30.4379 17.2481 30.1602 17.2481 29.8181V28.9404C16.7411 28.7962 16.2523 28.592 15.7866 28.3305L15.163 28.9544C14.9209 29.1966 14.5287 29.1966 14.2866 28.9544L12.5333 27.2011C12.291 26.9589 12.292 26.566 12.5333 26.3247L13.1572 25.7007C12.8953 25.2354 12.6915 24.7466 12.5473 24.2396H11.6696C11.3275 24.2396 11.0498 23.9619 11.0498 23.6197V21.1404C11.0498 20.7983 11.3275 20.5206 11.6696 20.5206H12.5473C12.6915 20.0136 12.8953 19.5247 13.1572 19.059L12.5333 18.4355C12.292 18.1942 12.291 17.8013 12.5333 17.559L14.2866 15.8057C14.5287 15.5636 14.9209 15.5636 15.163 15.8057L15.787 16.4297C16.2523 16.1677 16.7411 15.964 17.2481 15.8198V14.9421C17.2481 14.6 17.5258 14.3223 17.868 14.3223H19.7275V18.0855C19.5233 18.0557 19.3163 18.0413 19.1076 18.0413C16.7151 18.0413 14.7688 19.9875 14.7688 22.3801Z" fill="#63CBF2"/>
<path d="M28.4874 14.6851V18.0413H31.8436L28.4874 14.6851ZM22.8263 18.0413H25.3883C25.7304 18.0413 26.0081 18.3189 26.0081 18.6611C26.0081 19.0032 25.7304 19.2809 25.3883 19.2809H22.8263C22.4841 19.2809 22.2065 19.0032 22.2065 18.6611C22.2065 18.3189 22.4841 18.0413 22.8263 18.0413ZM29.1073 26.7189H22.8263C22.4841 26.7189 22.2065 26.4412 22.2065 26.0991C22.2065 25.7569 22.4841 25.4792 22.8263 25.4792H29.1073C29.4494 25.4792 29.7271 25.7569 29.7271 26.0991C29.7271 26.4412 29.4494 26.7189 29.1073 26.7189ZM29.1073 24.2396H22.8263C22.4841 24.2396 22.2065 23.9619 22.2065 23.6197C22.2065 23.2776 22.4841 22.9999 22.8263 22.9999H29.1073C29.4494 22.9999 29.7271 23.2776 29.7271 23.6197C29.7271 23.9619 29.4494 24.2396 29.1073 24.2396ZM29.1073 21.7603H22.8263C22.4841 21.7603 22.2065 21.4826 22.2065 21.1404C22.2065 20.7983 22.4841 20.5206 22.8263 20.5206H29.1073C29.4494 20.5206 29.7271 20.7983 29.7271 21.1404C29.7271 21.4826 29.4494 21.7603 29.1073 21.7603ZM27.8676 19.2809C27.5254 19.2809 27.2478 19.0032 27.2478 18.6611V14.3223H20.9668V30.4379H31.5866C31.9287 30.4379 32.2064 30.1602 32.2064 29.8181V19.2809H27.8676Z" fill="#63CBF2"/>
</svg>
