<svg width="25" height="34" viewBox="0 0 25 34" fill="none" xmlns="http://www.w3.org/2000/svg">
<path d="M13.4844 13.3554C13.4844 13.3554 13.6406 14.5975 13.6875 15.0343C13.7344 15.4711 13.8906 15.785 14.0156 16.0307C14.1406 16.2764 14.7187 16.877 14.7969 16.836C14.875 16.7951 14.75 16.5494 14.75 16.4948C14.75 16.4402 14.8125 16.2628 14.7187 16.1536C14.625 16.058 14.4531 15.6076 14.4687 15.512C14.4844 15.4165 14.6875 15.3892 14.7031 15.3209L14.7187 15.2527C14.7187 15.2527 14.1562 14.4337 14.1562 14.0788C14.1562 13.7103 14.1406 13.2462 14.1406 13.2462C14.1406 13.2462 14.0469 13.2053 13.8281 13.2462C13.6094 13.2872 13.4844 13.3554 13.4844 13.3554Z" fill="#FBD7C7"/>
<path opacity="0.3" d="M15.7809 28.6293C15.8746 28.875 14.734 30.24 16.8902 30.472C20.109 30.8405 20.2652 28.602 21.4683 27.9878C23.6402 26.8822 20.984 26.0632 17.9527 26.0632C15.4059 26.0769 13.1871 26.3226 13.359 27.4418C13.484 28.2881 15.6402 28.2062 15.7809 28.6293Z" fill="#262626"/>
<path d="M16.7034 26.3635C16.7034 26.3635 16.4534 26.5273 15.844 26.5137C15.2347 26.5 14.7034 26.4045 14.0628 26.7184C13.3128 27.0869 13.8753 27.6739 14.0784 27.7285C14.2815 27.7831 16.9065 27.8513 17.3909 27.824C17.8753 27.7831 17.719 26.7048 17.719 26.7048L16.7034 26.3635Z" fill="#262626"/>
<path d="M17.5473 27.5783C17.313 27.5919 16.1411 27.6602 15.438 27.6465C14.6567 27.6329 14.438 27.5783 14.2192 27.51C13.9536 27.4282 13.7192 27.319 13.7036 27.0869C13.6255 27.3872 13.8442 27.6465 14.0942 27.7148C14.3286 27.783 14.6098 27.8376 15.438 27.8649C16.0942 27.8786 17.2036 27.824 17.4067 27.8103C17.5317 27.7967 17.6255 27.7148 17.6723 27.5919C17.6255 27.6192 17.5942 27.5646 17.5473 27.5783Z" fill="#262626"/>
<path d="M17.5934 27.8238C17.5934 27.8238 16.9841 28.4244 16.5622 28.8612C16.1403 29.298 15.9684 29.6256 15.9997 29.9395C16.0309 30.2534 16.5466 30.4036 17.2497 30.4036C17.9684 30.4036 18.7028 30.0214 19.0466 29.5983C19.4059 29.1751 19.9216 28.7929 19.9216 28.5882C19.9216 28.3835 19.9059 27.7419 19.9059 27.7419L17.5934 27.8238Z" fill="#262626"/>
<path d="M19.9219 27.7556H19.8438C19.8438 27.9604 19.8594 28.206 19.8594 28.3152C19.8594 28.52 19.3281 28.9022 18.9844 29.3253C18.625 29.7484 17.8906 30.1306 17.1875 30.1306C16.6406 30.1306 16.2031 30.0487 16.0312 29.8576V29.9395C16.0469 30.2535 16.5781 30.4036 17.2812 30.4036C18 30.4036 18.7344 30.0214 19.0781 29.5983C19.4375 29.1752 19.9531 28.793 19.9531 28.5882C19.9531 28.3835 19.9219 27.7556 19.9219 27.7556Z" fill="#262626"/>
<path d="M14.4847 14.625C14.4847 14.625 14.4066 16.3994 14.7347 17.8872C15.0628 19.375 16.2191 21.4907 16.2191 22.1322C16.2191 22.7737 16.5784 24.7256 16.5472 25.2443C16.5316 25.7629 16.4066 26.4181 16.4066 26.4181C16.4066 26.4181 16.8284 27.1006 17.3753 27.3326C17.9222 27.5647 18.5003 27.278 18.5003 27.278L17.5003 14.9253L14.4847 14.625Z" fill="#06547A"/>
<path opacity="0.2" d="M14.4847 14.625C14.4847 14.625 14.4066 16.3994 14.7347 17.8872C15.0628 19.375 16.2191 21.4907 16.2191 22.1322C16.2191 22.7737 16.5784 24.7256 16.5472 25.2443C16.5316 25.7629 16.4066 26.4181 16.4066 26.4181C16.4066 26.4181 16.8284 27.1006 17.3753 27.3326C17.9222 27.5647 18.5003 27.278 18.5003 27.278L17.5003 14.9253L14.4847 14.625Z" fill="black"/>
<path d="M16.2656 15.3211C16.2656 15.3211 16.3124 17.273 16.2187 18.8154C16.1249 20.3577 16.5781 21.7773 16.7499 22.2687C16.9218 22.76 16.9843 23.5927 16.9843 24.3434C16.9843 25.0941 17.0156 27.9195 17.1406 28.0287C17.2656 28.1379 17.9531 28.5201 18.8437 28.5747C19.5156 28.6157 20.2499 28.2471 20.2499 28.1516C20.2499 28.056 20.4843 25.9131 20.2968 24.1796C20.1093 22.4461 19.7031 21.5452 19.7343 21.2723C19.7499 20.9993 20.2187 17.3003 20.1718 16.5359C20.1249 15.7715 19.8593 14.0244 19.8593 14.0244L16.2656 15.3211Z" fill="#06547A"/>
<path d="M14.1876 8.49634C14.1876 8.49634 13.8438 9.5064 13.6251 10.8986C13.3907 12.3591 13.5157 14.3519 13.5157 14.3519C13.5157 14.3519 13.8438 14.1336 14.4845 14.1336C15.1251 14.1336 14.1876 8.49634 14.1876 8.49634Z" fill="#E5E5E5"/>
<path opacity="0.2" d="M14.1876 8.49634C14.1876 8.49634 13.8438 9.5064 13.6251 10.8986C13.3907 12.3591 13.5157 14.3519 13.5157 14.3519C13.5157 14.3519 13.8438 14.1336 14.4845 14.1336C15.1251 14.1336 14.1876 8.49634 14.1876 8.49634Z" fill="black"/>
<path d="M19.4375 16.3721C19.4375 16.3721 19.375 16.7679 19.0781 17.0682C18.7812 17.3548 18.5312 17.8599 18.5312 18.0646C18.5312 18.3512 18.5313 18.5969 18.6719 18.6106C18.9531 18.6379 18.8437 18.4331 18.9375 18.4331C19.0312 18.4331 18.9844 18.788 19.4062 18.8017C19.9531 18.8153 20.7344 18.4877 20.7344 18.1738C20.7344 18.01 20.6563 17.5732 20.5938 17.3275C20.5156 17.0682 20.5156 16.7133 20.5156 16.7133L19.4375 16.3721Z" fill="#FBD7C7"/>
<path d="M17.4535 5.04302C18.9379 5.38426 20.5941 5.6709 21.1566 6.7219C21.641 7.62276 21.6098 7.9094 21.5785 8.75567C21.5316 9.60193 21.4535 11.2808 21.5004 11.8268C21.5473 12.3728 21.3285 14.6659 21.141 15.4302C20.9535 16.1946 20.891 16.8361 20.7504 16.8771C20.6098 16.918 19.1566 16.7542 19.266 16.5631C19.4066 16.2901 19.4535 15.5258 19.4535 15.5258C19.4535 15.5258 18.766 16.2628 17.2348 16.0718C15.7035 15.8943 14.391 15.2391 14.2504 14.8979C14.1879 14.7341 14.1566 12.1953 14.2973 11.5128C14.4379 10.8304 13.9848 9.36989 13.9691 8.72837C13.9535 8.08684 14.4223 6.35337 14.4535 6.03943C14.4848 5.57535 15.1098 4.51069 17.4535 5.04302Z" fill="#E5E5E5"/>
<path opacity="0.2" d="M19.4535 15.5258C19.4535 15.5258 19.5629 14.816 19.5629 14.1881C19.5629 13.5602 19.5785 12.6457 19.5004 12.2908C19.4223 11.9223 19.1567 10.6256 19.1098 10.2844C19.0004 9.45176 19.0629 8.94673 19.141 8.76929C18.766 9.32891 18.9848 11.3627 19.0942 12.2089C19.2348 13.3964 19.0473 15.7305 19.0004 15.8397C18.9379 15.9489 19.4535 15.5258 19.4535 15.5258Z" fill="black"/>
<path d="M18.0464 4.23779C18.0464 4.23779 18.0464 4.94756 18.187 5.07041C18.3277 5.19325 18.6558 5.24785 18.5464 5.42529C18.437 5.60274 17.2808 6.74929 16.437 6.68104C15.6089 6.61279 15.812 5.39799 15.812 5.39799L18.0464 4.23779Z" fill="#FBD7C7"/>
<path d="M14.9528 2.64068C14.609 3.02286 14.7496 4.14211 14.9059 4.64714C15.0778 5.16582 15.2496 5.45246 15.3278 5.64355C15.3903 5.83464 15.6246 6.13493 15.9371 6.12128C16.2496 6.10763 17.2184 5.56165 17.5153 5.15217C17.8121 4.74269 18.2028 4.34685 18.2653 4.07386C18.3278 3.80088 18.359 3.67803 18.0934 3.62343C17.8278 3.56884 17.2653 2.55878 16.5465 2.51783C15.8278 2.47688 15.1715 2.42228 14.9528 2.64068Z" fill="#FBD7C7"/>
<path d="M14.7505 2.91372C14.688 3.13211 14.8755 3.36415 15.6098 3.36415C16.3442 3.36415 16.7973 3.05022 16.8755 3.25496C16.9536 3.4597 17.1567 4.03298 17.2192 4.15582C17.2817 4.27867 17.3755 4.42881 17.4223 4.37421C17.4692 4.31961 17.7036 3.84188 17.8755 3.73269C18.0473 3.62349 18.1411 3.62349 18.1411 3.62349C18.1411 3.62349 18.3911 2.49059 17.8286 1.90367C17.2661 1.30309 15.313 1.1666 14.7505 2.91372Z" fill="#762C07"/>
<path d="M15.2969 5.38434C15.2969 5.38434 15.4062 5.2888 15.5469 5.27515C15.6094 5.27515 15.75 5.2888 15.8438 5.30245C15.9688 5.32974 16.2656 5.45259 16.2656 5.45259C16.2656 5.45259 15.8281 5.45259 15.6875 5.43894C15.5156 5.43894 15.2969 5.38434 15.2969 5.38434Z" fill="#762C07"/>
<path d="M15.5781 5.71191L15.7656 5.72556C15.7656 5.72556 15.7344 5.80746 15.8594 5.90301C15.9844 5.99855 16.3125 6.0122 16.3125 6.0122C16.3125 6.0122 16.0469 6.18964 15.8125 6.13505C15.5781 6.08045 15.4688 5.88936 15.4688 5.88936C15.4688 5.88936 15.5469 5.87571 15.5625 5.82111C15.5937 5.78016 15.5781 5.71191 15.5781 5.71191Z" fill="#762C07"/>
<path d="M5.46875 9.35645C5.46875 9.35645 4.89062 11.2674 4.89062 11.6495C4.89062 12.0317 5.23437 13.0418 5.64062 13.6151C6.04687 14.1747 6.48438 15.0483 6.48438 15.0483L6.8125 14.5023C6.8125 14.5023 6.46875 13.0691 6.26562 12.5777C6.0625 12.0863 5.96875 12.0044 6.125 11.5677C6.29688 11.1172 6.59375 10.3938 6.59375 10.3938L5.46875 9.35645Z" fill="#FBD7C7"/>
<path opacity="0.2" d="M6.03064 29.1207C4.57752 29.8988 4.46814 30.8269 6.35877 31.7005C8.42127 32.6696 9.62439 32.4512 11.2181 31.6459C12.6244 30.9361 12.2963 29.9807 9.93689 29.148C8.03064 28.4929 7.04627 28.5611 6.03064 29.1207Z" fill="black"/>
<path d="M6.29689 13.9563C5.92189 14.3931 4.50002 15.9082 4.90627 18.0511C5.31252 20.1941 6.01564 21.3543 5.89064 21.8593C5.76564 22.3643 5.31252 23.3335 5.42189 24.4118C5.54689 25.7358 6.00002 27.1007 6.01564 27.5511C6.03127 28.0016 6.21877 28.411 6.07814 28.7523C5.93752 29.0935 5.59377 29.3528 5.93752 29.5849C6.21877 29.776 6.09377 29.503 7.53127 29.9534C9.45314 30.5676 9.04689 29.7077 8.09377 29.5576C7.75002 29.503 7.45314 28.9024 7.34377 28.5066C7.29689 28.3428 7.15627 26.35 7.28127 25.4218C7.40627 24.5073 7.42189 23.0878 7.40627 22.6783C7.39064 22.2688 7.78127 20.7128 7.93752 19.9484C8.15627 18.7882 8.56252 14.6934 8.56252 14.6934L6.29689 13.9563Z" fill="#FBD7C7"/>
<path d="M6.01514 28.8887C6.01514 28.8887 5.65577 29.2436 5.67139 29.5575C5.68702 29.8714 5.96827 30.3355 5.96827 30.513V30.9497L6.23389 31.0862L6.48389 30.977C6.48389 30.977 6.37452 30.2536 6.56202 30.1444C6.74952 30.0352 7.31202 30.4038 7.68702 30.4857C8.06202 30.5676 8.98389 30.472 9.31202 30.3492C9.65577 30.2263 9.37452 29.8578 9.07764 29.7076C8.67139 29.5165 8.03077 29.5438 8.03077 29.5438C8.03077 29.5438 8.23389 29.5984 8.46827 29.8032C8.89014 30.1717 7.71827 30.2536 6.64014 29.4483C6.23389 29.1071 6.01514 28.8887 6.01514 28.8887Z" fill="#262626"/>
<path d="M7.625 14.5432C7.625 14.5432 6.78125 16.304 6.78125 17.1503C6.78125 17.9965 7.42187 18.3105 7.54687 18.5834C7.67187 18.8564 7.71875 19.7436 8.01562 20.7947C8.3125 21.8457 8.67187 22.5008 8.32812 23.2652C7.76562 24.4663 7.875 25.5037 8.04687 26.9778C8.21875 28.4383 8.07812 29.2709 8.03125 29.503C7.96875 29.776 7.48437 29.9125 7.73437 30.2401C8.07812 30.6768 9.04687 30.7314 9.46875 30.9089C9.96875 31.1136 10.5938 31.1819 10.75 30.9635C10.9062 30.7587 10.7812 30.4311 10.2188 30.4448C9.73438 30.4584 9.39062 29.7623 9.25 29.4484C9.10938 29.1481 9.40625 28.138 9.65625 26.5547C9.89062 24.9714 10 23.2515 10.1094 22.5964C10.2344 21.9412 10.6094 21.3679 10.7031 18.4333C10.8125 15.485 10.4531 14.6661 10.4531 14.6661L7.625 14.5432Z" fill="#FBD7C7"/>
<path d="M7.89063 29.6804C7.89063 29.6804 7.51562 29.9534 7.51562 30.2946C7.51562 30.6495 7.84375 31.0317 7.89063 31.3047C7.9375 31.5777 7.92188 31.7824 7.92188 31.7824L8.21875 31.9053L8.51563 31.7961C8.51563 31.7961 8.26562 31.0181 8.53125 30.9635C8.79688 30.9089 9.59375 31.4548 10.0781 31.4548C10.5625 31.4548 11.2188 30.9225 11.2188 30.7178C11.2188 30.513 10.6875 30.2946 10.375 30.3219C10.0625 30.3356 9.92188 30.4038 9.92188 30.4038C9.92188 30.4038 10.4063 30.5813 10.4688 30.7314C10.5313 30.8679 10.375 30.9635 10.1719 31.0044C9.76562 31.0727 9.375 30.7587 8.71875 30.2946C8.15625 29.8852 7.89063 29.6804 7.89063 29.6804Z" fill="#262626"/>
<path d="M10.5308 14.8162C10.5621 15.6215 11.4683 19.7709 11.7964 21.1768C11.8589 21.4771 11.2339 21.7501 9.93705 22.064C8.64018 22.3779 7.87455 22.3506 7.0308 21.5863C6.18705 20.8219 4.89018 21.0812 4.4683 20.8765C4.04643 20.6718 4.68705 18.8564 4.73393 17.3686C4.7808 15.8808 5.7183 14.666 5.7183 14.666L10.5308 14.8162Z" fill="#06547A"/>
<path d="M6.49954 8.36C6.10891 8.51015 5.26516 9.12437 5.42141 9.6294C5.57766 10.1344 6.15579 11.827 6.28079 12.3183C6.40579 12.7961 6.46829 13.5058 6.24954 13.7652C6.03079 14.0245 5.57766 14.7616 5.57766 14.7616C5.57766 14.7616 7.12454 15.1301 8.43704 15.1301C9.74954 15.1301 10.6558 14.9254 10.6558 14.9254C10.6558 14.9254 10.4683 12.0999 10.5464 11.9498C10.6245 11.7997 11.3277 11.5403 11.2652 10.9261C11.2183 10.5303 10.9683 10.3392 10.687 10.0935C10.4839 9.90239 10.2183 9.6021 9.99954 9.42466C9.73391 9.20627 9.06204 8.93328 8.42141 8.56474C7.76516 8.19621 6.49954 8.36 6.49954 8.36Z" fill="#FFCC00"/>
<path d="M10.2491 9.6429C10.2491 9.6429 10.4835 9.8067 10.3429 10.6803C10.1866 11.5538 10.1866 13.3692 10.4835 14.2291C10.7648 15.089 11.3116 16.9863 11.4679 17.3412C11.6398 17.6961 11.8273 17.778 11.9366 17.9145C12.0148 18.01 12.1554 18.5696 12.0773 18.7744C11.9991 18.9655 11.6398 19.4705 11.3273 19.5524C11.0148 19.6343 10.6554 19.6343 10.6085 19.5114C10.5616 19.3886 10.8741 19.3476 10.921 19.1566C10.9679 18.9655 10.9991 18.3239 10.9991 18.1601C10.9991 17.9964 10.8116 17.5323 10.2179 16.686C9.62413 15.8397 9.10851 15.13 8.93663 14.1882C8.76476 13.2464 8.43663 10.5438 8.51476 10.0387C8.60851 9.31532 9.63976 8.94678 10.2491 9.6429Z" fill="#FBD7C7"/>
<path d="M8.68752 4.29231C9.21877 4.4561 9.40627 4.85194 9.50002 5.6709C9.59377 6.48987 9.46877 7.00855 9.40627 7.15869C9.32815 7.30883 8.75002 7.47263 8.6094 7.67737C8.46877 7.88211 8.3594 8.31889 8.43752 8.41444C8.59377 8.59188 8.70315 8.57823 8.70315 8.57823C8.70315 8.57823 7.40627 8.85122 6.93752 8.67378C6.46877 8.49633 6.4844 8.26429 6.57815 8.16875C6.6719 8.0732 6.84377 7.69102 6.75002 7.48628C6.65627 7.28154 5.57815 6.43527 5.9219 5.43886C6.34377 4.25136 7.62502 3.96472 8.68752 4.29231Z" fill="#FBD7C7"/>
<path d="M7.3586 4.01943C6.07735 4.23782 5.56173 5.17963 5.7961 6.21698C5.9836 7.0496 5.99923 7.25434 5.84298 7.58193C5.31173 8.67388 4.95235 9.60204 5.49923 10.1617C6.34298 11.0352 8.24923 10.6121 8.9836 9.67029C9.46798 9.05607 9.8586 8.1825 9.57735 7.50003C9.15548 6.47632 9.4836 6.20334 9.59298 5.47992C9.70235 4.7565 8.65548 3.78739 7.3586 4.01943Z" fill="#762C07"/>
</svg>
