<svg width="12" height="12" viewBox="0 0 12 12" fill="none" xmlns="http://www.w3.org/2000/svg">
<path d="M3.65084 3.25932C3.65084 2.7947 3.78862 2.34051 4.04675 1.95419C4.30487 1.56788 4.67176 1.26678 5.10102 1.08898C5.53027 0.911174 6.00261 0.864653 6.4583 0.955296C6.91399 1.04594 7.33257 1.26967 7.66111 1.59821C7.98964 1.92675 8.21338 2.34533 8.30402 2.80102C8.39466 3.25671 8.34814 3.72905 8.17034 4.1583C7.99254 4.58755 7.69144 4.95444 7.30512 5.21257C6.91881 5.4707 6.46462 5.60847 6 5.60847C5.37696 5.60847 4.77945 5.36097 4.33889 4.92042C3.89834 4.47987 3.65084 3.88235 3.65084 3.25932ZM9.91526 11.0898H2.08474C1.77322 11.0898 1.47446 10.9661 1.25418 10.7458C1.03391 10.5255 0.910156 10.2268 0.910156 9.91526C0.910156 8.98071 1.28141 8.08443 1.94224 7.42361C2.60306 6.76278 3.49934 6.39153 4.43389 6.39153H7.56611C8.50066 6.39153 9.39694 6.76278 10.0578 7.42361C10.7186 8.08443 11.0898 8.98071 11.0898 9.91526C11.0898 10.2268 10.9661 10.5255 10.7458 10.7458C10.5255 10.9661 10.2268 11.0898 9.91526 11.0898Z" fill="#63CBF2"/>
</svg>
