<svg width="24" height="24" viewBox="0 0 24 24" fill="none" xmlns="http://www.w3.org/2000/svg">
<path d="M12.375 10.875V11.125H12.625H19.375C19.6071 11.125 19.8296 11.2172 19.9937 11.3813C20.1578 11.5454 20.25 11.7679 20.25 12C20.25 12.2321 20.1578 12.4546 19.9937 12.6187C19.8296 12.7828 19.6071 12.875 19.375 12.875H12.625H12.375V13.125V19.875C12.375 20.1071 12.2828 20.3296 12.1187 20.4937C11.9546 20.6578 11.7321 20.75 11.5 20.75C11.2679 20.75 11.0454 20.6578 10.8813 20.4937C10.7172 20.3296 10.625 20.1071 10.625 19.875V13.125V12.875H10.375H3.625C3.39294 12.875 3.17038 12.7828 3.00628 12.6187C2.84219 12.4546 2.75 12.2321 2.75 12C2.75 11.7679 2.84219 11.5454 3.00628 11.3813C3.17038 11.2172 3.39294 11.125 3.625 11.125H10.375H10.625V10.875V4.125C10.625 3.89294 10.7172 3.67038 10.8813 3.50628C11.0454 3.34219 11.2679 3.25 11.5 3.25C11.7321 3.25 11.9546 3.34219 12.1187 3.50628C12.2828 3.67038 12.375 3.89294 12.375 4.125V10.875Z" fill="#63CBF2" stroke="white" stroke-width="0.5"/>
</svg>
