<svg width="125" height="99" viewBox="0 0 125 99" fill="none" xmlns="http://www.w3.org/2000/svg">
<rect width="125" height="99" rx="20.7987" fill="#63CBF2" fill-opacity="0.14"/>
<path d="M86.6691 31.8927C86.6695 31.6758 86.6262 31.461 86.5419 31.2613C86.4576 31.0616 86.334 30.8811 86.1785 30.7307L78.2202 22.9578C78.0242 22.7633 77.7823 22.622 77.5172 22.5472C77.2521 22.4724 76.9724 22.4664 76.7044 22.53C76.4364 22.5935 76.1888 22.7244 75.9849 22.9105C75.7809 23.0965 75.6273 23.3316 75.5383 23.5936C75.5274 23.6375 74.0775 27.8693 69.9566 27.5952C68.6927 27.5067 67.475 27.0812 66.4288 26.3625C65.3827 25.6438 64.5458 24.6578 64.0042 23.5059C63.8832 23.2075 63.6765 22.9522 63.4105 22.7725C63.1444 22.5928 62.8311 22.497 62.5107 22.4973H62.4998C62.1797 22.4984 61.8668 22.5934 61.5996 22.7706C61.3324 22.9478 61.1224 23.1995 60.9953 23.495C60.4568 24.65 59.6209 25.6392 58.5743 26.3602C57.5277 27.0811 56.3085 27.5075 55.0429 27.5952C50.9875 27.8693 49.5157 23.7581 49.4612 23.5936C49.3723 23.3316 49.2186 23.0965 49.0147 22.9105C48.8107 22.7244 48.5631 22.5935 48.2951 22.53C48.0271 22.4664 47.7475 22.4724 47.4824 22.5472C47.2172 22.622 46.9754 22.7633 46.7794 22.9578L38.8211 30.7307C38.6656 30.8811 38.542 31.0616 38.4576 31.2613C38.3733 31.461 38.3301 31.6758 38.3305 31.8927C38.3256 32.111 38.3656 32.3279 38.4482 32.5298C38.5308 32.7317 38.654 32.9142 38.8102 33.0658C42.266 36.5521 41.83 41.4088 39.7041 49.7188C37.5892 57.996 39.7477 69.3429 62.0092 76.436C62.3283 76.5382 62.6712 76.5382 62.9904 76.436C85.2518 69.3429 87.4104 57.996 85.2954 49.7188C83.1696 41.4088 82.7335 36.5521 86.1894 33.0658C86.3455 32.9142 86.4688 32.7317 86.5513 32.5298C86.6339 32.3279 86.674 32.111 86.6691 31.8927ZM64.135 50.9686V57.689C64.135 58.1252 63.9628 58.5435 63.6561 58.8519C63.3494 59.1603 62.9335 59.3335 62.4998 59.3335C62.0661 59.3335 61.6501 59.1603 61.3435 58.8519C61.0368 58.5435 60.8645 58.1252 60.8645 57.689V50.9686C59.8405 50.5833 58.9835 49.8485 58.4433 48.8926C57.903 47.9367 57.7137 46.8204 57.9084 45.7384C58.1031 44.6565 58.6694 43.6776 59.5086 42.9728C60.3477 42.2679 61.4064 41.8818 62.4998 41.8818C63.5931 41.8818 64.6518 42.2679 65.4909 42.9728C66.3301 43.6776 66.8965 44.6565 67.0912 45.7384C67.2859 46.8204 67.0966 47.9367 66.5563 48.8926C66.016 49.8485 65.1591 50.5833 64.135 50.9686ZM63.8952 46.5834C63.893 46.8604 63.8094 47.1307 63.6547 47.36C63.5001 47.5893 63.2814 47.7675 63.0263 47.872C62.7711 47.9765 62.4909 48.0028 62.2209 47.9474C61.951 47.892 61.7033 47.7575 61.5093 47.5608C61.3152 47.3641 61.1834 47.1141 61.1304 46.8422C61.0774 46.5703 61.1057 46.2887 61.2116 46.0329C61.3176 45.7771 61.4964 45.5586 61.7257 45.4049C61.9549 45.2512 62.2242 45.1691 62.4998 45.1691C62.6839 45.1694 62.8661 45.2063 63.036 45.2776C63.2059 45.3489 63.3601 45.4532 63.4897 45.5847C63.6194 45.7161 63.722 45.8719 63.7915 46.0433C63.8611 46.2147 63.8963 46.3983 63.8952 46.5834Z" fill="#63CBF2"/>
</svg>
