<svg width="18" height="20" viewBox="0 0 18 20" fill="none" xmlns="http://www.w3.org/2000/svg">
<path d="M17.1288 3.32075C17.1289 3.24444 17.1137 3.1689 17.084 3.09867C17.0544 3.02843 17.0109 2.96496 16.9562 2.91206L14.1575 0.178495C14.0885 0.110093 14.0035 0.0604079 13.9102 0.0340941C13.817 0.00778036 13.7186 0.00569959 13.6244 0.0280467C13.5301 0.0503938 13.4431 0.0964374 13.3713 0.161863C13.2996 0.227289 13.2456 0.309954 13.2143 0.402115C13.2105 0.417537 12.7006 1.90577 11.2513 1.80938C10.8068 1.77826 10.3786 1.62863 10.0107 1.37587C9.64276 1.12312 9.34844 0.77636 9.15799 0.371271C9.11544 0.266322 9.04274 0.176517 8.94918 0.113333C8.85562 0.0501491 8.74544 0.0164568 8.63274 0.0165626H8.62891C8.51634 0.0169395 8.40632 0.0503342 8.31234 0.112654C8.21836 0.174974 8.14451 0.263511 8.09982 0.367415C7.91042 0.773618 7.61646 1.12151 7.2484 1.37504C6.88034 1.62858 6.45156 1.77853 6.00649 1.80938C4.58026 1.90577 4.06268 0.459948 4.04351 0.402115C4.01223 0.309954 3.95819 0.227289 3.88647 0.161863C3.81474 0.0964374 3.72767 0.0503938 3.63342 0.0280467C3.53917 0.00569959 3.44082 0.00778036 3.34758 0.0340941C3.25435 0.0604079 3.16928 0.110093 3.10036 0.178495L0.301575 2.91206C0.246893 2.96496 0.203418 3.02843 0.173768 3.09867C0.144118 3.1689 0.128906 3.24444 0.129048 3.32075C0.12732 3.3975 0.141416 3.47377 0.170449 3.54478C0.199483 3.61578 0.242824 3.67996 0.297742 3.73329C1.5131 4.95934 1.35974 6.66734 0.612125 9.58983C-0.13166 12.5007 0.627461 16.4912 8.45638 18.9857C8.56862 19.0217 8.68919 19.0217 8.80143 18.9857C16.6304 16.4912 17.3895 12.5007 16.6457 9.58983C15.8981 6.66734 15.7447 4.95934 16.9601 3.73329C17.015 3.67996 17.0583 3.61578 17.0874 3.54478C17.1164 3.47377 17.1305 3.3975 17.1288 3.32075ZM9.204 10.0294V12.3928C9.204 12.5462 9.14341 12.6933 9.03556 12.8017C8.92771 12.9102 8.78143 12.9711 8.62891 12.9711C8.47638 12.9711 8.33011 12.9102 8.22226 12.8017C8.11441 12.6933 8.05381 12.5462 8.05381 12.3928V10.0294C7.69369 9.89384 7.39232 9.63544 7.20231 9.29927C7.01231 8.96309 6.94573 8.57049 7.01421 8.18999C7.08268 7.80949 7.28186 7.46526 7.57697 7.21737C7.87208 6.96948 8.24439 6.83369 8.62891 6.83369C9.01342 6.83369 9.38573 6.96948 9.68084 7.21737C9.97596 7.46526 10.1751 7.80949 10.2436 8.18999C10.3121 8.57049 10.2455 8.96309 10.0555 9.29927C9.8655 9.63544 9.56413 9.89384 9.204 10.0294ZM9.11965 8.48715C9.11889 8.58459 9.08947 8.67962 9.03509 8.76027C8.98071 8.84091 8.9038 8.90357 8.81406 8.94033C8.72433 8.97709 8.62578 8.98632 8.53084 8.96684C8.4359 8.94737 8.34881 8.90006 8.28057 8.83089C8.21232 8.76172 8.16596 8.67379 8.14733 8.57816C8.1287 8.48254 8.13864 8.38351 8.1759 8.29355C8.21315 8.2036 8.27605 8.12675 8.35667 8.07269C8.43728 8.01864 8.53201 7.98979 8.62891 7.98978C8.69365 7.98988 8.75773 8.00285 8.81748 8.02792C8.87722 8.053 8.93145 8.0897 8.97705 8.13592C9.02265 8.18213 9.05872 8.23695 9.08319 8.29722C9.10767 8.3575 9.12006 8.42204 9.11965 8.48715Z" fill="#63CBF2"/>
</svg>
