<svg width="16" height="15" viewBox="0 0 16 15" fill="none" xmlns="http://www.w3.org/2000/svg">
<path d="M5.68045 14.7327C5.73289 14.7327 5.76785 14.7152 5.82028 14.7152C5.94263 14.6978 6.0475 14.6628 6.16985 14.6278C6.23976 14.6104 6.32715 14.5754 6.39707 14.5579C6.43202 14.5405 6.48446 14.523 6.51941 14.5055C6.79907 14.4006 7.07872 14.2608 7.34089 14.1035C7.88272 13.7714 8.37212 13.317 8.73916 12.7926C8.79159 12.7052 8.86151 12.6178 8.91394 12.5304C8.93142 12.513 8.9489 12.478 8.96638 12.4605C9.01881 12.3731 9.07125 12.2858 9.1062 12.1984C9.12368 12.1634 9.14116 12.1284 9.15864 12.0935C9.22855 11.9537 9.28099 11.8138 9.3509 11.6565C9.36838 11.6041 9.40334 11.5342 9.42081 11.4817C9.43829 11.4118 9.45577 11.3594 9.47325 11.2895C9.49073 11.2021 9.50821 11.1322 9.54316 11.0448C9.56064 10.9924 9.56064 10.9224 9.57812 10.87C9.5956 10.7826 9.61308 10.6777 9.61308 10.5904C9.61308 10.5379 9.63056 10.503 9.63056 10.4505C9.64803 10.3107 9.64803 10.1534 9.64803 10.0136C9.64803 8.98235 9.31594 8.02104 8.75664 7.23452C8.42455 7.44426 8.12742 7.72391 7.88272 8.03852C8.24977 8.6153 8.47698 9.29696 8.47698 10.031C8.47698 10.1359 8.47699 10.2583 8.45951 10.3631C8.45951 10.3981 8.45951 10.433 8.44203 10.468C8.42455 10.5554 8.42455 10.6253 8.40707 10.6952C8.40707 10.7302 8.38959 10.7651 8.38959 10.8001C8.37212 10.905 8.33716 10.9924 8.31968 11.0972C8.3022 11.1322 8.28472 11.1671 8.28472 11.2196C8.26725 11.272 8.24977 11.3419 8.21481 11.3944C8.19733 11.4468 8.17985 11.4992 8.1449 11.5342C8.12742 11.5691 8.10994 11.6216 8.07498 11.6565C8.02255 11.7614 7.97011 11.8663 7.9002 11.9711C7.55063 12.5304 7.04376 12.9849 6.46698 13.282C6.36211 13.3344 6.23976 13.3869 6.13489 13.4393C6.09993 13.4568 6.06498 13.4568 6.03002 13.4743C5.96011 13.4918 5.89019 13.5267 5.82028 13.5442C5.75037 13.5617 5.69793 13.5791 5.62802 13.5966C5.59306 13.5966 5.55811 13.6141 5.52315 13.6141C5.43576 13.6316 5.33089 13.6491 5.2435 13.6665C5.22602 13.6665 5.19106 13.6665 5.17358 13.6665C5.06871 13.684 4.96384 13.684 4.84149 13.684C3.09366 13.684 1.62548 12.4431 1.27592 10.7826C1.206 10.503 1.17105 10.2583 1.17105 10.0136C1.17105 8.00356 2.79653 6.37808 4.80654 6.37808C5.4008 6.37808 5.96011 6.51791 6.4495 6.78008C6.71168 6.46547 6.99133 6.18582 7.32342 5.92364C6.58933 5.46921 5.73289 5.20703 4.80654 5.20703C2.16731 5.20703 0 7.35686 0 10.0136C0 11.1671 0.41948 12.2333 1.10113 13.0723C1.99253 14.1385 3.32088 14.8201 4.80654 14.8201C4.94636 14.8201 5.10367 14.8026 5.2435 14.8026C5.29593 14.8026 5.33089 14.7852 5.38332 14.7852C5.47071 14.7677 5.57558 14.7502 5.68045 14.7327Z" fill="#63CBF2"/>
<path d="M10.4698 5.20703C10.33 5.20703 10.1727 5.22451 10.0329 5.22451C9.98043 5.22451 9.94547 5.24199 9.89304 5.24199C9.78817 5.25947 9.70078 5.27694 9.59591 5.29442C9.54347 5.29442 9.50852 5.3119 9.45608 5.3119C9.33373 5.32938 9.22886 5.36434 9.10651 5.39929C9.0366 5.41677 8.94921 5.45173 8.8793 5.46921C8.84434 5.48668 8.80938 5.50416 8.75695 5.50416C8.4773 5.60903 8.19764 5.74886 7.93547 5.90616C7.28877 6.30817 6.74694 6.84999 6.36242 7.47921C6.34494 7.49669 6.32746 7.53165 6.32746 7.54913C6.27503 7.63652 6.22259 7.72391 6.18764 7.8113C6.17016 7.84626 6.15268 7.86374 6.15268 7.89869C6.08276 8.056 6.01285 8.2133 5.96042 8.37061C5.94294 8.42304 5.92546 8.47548 5.90798 8.51043C5.8905 8.58035 5.87303 8.63278 5.85555 8.7027C5.83807 8.77261 5.82059 8.86 5.80311 8.92991C5.78563 8.98235 5.78563 9.05226 5.76816 9.1047C5.75068 9.19209 5.7332 9.29696 5.7332 9.38435C5.7332 9.43679 5.71572 9.48922 5.71572 9.54166C5.69824 9.68148 5.69824 9.83879 5.69824 9.97861C5.69824 11.0098 6.03033 11.9711 6.58964 12.7577C6.92172 12.5479 7.21886 12.2683 7.46355 11.9537C7.09651 11.3769 6.86929 10.6952 6.86929 9.96113C6.86929 9.85627 6.86929 9.73392 6.88677 9.62905C6.88677 9.59409 6.88677 9.55913 6.90425 9.52418C6.92172 9.45426 6.92172 9.36687 6.9392 9.29696C6.9392 9.262 6.95668 9.22705 6.95668 9.19209C6.97416 9.08722 7.00912 8.99983 7.02659 8.91244C7.04407 8.87748 7.06155 8.82504 7.06155 8.79009C7.07903 8.73765 7.09651 8.68522 7.11399 8.63278C7.13146 8.58035 7.14894 8.52791 7.1839 8.47548C7.20138 8.44052 7.21886 8.38809 7.23633 8.35313C7.30625 8.23078 7.37616 8.10843 7.44607 7.98608C7.79564 7.44426 8.28503 7.02478 8.84434 6.72765C8.94921 6.67521 9.07156 6.62278 9.19391 6.57034C9.22886 6.55286 9.26382 6.55286 9.29878 6.53538C9.36869 6.51791 9.4386 6.48295 9.50852 6.46547C9.57843 6.44799 9.63086 6.43051 9.70078 6.41304C9.73573 6.41304 9.77069 6.39556 9.80565 6.39556C9.89304 6.37808 9.99791 6.3606 10.0853 6.3606C10.1028 6.3606 10.1377 6.3606 10.1552 6.3606C10.2601 6.34312 10.365 6.34312 10.4873 6.34312C10.732 6.34312 10.9767 6.3606 11.2214 6.41304C12.8469 6.79756 14.1053 8.26574 14.1053 10.0136C14.1053 12.0236 12.4798 13.6491 10.4698 13.6491C9.87556 13.6491 9.31625 13.5092 8.82686 13.2471C8.56469 13.5617 8.28503 13.8413 7.95295 14.1035C8.68703 14.5579 9.54347 14.8201 10.4698 14.8201C13.1265 14.8201 15.2764 12.6703 15.2764 10.0136C15.2764 7.35686 13.109 5.20703 10.4698 5.20703Z" fill="#63CBF2"/>
<path d="M11.2739 2.35791H9.64844L10.4524 5.3467L11.2739 2.35791Z" fill="#63CBF2"/>
<path d="M7.96973 2.35791L10.3992 5.32922L9.57773 2.35791H7.96973Z" fill="#63CBF2"/>
<path d="M11.3255 2.35791L10.5215 5.32922L12.951 2.35791H11.3255Z" fill="#63CBF2"/>
<path d="M12.1119 0.889648H10.5039L11.3079 2.27044L12.1119 0.889648Z" fill="#63CBF2"/>
<path d="M10.3991 0.889648H8.80859L9.6126 2.27044L10.3991 0.889648Z" fill="#63CBF2"/>
<path d="M7.95215 2.3051H9.56015L8.75615 0.924316L7.95215 2.3051Z" fill="#63CBF2"/>
<path d="M9.64844 2.3051H11.2564L10.4524 0.924316L9.64844 2.3051Z" fill="#63CBF2"/>
<path d="M12.1644 0.924316L11.3604 2.3051H12.9509" fill="#63CBF2"/>
</svg>
