<svg width="14" height="14" viewBox="0 0 14 14" fill="none" xmlns="http://www.w3.org/2000/svg">
<path fill-rule="evenodd" clip-rule="evenodd" d="M7.14225 13.7381C10.8243 13.7381 13.8089 10.7535 13.8089 7.07145C13.8089 3.38945 10.8243 0.404785 7.14225 0.404785C3.46025 0.404785 0.475586 3.38945 0.475586 7.07145C0.475586 10.7535 3.46025 13.7381 7.14225 13.7381ZM9.49959 4.71412C9.62477 4.58911 9.79448 4.51896 9.97139 4.51908C10.1483 4.51921 10.3179 4.5896 10.4429 4.71479C10.5679 4.83997 10.6381 5.00968 10.638 5.18659C10.6378 5.3635 10.5674 5.53311 10.4423 5.65812L6.67359 9.42679L6.67092 9.42945C6.60915 9.49158 6.53571 9.54088 6.45482 9.57452C6.37393 9.60816 6.28719 9.62547 6.19959 9.62547C6.11198 9.62547 6.02524 9.60816 5.94435 9.57452C5.86346 9.54088 5.79002 9.49158 5.72825 9.42945L5.72559 9.42679L3.84225 7.54345C3.77858 7.48195 3.72779 7.40839 3.69285 7.32705C3.65791 7.24572 3.63952 7.15824 3.63875 7.06972C3.63798 6.9812 3.65485 6.89341 3.68837 6.81148C3.72189 6.72955 3.77139 6.65512 3.83399 6.59252C3.89658 6.52993 3.97102 6.48042 4.05295 6.4469C4.13488 6.41338 4.22267 6.39652 4.31119 6.39728C4.39971 6.39805 4.48719 6.41645 4.56852 6.45138C4.64986 6.48632 4.72342 6.53711 4.78492 6.60079L6.19959 8.01479L9.49959 4.71479V4.71412Z" fill="#63CBF2"/>
</svg>
