<svg width="44" height="45" viewBox="0 0 44 45" fill="none" xmlns="http://www.w3.org/2000/svg">
<rect y="0.769531" width="43.2567" height="43.2567" rx="7.31451" fill="white"/>
<path d="M26.7237 28.8657H13.474V19.3265H16.5263C16.5263 19.3265 17.2748 18.2808 18.793 17.2987H12.4548C11.8921 17.2987 11.4355 17.7499 11.4355 18.3126V29.8796C11.4355 30.437 11.8921 30.8935 12.4548 30.8935H27.7429C28.3056 30.8935 28.7621 30.4423 28.7621 29.8796V24.0935L26.7237 25.7603V28.8657ZM25.025 20.6961V24.0881L31.8197 19.0186L25.025 13.9014V17.0705C16.8076 17.0705 16.5316 25.7921 16.5316 25.7921C18.8567 21.9966 20.566 20.6961 25.025 20.6961Z" fill="#63CBF2"/>
</svg>
