<svg width="122" height="111" viewBox="0 0 122 111" fill="none" xmlns="http://www.w3.org/2000/svg">
<rect x="0.730469" width="120.54" height="110.88" rx="20.8301" fill="#63CBF2" fill-opacity="0.14"/>
<path d="M75.5138 73.8603H37.7815V46.6948H46.4739C46.4739 46.6948 48.6054 43.7167 52.9289 40.9201H34.879C33.2766 40.9201 31.9766 42.205 31.9766 43.8074V76.7476C31.9766 78.3349 33.2766 79.635 34.879 79.635H78.4163C80.0187 79.635 81.3188 78.35 81.3188 76.7476V60.27L75.5138 65.0167V73.8603ZM70.6764 50.595V60.2549L90.0263 45.818L70.6764 31.2451V40.27C47.2751 40.27 46.489 65.1075 46.489 65.1075C53.1103 54.2987 57.978 50.595 70.6764 50.595Z" fill="#63CBF2"/>
</svg>
