<svg width="50" height="41" viewBox="0 0 50 41" fill="none" xmlns="http://www.w3.org/2000/svg">
<rect y="0.950195" width="50" height="40" rx="10" fill="#63CBF2"/>
<path d="M35.7086 23.3359L30.2493 17.9642C30.1084 17.8195 29.9522 17.6938 29.796 17.568C30.3598 18.8595 30.4474 20.311 30.036 21.6787L33.6056 25.1912C33.8744 25.4551 34.0878 25.77 34.2335 26.1173C34.3792 26.4646 34.4542 26.8375 34.4542 27.2141C34.4542 27.5908 34.3792 27.9637 34.2335 28.311C34.0878 28.6583 33.8744 28.9732 33.6056 29.2371C33.0575 29.7748 32.3201 30.0757 31.5522 30.0752C30.8093 30.0752 30.0665 29.7971 29.4988 29.2371L24.2605 24.0788C23.8313 23.6609 23.5481 23.1159 23.4528 22.5244V22.5168C23.449 22.513 23.449 22.5092 23.449 22.5016C23.2966 21.6063 23.5976 20.6805 24.2567 20.0329C24.8036 19.4928 25.5415 19.1903 26.3101 19.191C26.3711 19.191 26.4244 19.1948 26.4777 19.1986C26.3634 18.7843 26.1443 18.4064 25.8415 18.1014L24.3443 16.6309C23.5088 16.9104 22.75 17.381 22.1283 18.0054C21.5066 18.6297 21.0392 19.3905 20.7632 20.2272C20.2565 21.7777 20.4508 23.4616 21.3004 24.8483C21.5366 25.2407 21.8223 25.6027 22.1614 25.9341L27.613 31.3019C29.8455 33.5001 33.4761 33.5001 35.7048 31.3019C37.9372 29.1076 37.9373 25.5303 35.7086 23.3359Z" fill="white"/>
<path d="M20.3451 20.2268L16.7754 16.7105C16.223 16.1733 15.9258 15.4533 15.9258 14.6876C15.9258 13.9218 16.223 13.2094 16.7754 12.6646C17.3233 12.1265 18.0609 11.8255 18.8288 11.8265C19.6022 11.8265 20.3336 12.1237 20.8822 12.6646L26.1243 17.8267C26.5567 18.247 26.8402 18.7967 26.932 19.3925L26.9358 19.3963V19.404C27.0844 20.2992 26.7834 21.2212 26.1243 21.8726C25.5763 22.4082 24.841 22.7089 24.0747 22.7108C24.0176 22.7108 23.9604 22.6993 23.9071 22.6955C24.0176 23.1146 24.2309 23.4917 24.5433 23.8041L26.0367 25.2747C26.8558 25.0004 27.6101 24.5432 28.2197 23.9375C28.8673 23.3013 29.3511 22.5241 29.6254 21.6821C30.1283 20.1354 29.934 18.4592 29.0959 17.0724V17.0686C29.0912 17.0643 29.0873 17.0591 29.0845 17.0534C28.8521 16.6648 28.5625 16.3029 28.2273 15.9714L22.7718 10.5998C21.6899 9.53308 20.2536 8.9502 18.7221 8.9502C17.1906 8.9502 15.7544 9.53689 14.6724 10.5998C13.5981 11.6665 13 13.0799 13 14.5847C13.0038 16.0895 13.5981 17.5067 14.6801 18.5696L20.1317 23.9337C20.2765 24.0784 20.4289 24.208 20.5889 24.3337C20.0212 23.046 19.9336 21.5907 20.3451 20.2268Z" fill="white"/>
</svg>
