<svg width="24" height="24" viewBox="0 0 24 24" fill="none" xmlns="http://www.w3.org/2000/svg">
<g clip-path="url(#clip0_157_4381)">
<path d="M20.625 6.75003V7.12503C20.6238 7.52249 20.4654 7.90333 20.1844 8.18438C19.9033 8.46542 19.5225 8.62384 19.125 8.62503H5.5575C5.14886 8.62352 4.74882 8.50747 4.4028 8.29005C4.05679 8.07263 3.77866 7.76256 3.60001 7.39503C3.45161 7.07547 3.37482 6.72736 3.375 6.37503C3.37415 5.94218 3.48225 5.51607 3.68934 5.13598C3.89643 4.75588 4.19585 4.43401 4.56 4.20003C4.61139 4.15748 4.66663 4.11981 4.72501 4.08753C4.8364 4.02746 4.95165 3.97484 5.07001 3.93003V3.92253C5.08917 3.85888 5.1117 3.79629 5.1375 3.73503C5.1525 3.68253 5.17501 3.63003 5.19001 3.57753C5.52703 2.74329 6.10532 2.02859 6.85085 1.52489C7.59639 1.02118 8.47526 0.751389 9.375 0.750028C10.2139 0.747038 11.0362 0.983834 11.745 1.43253C12.0063 1.19273 12.3139 1.00908 12.649 0.892962C12.9841 0.77684 13.3394 0.73071 13.693 0.757424C14.0466 0.784138 14.391 0.88313 14.7048 1.04827C15.0187 1.21342 15.2952 1.4412 15.5175 1.71753C15.5512 1.74715 15.5792 1.78275 15.6 1.82253C15.6517 1.88262 15.697 1.94798 15.735 2.01753H15.7425C15.8339 1.97875 15.9296 1.95106 16.0275 1.93503H16.035C16.0526 1.9231 16.0739 1.91778 16.095 1.92003C16.2278 1.88941 16.3637 1.87431 16.5 1.87503C16.9237 1.87439 17.339 1.99361 17.6979 2.21894C18.0567 2.44427 18.3445 2.76651 18.5281 3.14844C18.7116 3.53038 18.7833 3.95643 18.735 4.37741C18.6867 4.79838 18.5203 5.1971 18.255 5.52753C18.5081 5.34482 18.8129 5.24761 19.125 5.25003C19.5225 5.25121 19.9033 5.40963 20.1844 5.69068C20.4654 5.97173 20.6238 6.35257 20.625 6.75003Z" fill="#E07633"/>
<path d="M10.8752 8.625L9.75391 11.625H12.0039L11.2539 14.625L15.0039 10.125H12.7539L13.1252 8.625H10.8752Z" fill="#FBDE53"/>
<path d="M5.44461 3.92251V3.93001C5.44461 4.02947 5.4051 4.12485 5.33477 4.19518C5.26445 4.2655 5.16907 4.30501 5.06961 4.30501C4.99725 4.30591 4.92617 4.28585 4.86496 4.24726C4.80374 4.20867 4.755 4.15319 4.72461 4.08751C4.836 4.02744 4.95125 3.97482 5.06961 3.93001V3.92251C5.08877 3.85886 5.1113 3.79627 5.13711 3.73501C5.15211 3.68251 5.17461 3.63001 5.18961 3.57751C5.24426 3.59222 5.29428 3.62059 5.33495 3.65995C5.37562 3.69931 5.40561 3.74837 5.42211 3.80251C5.43748 3.84063 5.44512 3.88142 5.44461 3.92251ZM8.62461 4.92076C8.46939 4.92049 8.31443 4.9082 8.16111 4.88401C8.1315 4.87913 8.10255 4.87083 8.07486 4.85926C8.029 4.84046 7.98732 4.81275 7.95223 4.77774C7.91715 4.74272 7.88935 4.7011 7.87045 4.65528C7.85155 4.60946 7.84192 4.56035 7.84212 4.51078C7.84232 4.46121 7.85234 4.41218 7.87161 4.36651C7.9053 4.28335 7.96809 4.21528 8.04826 4.17498C8.12843 4.13469 8.22052 4.12493 8.30736 4.14751C8.78234 4.2145 9.26629 4.12793 9.6886 3.90045C10.1109 3.67298 10.4495 3.31649 10.6549 2.88301C10.6727 2.834 10.7006 2.78926 10.7368 2.75164C10.7729 2.71403 10.8165 2.68437 10.8648 2.66456C10.913 2.64475 10.9649 2.63523 11.017 2.6366C11.0692 2.63797 11.1205 2.6502 11.1676 2.67252C11.2148 2.69484 11.2567 2.72675 11.2908 2.76621C11.325 2.80567 11.3505 2.85181 11.3657 2.90169C11.381 2.95157 11.3857 3.00409 11.3795 3.05589C11.3734 3.10768 11.3564 3.15762 11.3299 3.20251C11.0869 3.71487 10.7039 4.14807 10.2252 4.4521C9.74657 4.75613 9.19167 4.9186 8.62461 4.92076ZM11.9471 5.31676C12.1023 5.31703 12.2573 5.32932 12.4106 5.35351C12.4402 5.35839 12.4692 5.36669 12.4969 5.37826C12.5427 5.39706 12.5844 5.42477 12.6195 5.45978C12.6546 5.4948 12.6824 5.53642 12.7013 5.58224C12.7202 5.62806 12.7298 5.67717 12.7296 5.72674C12.7294 5.77631 12.7194 5.82534 12.7001 5.87101C12.6664 5.95417 12.6036 6.02224 12.5235 6.06253C12.4433 6.10283 12.3512 6.11259 12.2644 6.09001C11.7894 6.02302 11.3054 6.10959 10.8831 6.33706C10.4608 6.56454 10.1223 6.92103 9.91686 7.35451C9.89899 7.40352 9.87109 7.44826 9.83495 7.48588C9.79881 7.52349 9.75521 7.55315 9.70696 7.57296C9.6587 7.59277 9.60684 7.60229 9.5547 7.60092C9.50255 7.59955 9.45126 7.58732 9.40411 7.565C9.35696 7.54268 9.31499 7.51077 9.28087 7.47131C9.24675 7.43185 9.22124 7.38571 9.20597 7.33583C9.1907 7.28595 9.18601 7.23343 9.19219 7.18163C9.19837 7.12984 9.21528 7.0799 9.24186 7.03501C9.48486 6.52265 9.8678 6.08945 10.3465 5.78542C10.8252 5.48139 11.38 5.31892 11.9471 5.31676ZM15.6304 7.17151C15.4751 7.17124 15.3202 7.15895 15.1669 7.13476C15.1372 7.12988 15.1083 7.12158 15.0806 7.11001C15.0347 7.09121 14.9931 7.0635 14.958 7.02849C14.9229 6.99347 14.8951 6.95185 14.8762 6.90603C14.8573 6.86021 14.8477 6.8111 14.8479 6.76153C14.8481 6.71196 14.8581 6.66293 14.8774 6.61726C14.9111 6.5341 14.9738 6.46603 15.054 6.42573C15.1342 6.38544 15.2263 6.37568 15.3131 6.39826C15.7881 6.46525 16.272 6.37868 16.6943 6.15121C17.1167 5.92373 17.4552 5.56724 17.6606 5.13376C17.6785 5.08475 17.7064 5.04001 17.7425 5.00239C17.7787 4.96478 17.8223 4.93512 17.8705 4.91531C17.9188 4.8955 17.9706 4.88598 18.0228 4.88735C18.0749 4.88872 18.1262 4.90095 18.1734 4.92327C18.2205 4.94559 18.2625 4.9775 18.2966 5.01696C18.3307 5.05642 18.3562 5.10256 18.3715 5.15244C18.3868 5.20232 18.3915 5.25484 18.3853 5.30664C18.3791 5.35843 18.3622 5.40837 18.3356 5.45326C18.0926 5.96562 17.7097 6.39882 17.231 6.70285C16.7523 7.00688 16.1974 7.16935 15.6304 7.17151ZM16.0871 2.31751C15.8983 2.74844 15.6105 3.12874 15.2471 3.42751C15.1812 3.48644 15.0955 3.51854 15.0071 3.51751C14.9296 3.51706 14.8542 3.49263 14.7912 3.44757C14.7281 3.40251 14.6806 3.33903 14.6551 3.26587C14.6297 3.1927 14.6275 3.11343 14.6488 3.03897C14.6702 2.9645 14.7142 2.89849 14.7746 2.85001C15.029 2.64159 15.2318 2.37721 15.3671 2.07751C15.3815 2.06003 15.3918 2.03952 15.3971 2.01751C15.4362 1.92834 15.509 1.85824 15.5996 1.82251C15.6513 1.8826 15.6966 1.94796 15.7346 2.01751H15.7421C15.8335 1.97873 15.9292 1.95104 16.0271 1.93501H16.0346C16.0643 1.97327 16.0872 2.01641 16.1021 2.06251V2.07001C16.1272 2.15161 16.1219 2.23953 16.0871 2.31751Z" fill="#F59831"/>
<path d="M7.52207 6.32988C7.50778 6.41995 7.4625 6.50221 7.39404 6.56246C7.32558 6.62271 7.23823 6.65716 7.14707 6.65988H7.09457C7.00879 6.64645 6.93013 6.60424 6.87152 6.54018C6.81291 6.47612 6.77784 6.39402 6.77207 6.30738C6.69336 5.8339 6.46531 5.398 6.12122 5.06336C5.77714 4.72872 5.33506 4.51288 4.85957 4.44738C4.79189 4.43703 4.72827 4.40856 4.67546 4.36498C4.62264 4.32141 4.5826 4.26436 4.55957 4.19988C4.61095 4.15733 4.66619 4.11967 4.72457 4.08738C4.83596 4.02731 4.95121 3.97469 5.06957 3.92988V3.92238C5.08873 3.85873 5.11126 3.79614 5.13707 3.73488C5.23457 3.74988 5.32457 3.77988 5.42207 3.80238C5.964 3.96741 6.44812 4.28251 6.81843 4.71122C7.18873 5.13993 7.43009 5.66472 7.51457 6.22488C7.5208 6.25952 7.52331 6.29471 7.52207 6.32988ZM14.0538 3.97488C14.0395 4.06495 13.9943 4.14721 13.9258 4.20746C13.8573 4.26771 13.77 4.30216 13.6788 4.30488H13.6263C13.5405 4.29145 13.4619 4.24924 13.4033 4.18518C13.3447 4.12112 13.3096 4.03902 13.3038 3.95238C13.2251 3.4789 12.9971 3.043 12.653 2.70836C12.3089 2.37372 11.8668 2.15788 11.3913 2.09238C11.3236 2.08203 11.26 2.05356 11.2072 2.00998C11.1544 1.96641 11.1143 1.90936 11.0913 1.84488C11.1427 1.80233 11.1979 1.76467 11.2563 1.73238C11.3677 1.67231 11.483 1.6197 11.6013 1.57488V1.56738C11.6205 1.50373 11.643 1.44114 11.6688 1.37988C11.7663 1.39488 11.8563 1.42488 11.9538 1.44738C12.4957 1.61241 12.9799 1.92751 13.3502 2.35622C13.7205 2.78493 13.9618 3.30972 14.0463 3.86988C14.0525 3.90452 14.0551 3.93972 14.0538 3.97488ZM16.1096 2.04738C16.1096 2.05488 16.1096 2.05488 16.1021 2.06238V2.06988C16.0931 2.15885 16.0512 2.24126 15.9846 2.30092C15.918 2.36059 15.8315 2.39321 15.7421 2.39238H15.7346V2.06238L15.6746 2.38488H15.6671C15.591 2.37179 15.5211 2.335 15.4672 2.27978C15.4133 2.22455 15.3783 2.15372 15.3671 2.07738C15.3608 2.04781 15.3583 2.01758 15.3596 1.98738C15.3632 1.93328 15.3794 1.88076 15.4067 1.83393C15.434 1.78709 15.4718 1.7472 15.5171 1.71738C15.5508 1.747 15.5788 1.7826 15.5996 1.82238C15.6513 1.88247 15.6965 1.94783 15.7346 2.01738H15.7421C15.8334 1.97861 15.9291 1.95091 16.0271 1.93488H16.0346C16.0522 1.92295 16.0734 1.91764 16.0946 1.91988C16.1073 1.9611 16.1124 2.00432 16.1096 2.04738Z" fill="#F59831"/>
<path d="M22.125 15.375H19.875V17.625H22.125V15.375Z" fill="#FCC37A"/>
<path d="M4.125 15.375H1.875V17.625H4.125V15.375Z" fill="#FCC37A"/>
<path d="M23.625 13.5C23.6269 13.8896 23.5397 14.2744 23.37 14.625H23.3625C23.1083 15.1637 22.678 15.5997 22.1426 15.861C21.6073 16.1222 20.9988 16.1932 20.4177 16.0621C19.8366 15.931 19.3176 15.6058 18.9462 15.14C18.5748 14.6742 18.3734 14.0957 18.375 13.5C18.3745 13.13 18.4538 12.7641 18.6075 12.4275C18.8542 11.881 19.2806 11.4355 19.8157 11.1649C20.3508 10.8944 20.9624 10.8152 21.5487 10.9406C22.1351 11.0659 22.6609 11.3882 23.0386 11.8538C23.4163 12.3195 23.6233 12.9004 23.625 13.5Z" fill="#FFD9AA"/>
<path d="M23.5841 13.0276C23.6819 13.5694 23.6069 14.1282 23.3696 14.6251H22.4996C22.4002 14.6251 22.3048 14.5856 22.2345 14.5152C22.1641 14.4449 22.1246 14.3495 22.1246 14.2501V13.4333C22.1246 13.3469 22.0948 13.2631 22.0401 13.1961C21.9855 13.1291 21.9093 13.0831 21.8246 13.0658L18.6094 12.4283C18.8385 11.9174 19.2251 11.4931 19.7125 11.2174C20.2 10.9418 20.7628 10.8293 21.3187 10.8963C21.8747 10.9633 22.3946 11.2064 22.8026 11.59C23.2106 11.9735 23.4852 12.4775 23.5864 13.0283L23.5841 13.0276Z" fill="#57565C"/>
<path d="M23.625 18.375V23.625H17.7975L17.415 21.375H15C14.7016 21.375 14.4155 21.2565 14.2045 21.0455C13.9935 20.8345 13.875 20.5484 13.875 20.25C13.875 19.9516 13.9935 19.6655 14.2045 19.4545C14.4155 19.2435 14.7016 19.125 15 19.125H17.0625L19.4625 17.205C19.728 16.9909 20.0589 16.8744 20.4 16.875H22.125C22.5225 16.8762 22.9033 17.0346 23.1843 17.3157C23.4654 17.5967 23.6238 17.9775 23.625 18.375Z" fill="#82C8EC"/>
<path d="M0.37503 13.5C0.373141 13.8896 0.460365 14.2744 0.63003 14.625H0.63753C0.891764 15.1637 1.32206 15.5997 1.85742 15.861C2.39278 16.1222 3.00121 16.1932 3.58231 16.0621C4.16342 15.931 4.68248 15.6058 5.05384 15.14C5.42521 14.6742 5.62668 14.0957 5.62503 13.5C5.62553 13.13 5.54622 12.7641 5.39253 12.4275C5.14583 11.881 4.71946 11.4355 4.18436 11.1649C3.64926 10.8944 3.03767 10.8152 2.45132 10.9406C1.86496 11.0659 1.33919 11.3882 0.961444 11.8538C0.583701 12.3195 0.376756 12.9004 0.37503 13.5Z" fill="#FFD9AA"/>
<path d="M0.415773 13.0276C0.317971 13.5694 0.39301 14.1282 0.630272 14.6251H1.50027C1.59973 14.6251 1.69511 14.5856 1.76544 14.5152C1.83576 14.4449 1.87527 14.3495 1.87527 14.2501V13.4333C1.87525 13.3469 1.90511 13.2631 1.95977 13.1961C2.01444 13.1291 2.09057 13.0831 2.17527 13.0658L5.39052 12.4283C5.16138 11.9174 4.77485 11.4931 4.2874 11.2174C3.79994 10.9418 3.23712 10.8293 2.68117 10.8963C2.12521 10.9633 1.60526 11.2064 1.19728 11.59C0.789294 11.9735 0.514668 12.4775 0.413522 13.0283L0.415773 13.0276Z" fill="#57565C"/>
<path d="M10.125 20.25C10.125 20.5484 10.0065 20.8345 9.7955 21.0455C9.58452 21.2565 9.29837 21.375 9 21.375H6.585L6.48 21.9825L6.2025 23.625H0.375V18.375C0.376187 17.9775 0.534604 17.5967 0.815651 17.3157C1.0967 17.0346 1.47754 16.8762 1.875 16.875H3.6C3.94107 16.8744 4.272 16.9909 4.5375 17.205L6.9375 19.125H9C9.29837 19.125 9.58452 19.2435 9.7955 19.4545C10.0065 19.6655 10.125 19.9516 10.125 20.25Z" fill="#55BB8C"/>
<path d="M10.125 20.25C10.125 20.5484 10.0065 20.8345 9.7955 21.0455C9.58452 21.2565 9.29837 21.375 9 21.375H7.875V19.125H9C9.29837 19.125 9.58452 19.2435 9.7955 19.4545C10.0065 19.6655 10.125 19.9516 10.125 20.25ZM16.125 19.125V21.375H15C14.7016 21.375 14.4155 21.2565 14.2045 21.0455C13.9935 20.8345 13.875 20.5484 13.875 20.25C13.875 19.9516 13.9935 19.6655 14.2045 19.4545C14.4155 19.2435 14.7016 19.125 15 19.125H16.125Z" fill="#FFD9AA"/>
<path d="M6.94516 21.375H6.58516L6.48016 21.9825C6.44276 21.967 6.40748 21.9469 6.37516 21.9225L3.15766 19.485C3.07345 19.4184 3.01851 19.3216 3.0045 19.2152C2.9905 19.1088 3.01854 19.0011 3.08266 18.915C3.11386 18.8722 3.15327 18.8361 3.19859 18.8088C3.2439 18.7814 3.29422 18.7634 3.34659 18.7557C3.39897 18.748 3.45235 18.7508 3.50361 18.764C3.55488 18.7772 3.603 18.8005 3.64516 18.8325L6.85516 21.27C6.8911 21.2994 6.92156 21.335 6.94516 21.375Z" fill="#3EB57B"/>
<path d="M17.0557 21.375H17.4157L17.5207 21.9825C17.5581 21.967 17.5933 21.9469 17.6257 21.9225L20.8432 19.485C20.9274 19.4184 20.9823 19.3216 20.9963 19.2152C21.0103 19.1088 20.9823 19.0011 20.9182 18.915C20.887 18.8722 20.8476 18.8361 20.8022 18.8088C20.7569 18.7814 20.7066 18.7634 20.6542 18.7557C20.6019 18.748 20.5485 18.7508 20.4972 18.764C20.4459 18.7772 20.3978 18.8005 20.3557 18.8325L17.1457 21.27C17.1097 21.2994 17.0793 21.335 17.0557 21.375Z" fill="#54BBE8"/>
<path d="M8.25 19.125H7.5V21.375H8.25V19.125Z" fill="#3EB57B"/>
<path d="M16.5 19.125H15.75V21.375H16.5V19.125Z" fill="#54BBE8"/>
<path d="M4.5 21.375H19.5C19.5995 21.375 19.6948 21.4145 19.7652 21.4848C19.8355 21.5552 19.875 21.6505 19.875 21.75V23.625H4.125V21.75C4.125 21.6505 4.16451 21.5552 4.23484 21.4848C4.30516 21.4145 4.40054 21.375 4.5 21.375Z" fill="#57565C"/>
</g>
<defs>
<clipPath id="clip0_157_4381">
<rect width="24" height="24" fill="white"/>
</clipPath>
</defs>
</svg>
