<svg width="24" height="24" viewBox="0 0 24 24" fill="none" xmlns="http://www.w3.org/2000/svg">
<path d="M17.0429 6.6721C17.0429 7.74994 16.3419 9.2395 15.4946 10.0533C15.1187 10.4147 14.7138 10.6427 14.3285 10.6427C14.0929 10.6421 13.8586 10.6077 13.6329 10.5405C13.3469 10.4538 13.0416 10.4538 12.7556 10.5405C12.5299 10.6077 12.2957 10.6422 12.0602 10.6427C11.6564 10.6427 11.2311 10.3922 10.84 10.0003C10.017 9.17626 9.3457 7.72684 9.3457 6.6721C9.3457 5.11588 10.2766 4.17574 11.1519 3.94882C11.5712 3.8401 12.0578 3.91006 12.4507 4.01242C12.9383 4.13966 13.4503 4.13966 13.9379 4.01242C14.3309 3.91012 14.8172 3.8401 15.2367 3.94882C16.112 4.17574 17.0429 5.11594 17.0429 6.6721Z" fill="#FFBE55"/>
<path d="M14.0005 4.59692C14.0005 4.77398 13.7225 4.92128 13.3535 4.95476C13.3021 4.95962 13.249 4.9619 13.1945 4.9619C13.1392 4.96197 13.084 4.95947 13.0289 4.9544C12.6634 4.91954 12.3887 4.7729 12.3887 4.59692H14.0005Z" fill="#FCD2B1"/>
<path d="M12.6328 2.91336C12.6516 2.90335 12.6722 2.89714 12.6934 2.89509C12.7146 2.89304 12.7359 2.8952 12.7563 2.90143C12.7766 2.90766 12.7956 2.91785 12.812 2.93141C12.8284 2.94496 12.842 2.96163 12.8519 2.98044C12.8614 2.99856 12.9805 3.2262 13.1007 3.5892L13.5388 2.92398C13.5505 2.9062 13.5656 2.8909 13.5832 2.87896C13.6008 2.86701 13.6206 2.85866 13.6414 2.85438C13.6622 2.8501 13.6837 2.84997 13.7046 2.85401C13.7255 2.85805 13.7454 2.86616 13.7631 2.8779C13.7809 2.88956 13.7962 2.90462 13.8081 2.92221C13.8201 2.9398 13.8285 2.95958 13.8328 2.98041C13.8371 3.00124 13.8372 3.02271 13.8332 3.0436C13.8292 3.06448 13.8211 3.08437 13.8094 3.10212L13.2181 4.00002C13.2662 4.19654 13.3021 4.39584 13.3256 4.59678C13.3392 4.71234 13.3489 4.83192 13.3535 4.95462C13.3021 4.95948 13.2489 4.96176 13.1944 4.96176C13.1391 4.96183 13.0839 4.95931 13.0289 4.9542C13.0241 4.83468 13.0141 4.71543 12.999 4.59678" fill="#2A94F4"/>
<path d="M3.52509 21.1145V18.3934C3.52509 17.9072 3.91923 17.513 4.40541 17.513H21.4522V21.9948H4.40541C3.91923 21.9948 3.52509 21.6007 3.52509 21.1145ZM2.88477 11.7507H19.2113V16.5527H2.88477V11.7507Z" fill="#F2F2F2"/>
<path d="M3.19629 20.7143V18.7935C3.19629 17.911 3.91443 17.1929 4.79697 17.1929H21.7638C21.8058 17.1929 21.8474 17.2011 21.8863 17.2172C21.9251 17.2333 21.9604 17.2569 21.9902 17.2866C22.0199 17.3163 22.0435 17.3516 22.0595 17.3905C22.0756 17.4293 22.0839 17.4709 22.0839 17.513C22.0839 17.555 22.0756 17.5967 22.0596 17.6355C22.0435 17.6744 22.0199 17.7097 21.9902 17.7394C21.9605 17.7692 21.9252 17.7928 21.8863 17.8088C21.8475 17.8249 21.8058 17.8332 21.7638 17.8332H4.79697C4.26735 17.8332 3.83655 18.264 3.83655 18.7935V20.7143C3.83655 21.244 4.26735 21.6748 4.79697 21.6748H21.7638C21.8058 21.6747 21.8474 21.683 21.8863 21.6991C21.9251 21.7151 21.9604 21.7387 21.9902 21.7685C22.0199 21.7982 22.0435 21.8335 22.0596 21.8723C22.0756 21.9112 22.0839 21.9528 22.0839 21.9949C22.0839 22.0369 22.0756 22.0785 22.0596 22.1174C22.0435 22.1562 22.0199 22.1915 21.9902 22.2212C21.9604 22.251 21.9251 22.2746 21.8863 22.2906C21.8474 22.3067 21.8058 22.315 21.7638 22.315H4.79697C3.91443 22.315 3.19629 21.5968 3.19629 20.7143Z" fill="#0B4870"/>
<path d="M2.88477 12.7112H17.6107C17.6949 12.7123 17.7752 12.7466 17.8343 12.8065C17.8934 12.8664 17.9265 12.9472 17.9265 13.0313C17.9265 13.1155 17.8934 13.1962 17.8343 13.2561C17.7752 13.3161 17.6949 13.3503 17.6107 13.3514H2.88477V12.7112ZM2.88477 13.9916H17.6107C17.6946 13.9932 17.7744 14.0276 17.8332 14.0875C17.8919 14.1474 17.9248 14.2279 17.9248 14.3117C17.9248 14.3956 17.8919 14.4761 17.8332 14.536C17.7744 14.5958 17.6946 14.6303 17.6107 14.6319H2.88477V13.9916ZM2.88477 15.2722H17.6107C17.6956 15.2722 17.7771 15.3059 17.8371 15.366C17.8971 15.426 17.9308 15.5074 17.9308 15.5923C17.9308 15.6772 17.8971 15.7586 17.8371 15.8186C17.777 15.8787 17.6956 15.9124 17.6107 15.9124H2.88477V15.2722ZM21.4522 19.1137H4.80561C4.72069 19.1137 4.63926 19.08 4.57922 19.0199C4.51918 18.9599 4.48545 18.8785 4.48545 18.7936C4.48545 18.7086 4.51918 18.6272 4.57922 18.5672C4.63926 18.5071 4.72069 18.4734 4.80561 18.4734H21.4522V19.1137ZM21.4522 20.3942H4.80561C4.72069 20.3942 4.63926 20.3605 4.57922 20.3005C4.51918 20.2404 4.48545 20.159 4.48545 20.0741C4.48545 19.9892 4.51918 19.9077 4.57922 19.8477C4.63926 19.7877 4.72069 19.7539 4.80561 19.7539H21.4522V20.3942ZM21.4522 21.6748H4.80561C4.72177 21.6731 4.64191 21.6387 4.58319 21.5788C4.52448 21.519 4.49158 21.4385 4.49158 21.3546C4.49158 21.2707 4.52448 21.1902 4.58319 21.1304C4.64191 21.0705 4.72177 21.0361 4.80561 21.0344H21.4522V21.6748Z" fill="#D3D3D3"/>
<path d="M1.91602 16.5527C1.91602 16.1991 2.2027 15.9124 2.55628 15.9124H17.9225C18.2756 15.9124 18.5627 15.6251 18.5627 15.2722V12.7111C18.5627 12.358 18.2756 12.0709 17.9225 12.0709H2.55628C2.2027 12.0709 1.91602 11.7842 1.91602 11.4306C1.91602 11.077 2.2027 10.7903 2.55628 10.7903H17.9225C18.9816 10.7903 19.8433 11.6519 19.8433 12.7111V15.2722C19.8433 16.3313 18.9817 17.1929 17.9225 17.1929H2.55628C2.2027 17.1929 1.91602 16.9063 1.91602 16.5527Z" fill="#2A94F4"/>
</svg>
