<svg width="9" height="10" viewBox="0 0 9 10" fill="none" xmlns="http://www.w3.org/2000/svg">
<path fill-rule="evenodd" clip-rule="evenodd" d="M4.60805 8.32547C5.47975 8.32547 6.31575 7.97919 6.93214 7.3628C7.54853 6.74642 7.89481 5.91042 7.89481 5.03871C7.89481 4.16701 7.54853 3.33101 6.93214 2.71462C6.31575 2.09824 5.47975 1.75195 4.60805 1.75195C3.73635 1.75195 2.90035 2.09824 2.28396 2.71462C1.66757 3.33101 1.32129 4.16701 1.32129 5.03871C1.32129 5.91042 1.66757 6.74642 2.28396 7.3628C2.90035 7.97919 3.73635 8.32547 4.60805 8.32547ZM6.13105 4.50749C6.20589 4.43 6.2473 4.32622 6.24636 4.2185C6.24543 4.11078 6.20222 4.00773 6.12605 3.93156C6.04987 3.85539 5.94683 3.81218 5.8391 3.81124C5.73138 3.81031 5.6276 3.85172 5.55012 3.92656L4.1972 5.27947L3.66598 4.74825C3.58849 4.67341 3.48471 4.632 3.37699 4.63293C3.26927 4.63387 3.16622 4.67708 3.09005 4.75325C3.01388 4.82942 2.97067 4.93247 2.96973 5.04019C2.9688 5.14791 3.01021 5.25169 3.08505 5.32918L3.90674 6.15087C3.98378 6.22789 4.08826 6.27116 4.1972 6.27116C4.30614 6.27116 4.41063 6.22789 4.48767 6.15087L6.13105 4.50749Z" fill="#63CBF2"/>
</svg>
