<svg width="24" height="22" viewBox="0 0 24 22" fill="none" xmlns="http://www.w3.org/2000/svg">
<path d="M10.8937 13.7544H22.0664C22.3041 13.7544 22.4961 13.9193 22.4961 14.1249V19.6813C22.4962 19.73 22.4852 19.7782 22.4636 19.8232C22.4421 19.8682 22.4104 19.9091 22.3705 19.9435C22.3306 19.9779 22.2831 20.0052 22.231 20.0238C22.1788 20.0424 22.1229 20.052 22.0664 20.0519H10.8937C10.8372 20.052 10.7812 20.0424 10.7291 20.0238C10.6769 20.0052 10.6294 19.9779 10.5895 19.9435C10.5496 19.9091 10.518 19.8682 10.4964 19.8232C10.4749 19.7782 10.4638 19.73 10.4639 19.6813V14.1249C10.4639 13.9193 10.6559 13.7544 10.8937 13.7544Z" fill="#34485C"/>
<path d="M15.043 13.9134V12.6165H17.6215V13.9127" stroke="#576D7E" stroke-linecap="round" stroke-linejoin="round"/>
<path d="M10.8937 13.7544C10.8372 13.7543 10.7812 13.7639 10.7291 13.7825C10.6769 13.8011 10.6294 13.8283 10.5895 13.8628C10.5496 13.8972 10.518 13.9381 10.4964 13.983C10.4749 14.028 10.4638 14.0762 10.4639 14.1249V15.3618C10.4639 16.0381 11.1344 16.5818 11.9676 16.5818H20.9924C21.8249 16.5818 22.4961 16.0381 22.4961 15.3618V14.1249C22.4962 14.0762 22.4852 14.028 22.4636 13.983C22.4421 13.9381 22.4104 13.8972 22.3705 13.8628C22.3306 13.8283 22.2831 13.8011 22.231 13.7825C22.1788 13.7639 22.1229 13.7543 22.0664 13.7544H10.8937Z" fill="#2B4255"/>
<path d="M5.61914 8.1087V3.15349C5.61914 3.02288 5.72411 2.91821 5.85461 2.91821H9.15161C9.28211 2.91821 9.38713 3.02288 9.38713 3.15349V8.1087" stroke="#34485C" stroke-linecap="round" stroke-linejoin="round"/>
<path d="M5.4707 4.00513H9.53569" stroke="#34485C"/>
<path d="M5.77539 3.19116H9.2299V3.73424H5.77539V3.19116Z" fill="#78C8F0"/>
<path d="M11.9962 7.76733H3C2.58579 7.76733 2.25 8.05681 2.25 8.41389V18.1122C2.25 18.4692 2.58579 18.7587 3 18.7587H11.9962C12.4105 18.7587 12.7462 18.4692 12.7462 18.1122V8.41389C12.7462 8.05681 12.4105 7.76733 11.9962 7.76733Z" fill="#F05542"/>
<path fill-rule="evenodd" clip-rule="evenodd" d="M5.62109 11.1442V9.97339C5.62109 9.64753 5.93458 9.38501 6.32458 9.38501H8.6676C9.0576 9.38501 9.37109 9.64689 9.37109 9.97339V11.1442" fill="#F17F53"/>
<path d="M5.62109 11.1442V9.97339C5.62109 9.64753 5.93458 9.38501 6.32458 9.38501H8.6676C9.0576 9.38501 9.37109 9.64689 9.37109 9.97339V11.1442" stroke="#2B4255" stroke-linecap="round" stroke-linejoin="round"/>
<path fill-rule="evenodd" clip-rule="evenodd" d="M4.13477 18.7735V14.1215C4.13477 13.6495 4.58474 13.2693 5.14349 13.2693H9.85278C9.98397 13.2681 10.1141 13.2891 10.2359 13.3313C10.3576 13.3735 10.4685 13.4359 10.5622 13.515C10.6559 13.5942 10.7306 13.6885 10.782 13.7926C10.8333 13.8967 10.8603 14.0084 10.8615 14.1215V18.7735" fill="#F17F53"/>
<path d="M4.13477 18.7735V14.1215C4.13477 13.6495 4.58474 13.2693 5.14349 13.2693H9.85278C9.98397 13.2681 10.1141 13.2891 10.2359 13.3313C10.3576 13.3735 10.4685 13.4359 10.5622 13.515C10.6559 13.5942 10.7306 13.6885 10.782 13.7926C10.8333 13.8967 10.8603 14.0084 10.8615 14.1215V18.7735" stroke="#2B4255" stroke-linejoin="round"/>
<path fill-rule="evenodd" clip-rule="evenodd" d="M4.21777 14.556H10.778H4.21777ZM8.99751 14.406V15.5265V14.406Z" fill="#F17F53"/>
<path d="M4.21777 14.556H10.778M8.99751 14.406V15.5265" stroke="#2B4255"/>
<path d="M2.25 11.324H12.7462" stroke="#2B4255"/>
<path d="M4.12109 19.7287C4.53531 19.7287 4.87109 19.4392 4.87109 19.0821C4.87109 18.725 4.53531 18.4355 4.12109 18.4355C3.70688 18.4355 3.37109 18.725 3.37109 19.0821C3.37109 19.4392 3.70688 19.7287 4.12109 19.7287Z" fill="#FCD062" stroke="#F8B84E" stroke-linecap="round" stroke-linejoin="round"/>
<path d="M10.8711 19.7287C11.2853 19.7287 11.6211 19.4392 11.6211 19.0821C11.6211 18.725 11.2853 18.4355 10.8711 18.4355C10.4569 18.4355 10.1211 18.725 10.1211 19.0821C10.1211 19.4392 10.4569 19.7287 10.8711 19.7287Z" fill="#FCD062" stroke="#F8B84E" stroke-linecap="round" stroke-linejoin="round"/>
<path d="M17.34 16.1621H16.0508V16.9031H17.34V16.1621Z" fill="#F8B74E" fill-opacity="0.976"/>
</svg>
