<svg width="51" height="77" viewBox="0 0 51 77" fill="none" xmlns="http://www.w3.org/2000/svg">
<path fill-rule="evenodd" clip-rule="evenodd" d="M0.25 12.5471C0.25 5.73036 5.10103 0.879883 11.9172 0.879883H38.5828C45.3995 0.879883 50.25 5.73091 50.25 12.5471V40.046C50.25 46.0294 45.399 50.8799 39.4161 50.8799H11.0839C5.10048 50.8799 0.25 46.0289 0.25 40.046V12.5471Z" fill="#63CBF2"/>
<path fill-rule="evenodd" clip-rule="evenodd" d="M39.8087 16.6554C38.7227 17.1422 37.5517 17.4693 36.3241 17.6178C37.5775 16.8643 38.5391 15.6672 38.9929 14.2431C37.8219 14.9431 36.5232 15.4514 35.1412 15.7233C34.0337 14.5365 32.4587 13.7969 30.7147 13.7969C27.364 13.7969 24.648 16.5294 24.648 19.899C24.648 20.3745 24.7029 20.8432 24.8076 21.2877C19.7661 21.0313 15.2958 18.6043 12.3054 14.912C11.7847 15.8157 11.4862 16.8643 11.4862 17.9786C11.4862 20.0975 12.5533 21.9652 14.1841 23.0579C13.1907 23.0277 12.2539 22.7524 11.4347 22.2958V22.3735C11.4347 25.3304 13.5261 27.7946 16.3004 28.3564C15.7908 28.4928 15.2547 28.567 14.7056 28.567C14.3136 28.567 13.9336 28.5316 13.563 28.4609C14.335 30.8853 16.5757 32.6469 19.2282 32.6952C17.1522 34.3308 14.5384 35.3078 11.6972 35.3078C11.2065 35.3078 10.7218 35.2793 10.25 35.2215C12.9325 36.9511 16.1211 37.9627 19.5473 37.9627C30.7044 37.9627 36.8045 28.6671 36.8045 20.6032C36.8045 20.34 36.796 20.0759 36.7865 19.8161C37.9686 18.9573 38.9963 17.8828 39.8087 16.6554Z" fill="white"/>
<path d="M11.1948 63.4199V64.3079H8.80677V71.8799H7.71477V64.3079H5.32677V63.4199H11.1948ZM21.3283 65.2919L19.4323 71.8799H18.2563L16.4443 66.5159L14.6203 71.8799H13.4323L11.5603 65.2919H12.6643L14.0683 70.8359L15.8923 65.2919H17.0323L18.8683 70.8239L20.2843 65.2919H21.3283ZM22.1547 63.3599C22.1547 63.1599 22.2227 62.9999 22.3587 62.8799C22.4947 62.7519 22.6747 62.6879 22.8987 62.6879C23.1227 62.6879 23.3027 62.7519 23.4387 62.8799C23.5747 62.9999 23.6427 63.1599 23.6427 63.3599C23.6427 63.5599 23.5747 63.7239 23.4387 63.8519C23.3027 63.9719 23.1227 64.0319 22.8987 64.0319C22.6747 64.0319 22.4947 63.9719 22.3587 63.8519C22.2227 63.7239 22.1547 63.5599 22.1547 63.3599ZM23.4387 65.2919V71.8799H22.3467V65.2919H23.4387ZM28.3384 70.9199V71.8799H27.5224C26.8504 71.8799 26.3464 71.7199 26.0104 71.3999C25.6824 71.0799 25.5184 70.5439 25.5184 69.7919V66.2399H24.5344V65.2919H25.5184V63.6479H26.6224V65.2919H28.3264V66.2399H26.6224V69.8159C26.6224 70.2399 26.6984 70.5319 26.8504 70.6919C27.0104 70.8439 27.2824 70.9199 27.6664 70.9199H28.3384ZM32.8149 70.9199V71.8799H31.9989C31.3269 71.8799 30.8229 71.7199 30.4869 71.3999C30.1589 71.0799 29.9949 70.5439 29.9949 69.7919V66.2399H29.0109V65.2919H29.9949V63.6479H31.0989V65.2919H32.8029V66.2399H31.0989V69.8159C31.0989 70.2399 31.1749 70.5319 31.3269 70.6919C31.4869 70.8439 31.7589 70.9199 32.1429 70.9199H32.8149ZM40.2075 68.2199C40.2075 68.4519 40.1915 68.6519 40.1595 68.8199H34.8915C34.9155 69.5719 35.1275 70.1359 35.5275 70.5119C35.9355 70.8879 36.4315 71.0759 37.0155 71.0759C37.5435 71.0759 37.9835 70.9439 38.3355 70.6799C38.6955 70.4079 38.9155 70.0479 38.9955 69.5999H40.1595C40.0795 70.0559 39.8995 70.4639 39.6195 70.8239C39.3475 71.1839 38.9915 71.4639 38.5515 71.6639C38.1115 71.8639 37.6155 71.9639 37.0635 71.9639C36.4315 71.9639 35.8715 71.8279 35.3835 71.5559C34.8955 71.2839 34.5115 70.8959 34.2315 70.3919C33.9595 69.8799 33.8235 69.2799 33.8235 68.5919C33.8235 67.9039 33.9595 67.3039 34.2315 66.7919C34.5115 66.2799 34.8955 65.8879 35.3835 65.6159C35.8715 65.3439 36.4315 65.2079 37.0635 65.2079C37.7035 65.2079 38.2595 65.3439 38.7315 65.6159C39.2115 65.8879 39.5755 66.2519 39.8235 66.7079C40.0795 67.1639 40.2075 67.6679 40.2075 68.2199ZM39.1035 68.2919C39.1275 67.8039 39.0475 67.3959 38.8635 67.0679C38.6795 66.7399 38.4275 66.4959 38.1075 66.3359C37.7875 66.1759 37.4395 66.0959 37.0635 66.0959C36.4635 66.0959 35.9595 66.2839 35.5515 66.6599C35.1435 67.0279 34.9235 67.5719 34.8915 68.2919H39.1035ZM42.7278 66.6239C42.9438 66.1679 43.2598 65.8159 43.6758 65.5679C44.0918 65.3119 44.5878 65.1839 45.1638 65.1839V66.3719H44.8278C44.2118 66.3719 43.7078 66.5319 43.3158 66.8519C42.9238 67.1639 42.7278 67.6839 42.7278 68.4119V71.8799H41.6358V65.2919H42.7278V66.6239Z" fill="black"/>
</svg>
