<svg width="14" height="16" viewBox="0 0 14 16" fill="none" xmlns="http://www.w3.org/2000/svg">
<path d="M7.91472 14.0443C8.25295 14.0554 8.58487 14.1385 8.88827 14.2878C8.98846 14.4062 8.99558 14.5811 8.8981 14.7081L8.8929 14.7149L8.88801 14.7219C8.52807 15.238 7.95241 15.5633 7.32303 15.6058L7.31353 15.6065L7.30408 15.6076C6.63871 15.6866 5.96903 15.501 5.44002 15.0911L5.43184 15.0848L5.42333 15.0789C5.20728 14.9299 5.06512 14.697 5.03089 14.4385C5.03479 14.3849 5.05777 14.3449 5.11436 14.3008C5.18847 14.243 5.30589 14.194 5.44913 14.1611C5.82356 14.0825 6.20516 14.043 6.5878 14.043L7.91472 14.0443ZM11.9742 6.05114L11.976 6.07345L11.9804 6.09539C12.1309 6.84877 12.476 7.54959 12.9814 8.12852C13.227 8.50338 13.3697 8.93592 13.3955 9.38302L13.3953 9.53598L13.3953 9.53827C13.3985 10.1546 13.1788 10.7514 12.7765 11.2193C12.2502 11.7806 11.5379 12.133 10.771 12.2111L10.7709 12.211L10.7614 12.2122C8.25384 12.5327 5.71538 12.5302 3.20847 12.2047L3.2085 12.2045L3.19562 12.2032C2.42116 12.1297 1.70063 11.7765 1.16937 11.2104C0.783189 10.7388 0.581307 10.1437 0.601124 9.53507L0.60131 9.53508L0.601322 9.52324L0.601475 9.36996C0.627241 8.92401 0.766342 8.49198 1.00562 8.11449C1.51242 7.5375 1.86258 6.84025 2.0223 6.08929L2.02736 6.06549L2.0293 6.04123C2.05214 5.75621 2.05242 5.47176 2.05269 5.20426L2.0527 5.19742C2.05297 4.92459 2.05342 4.66892 2.07332 4.41747C2.32505 2.0547 4.62113 0.373022 6.96464 0.375356L7.03592 0.375427C9.35469 0.377736 11.6936 2.06719 11.9334 4.42698C11.9528 4.6749 11.9528 4.93048 11.9525 5.20462L11.9525 5.21153C11.9522 5.47986 11.952 5.76607 11.9742 6.05114Z" stroke="#BDBDBD" stroke-width="0.75"/>
</svg>
