<svg width="60" height="76" viewBox="0 0 60 76" fill="none" xmlns="http://www.w3.org/2000/svg">
<path fill-rule="evenodd" clip-rule="evenodd" d="M37.5679 0.379883C42.5875 0.379883 45.0967 0.379883 47.7988 1.23405C50.7487 2.3078 53.0721 4.63113 54.1458 7.58113C55 10.2828 55 12.7928 55 17.812V32.9478C55 37.9674 55 40.4766 54.1458 43.1786C53.0721 46.1286 50.7487 48.452 47.7988 49.5253C45.0967 50.3799 42.5875 50.3799 37.5679 50.3799H22.4321C17.4125 50.3799 14.9029 50.3799 12.2013 49.5253C9.25125 48.452 6.92792 46.1286 5.85417 43.1786C5 40.4766 5 37.9674 5 32.9478V17.812C5 12.7928 5 10.2828 5.85417 7.58113C6.92792 4.63113 9.25125 2.3078 12.2013 1.23405C14.9029 0.379883 17.4125 0.379883 22.4321 0.379883H37.5679Z" fill="#25D366"/>
<path d="M41.0727 14.2434C38.1344 11.302 34.2277 9.68164 30.0652 9.67969C21.4895 9.67969 14.5082 16.6594 14.5055 25.2387C14.5039 27.9816 15.2207 30.6586 16.582 33.0172L14.375 41.0805L22.623 38.9172C24.8961 40.1559 27.4547 40.8094 30.059 40.8105H30.0656C38.6414 40.8105 45.6215 33.8297 45.625 25.2508C45.627 21.0937 44.0094 17.1844 41.0727 14.2434ZM30.0656 38.1824H30.0605C27.7391 38.1816 25.4633 37.5582 23.4773 36.3801L23.0051 36.0996L18.1105 37.3836L19.4164 32.6117L19.109 32.1211C17.8141 30.0625 17.1301 27.6832 17.1316 25.2387C17.134 18.1086 22.9359 12.3074 30.0695 12.3074C33.5242 12.3082 36.7707 13.6555 39.2129 16.1004C41.6547 18.5449 42.9984 21.7937 42.9977 25.2496C42.9953 32.3809 37.1934 38.1824 30.0656 38.1824ZM37.1594 28.4969C36.7703 28.302 34.859 27.3625 34.5023 27.2316C34.1457 27.102 33.8875 27.0375 33.6281 27.4266C33.3688 27.8156 32.6238 28.6918 32.3965 28.9512C32.1699 29.2105 31.9434 29.2434 31.5543 29.0484C31.1652 28.8535 29.9129 28.4434 28.4289 27.1184C27.2727 26.0883 26.4922 24.8141 26.2656 24.425C26.0391 24.0359 26.2414 23.8262 26.4363 23.632C26.6113 23.4578 26.8254 23.1781 27.0195 22.9508C27.2137 22.7234 27.2785 22.5613 27.4082 22.3023C27.5379 22.043 27.4734 21.816 27.3758 21.6215C27.2781 21.4266 26.5008 19.5129 26.1773 18.7344C25.8613 17.9762 25.541 18.0789 25.3027 18.0672C25.0754 18.0562 24.8164 18.0531 24.5574 18.0531C24.2984 18.0531 23.877 18.1504 23.5207 18.5398C23.1648 18.9289 22.1602 19.8691 22.1602 21.7836C22.1602 23.6969 23.5531 25.5461 23.7477 25.8051C23.9422 26.0641 26.4891 29.9918 30.3891 31.6758C31.3164 32.0758 32.041 32.3152 32.6055 32.4949C33.5367 32.7914 34.3844 32.7488 35.0547 32.6488C35.8016 32.5375 37.3547 31.7086 37.6793 30.8004C38.0031 29.8926 38.0031 29.1145 37.9051 28.952C37.807 28.7891 37.5477 28.6918 37.1594 28.4969Z" fill="white"/>
<path d="M11.7336 62.6249L9.76456 70.3799H8.54356L6.75055 64.0439L4.95755 70.3799H3.73655L1.75655 62.6249H2.86755L4.35255 69.2139L6.18955 62.6249H7.30055L9.13756 69.1919L10.6336 62.6249H11.7336ZM16.0855 64.2419C16.7895 64.2419 17.3578 64.4692 17.7905 64.9239C18.2232 65.3712 18.4395 66.0202 18.4395 66.8709V70.3799H17.4385V66.9589C17.4385 66.3575 17.2845 65.8955 16.9765 65.5729C16.6685 65.2502 16.2505 65.0889 15.7225 65.0889C15.1725 65.0889 14.7325 65.2685 14.4025 65.6279C14.0725 65.9799 13.9075 66.4969 13.9075 67.1789V70.3799H12.9065V62.2399H13.9075V65.7709C14.0615 65.2795 14.3328 64.9019 14.7215 64.6379C15.1175 64.3739 15.5722 64.2419 16.0855 64.2419ZM22.4499 64.2639C23.0365 64.2639 23.5315 64.4105 23.9349 64.7039C24.3455 64.9972 24.6315 65.3895 24.7929 65.8809V64.3409H25.7939V70.3799H24.7929V68.8399C24.6315 69.3312 24.3455 69.7235 23.9349 70.0169C23.5315 70.3102 23.0365 70.4569 22.4499 70.4569C21.9145 70.4569 21.4379 70.3322 21.0199 70.0829C20.6019 69.8335 20.2719 69.4779 20.0299 69.0159C19.7952 68.5465 19.6779 67.9965 19.6779 67.3659C19.6779 66.7352 19.7952 66.1852 20.0299 65.7159C20.2719 65.2465 20.6019 64.8872 21.0199 64.6379C21.4379 64.3885 21.9145 64.2639 22.4499 64.2639ZM22.7359 65.1549C22.1199 65.1549 21.6249 65.3529 21.2509 65.7489C20.8842 66.1375 20.7009 66.6765 20.7009 67.3659C20.7009 68.0552 20.8842 68.5979 21.2509 68.9939C21.6249 69.3825 22.1199 69.5769 22.7359 69.5769C23.1319 69.5769 23.4839 69.4852 23.7919 69.3019C24.1072 69.1185 24.3529 68.8619 24.5289 68.5319C24.7049 68.1945 24.7929 67.8059 24.7929 67.3659C24.7929 66.9259 24.7049 66.5372 24.5289 66.1999C24.3529 65.8625 24.1072 65.6059 23.7919 65.4299C23.4839 65.2465 23.1319 65.1549 22.7359 65.1549ZM30.269 69.4999V70.3799H29.521C28.905 70.3799 28.443 70.2332 28.135 69.9399C27.8343 69.6465 27.684 69.1552 27.684 68.4659V65.2099H26.782V64.3409H27.684V62.8339H28.696V64.3409H30.258V65.2099H28.696V68.4879C28.696 68.8765 28.7657 69.1442 28.905 69.2909C29.0517 69.4302 29.301 69.4999 29.653 69.4999H30.269ZM33.3825 64.2639C34.0645 64.2639 34.6108 64.4435 35.0215 64.8029C35.4395 65.1549 35.6925 65.6315 35.7805 66.2329H34.8235C34.7795 65.8735 34.6292 65.5802 34.3725 65.3529C34.1232 65.1182 33.7858 65.0009 33.3605 65.0009C33.0012 65.0009 32.7188 65.0889 32.5135 65.2649C32.3155 65.4335 32.2165 65.6645 32.2165 65.9579C32.2165 66.1779 32.2825 66.3575 32.4145 66.4969C32.5538 66.6289 32.7225 66.7315 32.9205 66.8049C33.1258 66.8709 33.4045 66.9442 33.7565 67.0249C34.2038 67.1275 34.5632 67.2339 34.8345 67.3439C35.1132 67.4465 35.3478 67.6152 35.5385 67.8499C35.7365 68.0845 35.8355 68.3999 35.8355 68.7959C35.8355 69.2872 35.6485 69.6869 35.2745 69.9949C34.9078 70.3029 34.4165 70.4569 33.8005 70.4569C33.0818 70.4569 32.4952 70.2845 32.0405 69.9399C31.5858 69.5952 31.3182 69.1149 31.2375 68.4989H32.2055C32.2422 68.8655 32.3998 69.1625 32.6785 69.3899C32.9645 69.6172 33.3385 69.7309 33.8005 69.7309C34.1452 69.7309 34.4128 69.6429 34.6035 69.4669C34.8015 69.2909 34.9005 69.0599 34.9005 68.7739C34.9005 68.5392 34.8308 68.3522 34.6915 68.2129C34.5522 68.0735 34.3798 67.9672 34.1745 67.8939C33.9692 67.8205 33.6868 67.7435 33.3275 67.6629C32.8802 67.5602 32.5208 67.4575 32.2495 67.3549C31.9855 67.2522 31.7582 67.0909 31.5675 66.8709C31.3842 66.6435 31.2925 66.3392 31.2925 65.9579C31.2925 65.4519 31.4795 65.0449 31.8535 64.7369C32.2275 64.4215 32.7372 64.2639 33.3825 64.2639ZM39.6481 64.2639C40.2348 64.2639 40.7298 64.4105 41.1331 64.7039C41.5438 64.9972 41.8298 65.3895 41.9911 65.8809V64.3409H42.9921V70.3799H41.9911V68.8399C41.8298 69.3312 41.5438 69.7235 41.1331 70.0169C40.7298 70.3102 40.2348 70.4569 39.6481 70.4569C39.1128 70.4569 38.6361 70.3322 38.2181 70.0829C37.8001 69.8335 37.4701 69.4779 37.2281 69.0159C36.9935 68.5465 36.8761 67.9965 36.8761 67.3659C36.8761 66.7352 36.9935 66.1852 37.2281 65.7159C37.4701 65.2465 37.8001 64.8872 38.2181 64.6379C38.6361 64.3885 39.1128 64.2639 39.6481 64.2639ZM39.9341 65.1549C39.3181 65.1549 38.8231 65.3529 38.4491 65.7489C38.0825 66.1375 37.8991 66.6765 37.8991 67.3659C37.8991 68.0552 38.0825 68.5979 38.4491 68.9939C38.8231 69.3825 39.3181 69.5769 39.9341 69.5769C40.3301 69.5769 40.6821 69.4852 40.9901 69.3019C41.3055 69.1185 41.5511 68.8619 41.7271 68.5319C41.9031 68.1945 41.9911 67.8059 41.9911 67.3659C41.9911 66.9259 41.9031 66.5372 41.7271 66.1999C41.5511 65.8625 41.3055 65.6059 40.9901 65.4299C40.6821 65.2465 40.3301 65.1549 39.9341 65.1549ZM47.9182 64.2639C48.4536 64.2639 48.9302 64.3885 49.3482 64.6379C49.7662 64.8872 50.0926 65.2465 50.3272 65.7159C50.5692 66.1852 50.6902 66.7352 50.6902 67.3659C50.6902 67.9965 50.5692 68.5465 50.3272 69.0159C50.0926 69.4779 49.7662 69.8335 49.3482 70.0829C48.9302 70.3322 48.4536 70.4569 47.9182 70.4569C47.3316 70.4569 46.8329 70.3102 46.4222 70.0169C46.0189 69.7162 45.7402 69.3239 45.5862 68.8399V73.2399H44.5852V64.3409H45.5862V65.8809C45.7402 65.3969 46.0189 65.0082 46.4222 64.7149C46.8329 64.4142 47.3316 64.2639 47.9182 64.2639ZM47.6322 65.1549C47.2436 65.1549 46.8916 65.2465 46.5762 65.4299C46.2609 65.6059 46.0152 65.8625 45.8392 66.1999C45.6632 66.5372 45.5752 66.9259 45.5752 67.3659C45.5752 67.8059 45.6632 68.1945 45.8392 68.5319C46.0152 68.8619 46.2609 69.1185 46.5762 69.3019C46.8916 69.4852 47.2436 69.5769 47.6322 69.5769C48.2556 69.5769 48.7506 69.3825 49.1172 68.9939C49.4912 68.5979 49.6782 68.0552 49.6782 67.3659C49.6782 66.6765 49.4912 66.1375 49.1172 65.7489C48.7506 65.3529 48.2556 65.1549 47.6322 65.1549ZM55.3303 64.2639C55.8657 64.2639 56.3423 64.3885 56.7603 64.6379C57.1783 64.8872 57.5047 65.2465 57.7393 65.7159C57.9813 66.1852 58.1023 66.7352 58.1023 67.3659C58.1023 67.9965 57.9813 68.5465 57.7393 69.0159C57.5047 69.4779 57.1783 69.8335 56.7603 70.0829C56.3423 70.3322 55.8657 70.4569 55.3303 70.4569C54.7437 70.4569 54.245 70.3102 53.8343 70.0169C53.431 69.7162 53.1523 69.3239 52.9983 68.8399V73.2399H51.9973V64.3409H52.9983V65.8809C53.1523 65.3969 53.431 65.0082 53.8343 64.7149C54.245 64.4142 54.7437 64.2639 55.3303 64.2639ZM55.0443 65.1549C54.6557 65.1549 54.3037 65.2465 53.9883 65.4299C53.673 65.6059 53.4273 65.8625 53.2513 66.1999C53.0753 66.5372 52.9873 66.9259 52.9873 67.3659C52.9873 67.8059 53.0753 68.1945 53.2513 68.5319C53.4273 68.8619 53.673 69.1185 53.9883 69.3019C54.3037 69.4852 54.6557 69.5769 55.0443 69.5769C55.6677 69.5769 56.1627 69.3825 56.5293 68.9939C56.9033 68.5979 57.0903 68.0552 57.0903 67.3659C57.0903 66.6765 56.9033 66.1375 56.5293 65.7489C56.1627 65.3529 55.6677 65.1549 55.0443 65.1549Z" fill="black"/>
</svg>
