<svg width="18" height="18" viewBox="0 0 18 18" fill="none" xmlns="http://www.w3.org/2000/svg">
<path d="M16 3.5V15.5C16 15.6326 15.9504 15.7598 15.8622 15.8536C15.7739 15.9473 15.6542 16 15.5294 16H12.7059C12.5811 16 12.4614 15.9473 12.3731 15.8536C12.2849 15.7598 12.2353 15.6326 12.2353 15.5V3.5C12.2353 3.36739 12.2849 3.24021 12.3731 3.14645C12.4614 3.05268 12.5811 3 12.7059 3H15.5294C15.6542 3 15.7739 3.05268 15.8622 3.14645C15.9504 3.24021 16 3.36739 16 3.5ZM9.41176 7H6.58823C6.46343 7 6.34373 7.05268 6.25548 7.14645C6.16723 7.24021 6.11765 7.36739 6.11765 7.5V15.5C6.11765 15.6326 6.16723 15.7598 6.25548 15.8536C6.34373 15.9473 6.46343 16 6.58823 16H9.41176C9.53657 16 9.65627 15.9473 9.74452 15.8536C9.83277 15.7598 9.88235 15.6326 9.88235 15.5V7.5C9.88235 7.36739 9.83277 7.24021 9.74452 7.14645C9.65627 7.05268 9.53657 7 9.41176 7ZM3.29412 11H0.470588C0.34578 11 0.226085 11.0527 0.137832 11.1464C0.0495798 11.2402 0 11.3674 0 11.5V15.5C0 15.6326 0.0495798 15.7598 0.137832 15.8536C0.226085 15.9473 0.34578 16 0.470588 16H3.29412C3.41893 16 3.53862 15.9473 3.62687 15.8536C3.71513 15.7598 3.76471 15.6326 3.76471 15.5V11.5C3.76471 11.3674 3.71513 11.2402 3.62687 11.1464C3.53862 11.0527 3.41893 11 3.29412 11Z" fill="#63CBF2" fill-opacity="0.28"/>
</svg>
